<svg width="117" height="160" viewBox="0 0 117 160" fill="none" xmlns="http://www.w3.org/2000/svg">
<path d="M57.1098 160C46.217 160 36.506 157.997 27.9768 153.988C19.499 149.981 12.7681 144.458 7.78419 137.418C2.80025 130.379 0.205523 122.312 0 113.218H32.3699C32.7295 119.332 35.2987 124.29 40.077 128.092C44.8554 131.895 50.533 133.796 57.1098 133.796C62.3507 133.796 66.9748 132.64 70.9826 130.327C75.0417 127.964 78.2017 124.701 80.4623 120.539C82.7745 116.326 83.9305 111.496 83.9305 106.05C83.9305 100.501 82.7488 95.6197 80.3853 91.4064C78.0732 87.1933 74.8618 83.9048 70.7513 81.5414C66.6409 79.1779 61.9395 77.9704 56.6473 77.9189C52.023 77.9189 47.5272 78.8696 43.1598 80.7706C38.8439 82.6717 35.4784 85.2665 33.0635 88.5549L3.39114 83.2369L10.867 0H107.36V27.2832H38.3815L34.2966 66.8207H35.2216C37.9961 62.9158 42.1836 59.6789 47.7841 57.1097C53.3847 54.5407 59.6531 53.2562 66.5896 53.2562C76.095 53.2562 84.5728 55.4913 92.0231 59.9614C99.4733 64.4316 105.356 70.5716 109.672 78.3815C113.988 86.14 116.121 95.0803 116.069 105.202C116.121 115.838 113.654 125.292 108.67 133.564C103.738 141.786 96.8271 148.26 87.9383 152.986C79.1007 157.661 68.8246 160 57.1098 160Z" fill="url(#paint0_linear_2206_22347)"/>
<defs>
<linearGradient id="paint0_linear_2206_22347" x1="8.6479e-07" y1="80" x2="116.07" y2="80" gradientUnits="userSpaceOnUse">
<stop stop-color="#00D2FF"/>
<stop offset="1" stop-color="#3A7BD5"/>
</linearGradient>
</defs>
</svg>
