<svg width="121" height="160" viewBox="0 0 121 160" fill="none" xmlns="http://www.w3.org/2000/svg">
<path d="M62.2049 159.999C54.1949 159.948 46.4635 158.605 39.0112 155.969C31.6095 153.333 24.9681 149.048 19.0873 143.117C13.2066 137.185 8.5424 129.327 5.09502 119.543C1.69835 109.758 0 97.7435 0 83.4976C0.0506971 70.4178 1.54625 58.7322 4.48667 48.4407C7.47778 38.0987 11.7363 29.328 17.2623 22.1291C22.8389 14.9303 29.5055 9.45494 37.2621 5.70338C45.0187 1.90112 53.7132 0 63.3457 0C73.7384 0 82.9146 2.02787 90.874 6.08362C98.8333 10.0887 105.221 15.5386 110.037 22.4333C114.904 29.3281 117.845 37.0593 118.859 45.6272H86.3873C85.1199 40.2025 82.4583 35.944 78.4026 32.8515C74.3469 29.759 69.3279 28.2128 63.3457 28.2128C53.2062 28.2128 45.5003 32.6234 40.228 41.4447C35.0061 50.2659 32.3445 62.2556 32.2431 77.414H33.3078C35.6398 72.8006 38.783 68.8716 42.7374 65.6269C46.7425 62.3317 51.2798 59.8222 56.3495 58.0985C61.4699 56.3241 66.8691 55.4369 72.5471 55.4369C81.7739 55.4369 89.9868 57.6169 97.1858 61.9769C104.385 66.2861 110.063 72.2176 114.22 79.7714C118.377 87.3253 120.455 95.969 120.455 105.703C120.455 116.248 117.997 125.627 113.079 133.839C108.212 142.053 101.394 148.49 92.623 153.155C83.9031 157.768 73.7639 160.05 62.2049 159.999ZM62.0529 134.144C67.1226 134.144 71.6599 132.927 75.6649 130.494C79.6701 128.06 82.8131 124.765 85.0946 120.608C87.3759 116.45 88.5166 111.786 88.5166 106.615C88.5166 101.444 87.3759 96.8055 85.0946 92.699C82.8639 88.5926 79.7714 85.3227 75.8171 82.8893C71.8627 80.4558 67.3507 79.2391 62.281 79.2391C58.4787 79.2391 54.9553 79.9488 51.7107 81.3683C48.5168 82.7878 45.7032 84.765 43.2697 87.2998C40.887 89.8347 39.0112 92.7751 37.6423 96.1211C36.2735 99.4165 35.5891 102.94 35.5891 106.691C35.5891 111.71 36.7298 116.298 39.0112 120.456C41.3432 124.613 44.4865 127.933 48.4408 130.417C52.4458 132.902 56.9832 134.144 62.0529 134.144Z" fill="url(#paint0_linear_2206_22348)"/>
<defs>
<linearGradient id="paint0_linear_2206_22348" x1="8.97463e-07" y1="80" x2="120.455" y2="80" gradientUnits="userSpaceOnUse">
<stop stop-color="#00D2FF"/>
<stop offset="1" stop-color="#3A7BD5"/>
</linearGradient>
</defs>
</svg>
