<svg width="120" height="160" viewBox="0 0 120 160" fill="none" xmlns="http://www.w3.org/2000/svg">
<path d="M59.0873 160C47.7312 160 37.6171 158.048 28.7452 154.144C19.9239 150.19 12.9531 144.765 7.83268 137.87C2.76298 130.925 0.15209 122.915 0 113.84H33.1558C33.3586 117.642 34.6007 120.988 36.882 123.878C39.2141 126.717 42.3066 128.922 46.1596 130.494C50.0125 132.066 54.3471 132.852 59.1633 132.852C64.1823 132.852 68.6183 131.964 72.4713 130.19C76.3243 128.416 79.3407 125.956 81.5207 122.814C83.7007 119.67 84.7907 116.045 84.7907 111.939C84.7907 107.782 83.6246 104.106 81.2926 100.912C79.0112 97.6677 75.7159 95.1328 71.4067 93.3077C67.1481 91.4827 62.0784 90.5701 56.1976 90.5701H41.6729V66.3877H56.1976C61.1659 66.3877 65.5512 65.5258 69.3534 63.8021C73.2064 62.0784 76.1975 59.6957 78.3268 56.6539C80.4561 53.5613 81.5207 49.9619 81.5207 45.8554C81.5207 41.9517 80.5828 38.5297 78.707 35.5893C76.8819 32.5982 74.2964 30.2661 70.9504 28.5931C67.6551 26.9201 63.8021 26.0836 59.3915 26.0836C54.9301 26.0836 50.849 26.8948 47.1482 28.517C43.4473 30.0886 40.4815 32.3446 38.2509 35.2851C36.0202 38.2255 34.8288 41.6729 34.6767 45.6273H3.11786C3.26996 36.6539 5.83015 28.7452 10.7984 21.9011C15.7668 15.057 22.4588 9.70847 30.8744 5.8555C39.3408 1.95183 48.8972 0 59.5436 0C70.2913 0 79.6956 1.95183 87.7564 5.8555C95.8173 9.75917 102.078 15.0316 106.54 21.673C111.051 28.2636 113.283 35.6653 113.231 43.8782C113.283 52.5981 110.57 59.8731 105.095 65.7033C99.6702 71.5334 92.598 75.2343 83.8781 76.8059V78.0226C95.3356 79.4928 104.056 83.4725 110.038 89.9617C116.071 96.4003 119.062 104.461 119.011 114.144C119.062 123.016 116.501 130.9 111.331 137.794C106.21 144.689 99.1379 150.114 90.1138 154.068C81.0898 158.022 70.7476 160 59.0873 160Z" fill="url(#paint0_linear_2206_22345)"/>
<defs>
<linearGradient id="paint0_linear_2206_22345" x1="8.86708e-07" y1="80" x2="119.012" y2="80" gradientUnits="userSpaceOnUse">
<stop stop-color="#00D2FF"/>
<stop offset="1" stop-color="#3A7BD5"/>
</linearGradient>
</defs>
</svg>
