<svg width="115" height="160" viewBox="0 0 115 160" fill="none" xmlns="http://www.w3.org/2000/svg">
<path d="M1.54143 160V135.954L57.7264 83.9307C62.5048 79.3064 66.5125 75.1445 69.7495 71.4451C73.038 67.7456 75.5299 64.1233 77.2255 60.578C78.921 56.9813 79.7688 53.1021 79.7688 48.9403C79.7688 44.316 78.7155 40.334 76.6088 36.9942C74.5023 33.6031 71.6249 31.0083 67.9769 29.21C64.3288 27.3603 60.1927 26.4355 55.5684 26.4355C50.7387 26.4355 46.5254 27.4117 42.9287 29.3642C39.3321 31.3167 36.5575 34.1169 34.605 37.765C32.6525 41.413 31.6763 45.7546 31.6763 50.7899H0C0 40.4624 2.33783 31.4965 7.01349 23.8921C11.6891 16.2877 18.2402 10.4046 26.6666 6.24277C35.0932 2.08092 44.8042 0 55.7996 0C67.1035 0 76.9428 2.00385 85.3179 6.01156C93.7444 9.96789 100.296 15.4657 104.971 22.5049C109.647 29.5441 111.985 37.6108 111.985 46.7052C111.985 52.6654 110.803 58.5485 108.439 64.3545C106.127 70.1605 101.991 76.6088 96.0308 83.6994C90.0707 90.7386 81.6699 99.1908 70.8286 109.056L47.7842 131.638V132.717H114.066V160H1.54143Z" fill="url(#paint0_linear_2206_22344)"/>
<defs>
<linearGradient id="paint0_linear_2206_22344" x1="8.49855e-07" y1="80" x2="114.066" y2="80" gradientUnits="userSpaceOnUse">
<stop stop-color="#00D2FF"/>
<stop offset="1" stop-color="#3A7BD5"/>
</linearGradient>
</defs>
</svg>
