<svg xmlns="http://www.w3.org/2000/svg" viewBox="0 0 546 450"><g style="isolation:isolate"><path d="m373.7 284.4-.3-6.8-.5-9.6-.3-7-.8-16.5-.7-13.2-.6-13.6-.6-10.1-.4-7.4-.8-14.3-.8-16.5V169c-.9-15.3-6.2-30-15.3-42.8v-.4l-.5-.3a95.2 95.2 0 0 0-72.6-38.1l-20.4.4h-.1l-103.4 2-22.4 14.5-1 .3v.2h.1l-.1.1v.1h-.2v.1h-.1l.2 7 .1 3v.2l2.7 97.8a146 146 0 0 0 3.7 23.5l-.2.5v.1l.4.4 1.4 5.1-.2.7v.1l.6.4 2 5.7v.6l.4.2c.7 2 1.5 3.8 2.4 5.6v.6l.4.2 2.9 5.4v.5h.3c.8 1.4 1.7 2.8 2.6 4v.6h.5c1.5 2.3 3.2 4.5 5 6.5l.1.5.1.1h.4a76 76 0 0 0 4 4.1l.8.8.1.4.1.1h.4c1.6 1.5 3.4 3 5.2 4.3l.1.4h.4c1.4 1 2.8 2 4.2 2.8v.3l.2.1h.3c1.6 1 3.3 2 5 2.8v.3H179.2c2.6 1.4 5.3 2.7 8.1 3.9l.2.2h.4l5.7 2.1.2.2h.4c2.5.8 5 1.6 7.6 2.2l.2.2h.3l5.1 1.1.1.2h.4c2.4.4 4.8 1 7.3 1.3l.2.2.2-.1 5.8.8.1.1H221.7l4.6.5h1.3l5.8-.1h.5l5-.2.2.1h.1l5-.2.1.1h.1l6.3-.2h4.3l3.8-.2.2.1h.1l5.6-.2h.2l8.6-.2h6.8v-.1l12.5-.3.1.1h.1l5.4-.2.3.1h.4l12.2-.3h.2l5.8-.2.1.1h.2l6.3-.2H324.2l6.2-.1H330.7l10.4-.2h.2l8.6-.2.1-.1 23.7-16.4v-.3Zm-24.4 3-.2-3.4.3-.3v-.1l-.3-.4-.1-1.9 7.9 1.3-7.6 4.7Zm-8.3 13.8-6.3-2.7 2.2-1.7 5.8 1.9-1.5 2.5h-.2Zm-4-4.6h-.2l-2.3 1.8-4-1.8h2.2l5.1-.1 6.4-.2-1.3 2.2-6-1.9Zm-6.6 4.8-3.5-2 3-2.7 4.4 1.8-3.7 3h-.2Zm-6.6.2L320 299l1.8-2.1 4.8 2.6c-1.1 1-2 1.8-2.4 2h-.3Zm-6.5.1-3-2.3 2.4-2.4 3 2-2.3 2.7Zm-6 .1-3.1-2.4 2.5-2.3 3.2 2.3-2.5 2.4Zm-12.9.3a48 48 0 0 1-3-2.3l2.4-2.4 4 2.6a17 17 0 0 1-2.8 2.1h-.6Zm-5.6.1-2.6-2.6 2.2-2 2.8 2.3-2.3 2.3Zm-12.8.3-3.2-2 3.7-2.7 3.3 2.3-3.6 2.4h-.2Zm-6.5.1-4-2.7 2.7-2 4.2 2.6-2.8 2.1h-.1Zm-8.7.2-2.2-2 3.8-2.7 2.7 1.8-4.2 3h-.1Zm-6 .2-1.6-2 2.5-2.7 2.6 2.5-3.2 2.2h-.2Zm-4 0-1.7-2.2 2-2.4 1.8 2.5-2 2.2Zm-4 .1-2.6-2.5 2.8-2.1 1.8 2.3-2 2.3Zm-6.6.2-2-2 3.6-2.7 2 2-3.5 2.7Zm-5.2.1-2.2-2.2 2.5-2.5 2.6 2.6-2.8 2.1h-.1Zm-5.5.1-1.8-2.7 2.6-2 2.2 2.4-2.7 2.3h-.3Zm-6 .1-2.3-2.1 5-2.6 1.2 1.8-3.9 3Zm-6.1-.5-2.5-2.6 3.2-1.8 2.8 2.7-3.3 1.7h-.2Zm-6.2-.9-3-2.8 4-1.4 2.3 2.5-3 1.7h-.3Zm-7.8-1.5-1.7-2.4 3.5-1.5 2.7 2.5-4 1.5-.5-.1Zm-5.6-1.3-2.4-3.1 4.1-.9 2 2.8-3.3 1.3-.4-.1Zm-8.2-2.5-1.7-2.6 5-.9 2.1 2.7-4.8 1-.6-.2Zm-6.3-2.4-2.5-3.9 4.2-.3 2.5 3.9-3.5.6c-.3 0-.5-.2-.8-.3Zm-8.7-4.1-1-3 4.6-.5 2.2 3.5-5 .4-.8-.4Zm-5.5-3.2-.9-3.2 4-.7 1.2 4-3.6.3-.7-.4Zm-40.7-172 .9-1.7 1.7 1.8-1 2.5-1.6-2.3v-.2Zm-.2-9.8h3.8l-1 4-2.8-3.8v-.2Zm4.1-.6h-.1v.2l-3.6.1.2-.2 17.5-2.9-6.9 2.9-6.8.1-.3-.2ZM335 115.1l6.7-1 2.2 6.1-9-5Zm28.1 31.6-10-6 7.4-.4c1 2.1 1.8 4.3 2.6 6.4Zm9.7 123.7-8.4-3.8 8-5.2c0 2.3.1 4.5.3 6.8v2.2ZM362 273l-6.6-2.3V261l8.6 5.7-2 6.4ZM326 296.6l6.7-7v6.8l-6.7.2Zm-11.1.2 7.2-9.6 3.7 9.4-11 .2Zm-20.4.5 8-7.5 11.7 7-19.7.5Zm-21.6.5 12.3-5.2 8.6 4.7-21 .5Zm-13.1.3h-4.4l11.2-10.5 5.5 10.2c-4.2 0-8.4.2-12.3.3Zm-20.2.4 6.8-8.4 8.5 8-15.3.4Zm-12 .3h-1.7l-1.6-8.9 14.7 8.6-11.5.3Zm-18-2.1 14.2-6.7-6 8c-2.4-.2-5.1-.7-8.1-1.3Zm-6-1.4c-3.7-1-7.7-2.4-11.8-4.1l14.2-2.7 3.2 8.1a106 106 0 0 1-5.5-1.3Zm-22.4-9.2-4.8-3-.6-.4 14.6-1 .9 9.3c-3.3-1.4-6.7-3-10-5Zm-15.9-11.8a78.2 78.2 0 0 1-5-5.2s0-.1 0-.1h-.2a81.3 81.3 0 0 1-4.5-5.8l11.2-10.6 5.8 10.5-11.3 7v.2l11 .2 3.2 12c-3.6-2.5-7-5.2-10.2-8.2ZM152.7 259c-1-1.4-1.7-2.7-2.5-4V254.6c-1.2-2-2.3-4.2-3.2-6.3s0-.2 0-.2h-.1l-2-5 7.7 2.7 2.6 17-2.5-3.8v-.2Zm-10-22.2-1.5-5.8v-.1l-1-4 9.4 9.4-5 6.5-1.9-5.9v-.1Zm-5.2-33.6-1.4-4.3 1.3-3.8.4 13.6-1.4-2.8 1.1-2.7Zm-1.2 2.4-1.5-3 1.2-3.3 1.3 3.9-1 2.4ZM176 92.1l5.9 1-3.4 2.5-5.5-2.2 3-1.3Zm.2-.2 1.4-2 4.1 2.9-5.5-.9Zm10.2.2 3.2 2.6-7-1.7 3.8-.9Zm-4.1.7.3-3 3.5 2.1-3.8 1Zm35.4.7-4.2 4.6-9.1-4.6h13.3Zm-13.6-.2 2.4-4 10.9 4H204Zm70.3-1.1-2.3 5.1-9-.2 11.3-5ZM263 96.9l5.5-5.8 5.7 1-11.2 4.8Zm35.3-2 3.6 3.5-5.4 2.8-3.8-5.8 5.6-.4Zm-5.6.3L295 90l3 4.9-5.5.4Zm13.1-2.3 2.8 11.9-6.4-6.4 3.6-5.5Zm6.1 6.8 4.2-2.9 5.8 6.7-10-3.8Zm57 93.7-5-1 4.6-6 .3 7Zm-5.2-1.2-.8-8.6 5.5 2.6-4.7 6Zm1.7 61.3-3.6-15.5 9.7 6.6v.1l-6.1 8.8Zm6.1-8.4.3 6.1.5 9.6-6.8-7 6-8.7Zm-7.4 21.4-8.6-5.6 9.7-6.9-1.1 12.5Zm-8.7-5.8-1.7-16.7 11.5 9.8-9.8 6.9Zm-52.8 28.9 5.9-8.1 13.1 5.4-19 2.7Zm19.2-2.5-7.3 9.7-11.8-7 19-2.7Zm-36.5 5.3 10.3-12.2 6.5 9.4-16.8 2.8Zm16.7-2.5-8 7.4-8.6-4.7 16.6-2.7Zm-17.3 2.6-12.5 5.3-5.4-10.2 18 5Zm-18.5-5L255 298.2l-8.5-8 19.7-2.5Zm-42 2.1 6-8.1 15.7 8.4-21.6-.3Zm21.9.5-6.8 8.4-14.8-8.7 21.6.3Zm-28 8 6-8.1 1.5 8.7-7.6-.6Zm-8.8-1.5-3.2-8.1 17.6 1.3-14.4 6.8Zm-3.7-8.3-14.2 2.7-.8-9.2 15 6.5Zm-38.8-36-3.8-9.2 5.5-4.8a48.4 48.4 0 0 0 7.3 10.7 61 61 0 0 0 1.7 2c.3.1.4.3.6.5l.5.5 1.6 1.4-13.4-1Zm-11.4 10.4-2.5-16.8 9.8-2.7-.2.6-7 18.9Zm-2.8-17-7.7-2.8 4.8-6.4 2.9 9.1Zm-14-29.3 4.4-7.3 3.5 10-6.4 7.2c-.6-3.2-1-6.5-1.5-9.9Zm43.6-123.3 7.2 1.8-10.5.7 3.3-2.5Zm7.5 2-6 5-5-4.3 11-.7Zm28.3-1.6 7.7 3.6-11.9 1 4.2-4.6Zm7.7 3.8-8.5 5.9-3.4-4.9 11.9-1Zm76.4 1.2 6.3 6.4-11.6-3.5 5.3-2.9Zm7.3 5.6 2.3-4.2 10.1 3.8L309 105l.4-.9Zm-.6 1.2 7.8 4.2-12.4 1.1 1.6-1.8 3-3.5Zm11 13.2 4.2 13.4a86 86 0 0 0-8.9-8.3l-.7-.5a93.5 93.5 0 0 0-4.4-3.3l9.8-1.3Zm15-3.2 9 5.2-11 5.5 1.9-10.5v-.2Zm-2.3 10.9h.2l6.4 6.3-14.6-.3 8-6Zm20.2 14.5 2 7.3-8.6 5.1-.8-12 7.4-.4Zm-7.3.1 7-8 .3 7.7-7.3.3Zm24.7 77-4.5 5.6-3.8-9.8 8.3 4.2Zm-8.3-4.5 7.8-5.4.5 9.6-8.3-4.2Zm0 24.2 3.8-13.7 5.2 7.5v.1l-9 6Zm9-5.9.7 12.7-9.7-6.6 9-6ZM343.2 272l2.5 2.8-2.2 3-.3-5.8Zm-47.4 8.2 12.4 1.3-5.9 8.1-6.5-9.4Zm-71.7 9.4-6.6-9.4 12.5 1.3-6 8.1Zm-45.8-38.1-.5-.6 1.7-1.2-.8 2.1-.4-.3Zm-2.2-2.4 2-1v.1l-.5 2.5-1.5-1.7Zm-1.5-1.8 2-.8h.1l-.9 2.3-1.2-1.5Zm-1.2-1.5 2.2-.6-1.2 1.9-1-1.2Zm-3.3-4.9 2.6.1.1.3-.5 2.4s.1.1.2 0l1.3-1v.1l-.6 2.7c-1.1-1.5-2.2-3-3-4.6Zm-1.5-2.7-1-2.2 2.5.4v.2l-1.3 1.8-.2-.2Zm-31.5-62.4c0-3.6-.2-7-.3-10.3V164l7.2 12.5-6.9.3v-1Zm-.3-12.2-.2-6 7-2.3.5 21-7.3-12.7Zm8.8-58.4h3.2l-3.1 1.9-2.2-1.7 2-.2Zm18.5-9.4-6.7 4.9 3-7.4 6 .8-2.3 1.7Zm14.4.2 4.9 4.2-9-.4 4.1-3.8Zm25 3.7 4.2 3.7-.2.2-7.6.2 3.6-4Zm13.4 3.6h-2.5v-.2h-.2l-.5.3-5.3.1 5.2-5 3.3 4.8Zm46-.3-4.4-.3-5.1-3 9-2.3.5 5.6Zm25.5 1 1.7 5.2a105.8 105.8 0 0 0-5.7-2l-.1-.2h-.5l-4.3-1.2-.2-.5 9.1-1.3Zm-9.1 1.1 2.6-5.4 6.3 4.1-9 1.3Zm9.5-1.2 7.6-2.3 1.1 6.7-8.7-4.4Zm18.9 2.4-3.8 4.4-5.9-2.2 10.4-3-.7.8Zm31.5 50v-.2.1Zm10.2 15.5 4 7.6-9.4.8 5.4-8.4Zm4 7.9-4.6 4.6-4.4 6.3-.3-5.5.2-.3v-.1l-.2-.3-.2-4 9.5-.7Zm8.2 34 3.8 9.9-9.2 3.4 5.4-13.3Zm-50.3 54.9c0-.4-.4-1.2-1-3l2.1 2h.2l-1.3 1Zm-2.2 1-.5-2.9c1.4 1.4 2 1.9 2.3 2l-1.8 1Zm-7.9 5.3-9.5-3.9h.7l12.5-.3 1.3-.1-5 4.3Zm-9.8-3.8 9.7 4-5.5 4.8-4.2-8.8Zm-67.5 4.5-11.7-6.4 1 .3 2 .3 3.3.7 1.5.2 1.6.2 2 .3a94.1 94.1 0 0 0 1.9.2l1.2.1 2.7.3 2.5.1 1.7.1h.2l-10 3.6Zm10.2-3.4-4 9-6-5.4 10-3.6Zm-22.4-3 12 6.6-6.3 4.1-5.7-10.7Zm-31.2-15.6 2.4-.8-.6 2c.1.1.2.1.2 0l1.7-1-.5 2.4-3.2-2.7Zm-14-19.9 2.4.2-1.5 1.8-.8-2ZM136 138l8.8 4.3-8.5 5c0-3.4-.2-6.5-.3-9.3Zm8.9 4.4-1.3 12.5-7.2-7.4 8.5-5Zm5.5-37.4 11.1-.2-3.4 2.1-2.3-1.9h-.1l-3.4 2a74 74 0 0 1-1.9-2Zm102.7-5.4 5 3h-6.3l-.2-.2h-.1l-.3.2-5.1.1 7-3.1Zm44.2 8.7-6.9 1-1.7-5.3 8.6 4.3ZM342.6 259l2.2 2.1-2 3-.2-5Zm-21.2 14.9-6-12.2 10.2-3.9-2.3 9-1.9 7.1Zm-7.3-8.5-2.3-2.2 3.2-.2-.8 2.4Zm-141-24.5-.3-.6 5.1.4.3 7-2.2-2.7c-1-1.4-2-2.7-2.8-4.1Zm-1.8-3.2-.7-1.3-1.2-2.6-.2-.3 5.8-.2-2.4 6.7c-.5-.8-1-1.5-1.3-2.3Zm-24.4-46.9 6.7-7-1.4 21.4-3.5-9.6-1.8-4.8Zm4.6-20.7 4.5-4-2.4 17.2-9.2-6.6 7.1-6.6Zm-6.4-27.6 8.1 6-9.4 6.5 1.3-12.5Zm0-.2 5.5-13.1 2.6 19-8-5.9Zm9.7-32.8 11.6-.3h1.6l-12 5-7.1-4.6 5.8-.1h.1Zm29.7-5.1-3.1 2-2-1.8-3.6 2.1-1.9-2 10.6-.3Zm158 65-3-1.1 2-4c.4 1.7.8 3.4 1 5.1Zm.9 7.1-2.1 3.9-2.9-4.1 1.6-2.2 3.4 2.1v.3Zm-1 77 2.4 2.2-2.2 2.8-.3-5Zm-27.4 9.2-2.4-1.7 2.5-.1v.6l-.1 1.2Zm-15.6 5.6h2.3l-2.2 2.2-.1-2.2Zm-52.8 3.7 1-2.2 1.1 2.1h-1l-1 .1Zm-78.2-40.7c-.4-1-.8-2-1-2.9l-1-2.9 5 2-2.3 5.7-.8-1.8Zm-2.5-8.1a49.2 49.2 0 0 1-.8-4.3v-.1l-.6-4 4.7 3.1-2.9 7.1-.4-1.8Zm-4.4-17.5 2.2 1.2-2.2 1v-2.2Zm0-3.5 2.2 1v.1l-2.2 1v-2Zm4.7-8.5 2.4 1.4-4.6.2c.7-.7 1.4-1.2 2.2-1.6Zm-10-27.8 18.1 7-20.5 10.4 2.5-17.4Zm18.3 7.2 1.3 10.5-21.7-.2 20.4-10.3Zm-9.6-7.8 2-1-.4 2-1.6-1Zm-1.4-1.5 2.1-.7-1 2-1.1-1.3Zm-.8-1.2 2-.5-1.4 1.5-.7-1Zm-1-2.1a41 41 0 0 0 2.4.3l-1.6 1.6c-.4-.8-.7-1.4-.8-2Zm-.8-10.4-7.3-1.7 7.1-5.4.2 7.1Zm-12.2-40.4 7.1 4.7-5 14-2.2-18.7Zm7.3 5 5.4 8.5-3.3 10-7.3-4.5 5.2-14Zm10.1-5.7-5.5.2 3.5-2 2 1.8Zm-1.8-1.9 3.7-2 2 1.8-3.6 2.1c-.2 0-1-.9-2.1-1.9Zm5.8 0 1.8 1.8-5 .1 3.2-1.9Zm48.4-3.4-2.7 2-1.1-2h3.8Zm-5.4.1-2.8 1.8-1.7-1.7 4.5-.1Zm.4 0h1l1.1 2.1-2.9 2.2-2.2-2.3 3-2Zm3.5 4.6h.2l.2-.2h3.2l-11.3 4.5-6-4.2 13.6-.2h.1Zm85.3 6.9 2.3 1.4-3.9.8-.9-3.5-3.7.8-.3-2.8c2.2 1 4.4 2.1 6.5 3.3Zm30.6 44.3 4.3 2.4-1.6 4.4-.8-1.9c-1-2.7-2.1-5.4-3.4-8v-.4h-.1a92 92 0 0 0-1.2-2.4l4.3 1.1-1.5 4.7v.1Zm11.2 31.2v.2l-2 3-2.7-2.6 2.4-3.3 2.3 2.7Zm-2.2-2.9 2-2.5.2 5-2.2-2.5Zm2.6 9.3-2.5 3.3-2.3-2.7 2.3-3.4 2.4 2.4v.4Zm1 20.2-1.9 2.4-3-1.2 2.4-4 2.5 2.5v.3Zm.2 3.6-2.6 4.2-2.2-1.7 2.8-3.5 2 .7v.3Zm.6 12-2.3 2.9-2.7-2.9 2.6-2.9 2.3 2.4v.5Zm-1.4 16.1-3-3.9 2.2-2.8 2.8 3.3v.6l-2 2.8Zm2-2.5.3 5.5-2.1-2.8 1.9-2.7Zm-2.7-4.4 2.4-3 .3 6.2-2.7-3.2Zm-.1-.1-2.5-3 2.4-2.9 2.5 2.8-2.4 3Zm0-6 2.2-2.8.3 5.4-2.5-2.7Zm-3.2-7v-.1h-.2l-7.4 1.8-4.1-15.6 11.3 6.7.6 12.1-.2-5Zm.2 9-7.7-7 7.3-1.9.4 9Zm-26.4-.1v-.2l-.1-2.6-.1-2-.1-1.6-.1-2.5v-1l7.6 9.9h-7.2Zm.4 22.5-2.4-1 2.4-.8v1.8Zm-46.3 11h-.4l.4-2.2 1.3 2-1.3.1Zm-77.6-13.2 13 1.8 3.9 5.3c-6.3-1.8-12-4.2-17-7.1Zm-4.8-13.2-3-8.3 8 3.3-2.3 2.3-2.7 2.7ZM175 222l-3.5 5.1-2-9 4.9 3.4.6.5Zm8-30 11.2-5.8 3.8 5.4h-.7l-5 .2h-1.5l-7.2.2h-.7Zm-7-8.5-1.3-10.5 10.7 2.6 5.2 1.3-2.7 1.2-11.9 5.4Zm-14.8-29.4 2 .2-2 1.4v-1.6Zm.2-.2 1.8-1.5v1.7l-1.8-.3Zm1.8.6.1 2-1.9-.6 1.8-1.4Zm.3-.2v-.1l-.1-2h.2l.1 4.3h-.2v-2.2Zm-2.6-14.1.1-1.2 2.4 1v.2l-2.5.9v-1Zm28-31.5 2.9 6.5-11.4-6.3 8.5-.2Zm13.6-.2-10.2 6.6 3.4-6.5 6.8-.1Zm31.5-.7-8.3 8.5-4.3-8.2 12.6-.3Zm10.5-.2-5.2 14-5-13.8 10.2-.2Zm21.7.5-4.8 3.7-5.5-4.4h3.2c.1 0 2.8 0 7.1.7Zm10.9 2.4-5.4 5.5-5-7.8a90 90 0 0 1 10.4 2.3Zm.3 0 9.8 3.5-15.3 2 5.4-5.5h.1Zm12.7-1 .8 3.4-3.2 1-1.5-3 4-1.3Zm19.4 18.2-9.5 4-7.7-6.3 9.3-3.7c2.6 1.7 5.3 3.7 8 6Zm8 7.8-9.3 5L310 128c2.6 2.2 5.1 4.7 7.6 7.5Zm6.8 8.8-6.3 2V136a86 86 0 0 1 6.3 8.3ZM331 156l-8.7.5 2.3-11.9c2.3 3.5 4.4 7.2 6.4 11.4Zm3.6 8.5.6 1.9-12.7-9.7 8.6-.5.2.5 3.3 7.8ZM312 259.3c0 1.3-.3 2.3-.7 3.3l-1.3-1.5 2-4v2.2Zm-14.8 5.8-9.8-1 10.2-3.4-.4 4.4Zm-88.7.4 3.5-4.2 5 6.1c-3-.5-5.8-1.2-8.5-2ZM187.8 244l3.9-3.9 6.2 6.6-11.3-1.6 1.2-1.1Zm-9.9-13.4 6.6 1.3-1.4 4.4-5.2-5.7Zm0-.2 5.8-4.4.8 5.7-6.6-1.3Zm-13.8-29.3c0-.5.2-1 .3-1.4a9 9 0 0 0-.3 1.4Zm.4-1.7Zm19-7.2h.2l-.8 1.5-.3-1.5h1Zm7.7-15.2 13 5.5-9.9 3.4-3.1-8.9Zm13 5.7-6 8.9-3.8-5.5 9.9-3.4Zm-39.6-22.2v-.1a8.6 8.6 0 0 1-.6-2.4v-1l4 3.1 3.5 5.4c-.6 0-1.2-.2-1.7-.3a8 8 0 0 1-3.1-1.7 8 8 0 0 1-2-3Zm-.3-22h.2l-.4 1-.2.4h-.2c.2-.5.3-1 .6-1.3Zm-.8 1.3-2.1-.9 2.6-.3-.5 1.2Zm2-2.7h.2l-1 1.2h-.2a7 7 0 0 1 1-1.2Zm-1.2 1-2.2-1h3a7 7 0 0 0-.8 1Zm3.1-2.3h.1l-1.6 1 1.5-1Zm-1.7.9-2-1.8 3.4.8-1.4 1Zm29.7-28.1-3.4 6.6-2.9-6.5 6.3-.1Zm3.1 16-12.4-1.3 6-7.7 6.4 9Zm51.8-9.8 2 15.9-12.8-8.9 10.8-7Zm-10.8 6.8 5.2-13.9 5.5 7-10.7 6.9Zm21.8-9.5 5.1 13.7-15.8-11.1 10.7-2.7Zm-10.7 2.4 5-7 5.6 4.4-10.6 2.5Zm11-2.6 4.8-3.8 5 7.8-9.8-4Zm31 4.6 3.7 1.9-4.1 6.7-4.3-10.8c1.6.6 3.2 1.4 4.8 2.2Zm8.5 4.8.3.2-9 3.6 4-6.6h.2l4.5 2.8ZM300 132l7.8 8.6-18.3-2.4L300 132Zm13.8 95.5v.1l.1 1.3-2.2-.6 2.3-1v.1l-.1.2Zm-60.2 42-.2 2.1-1.5-2h1.7Zm13.2-.3-1.4 2.2-.9-2.2h2.3Zm-5.7-.1-5.5.1-8 .2-2 .1h-4.4l8.4-.1L269 264l-6.4 4.9h-1.4Zm-25.7.3h1.1-1.1Zm-17.9-1.8 4.4-2.5 3 3.4h.1l1.6-5.2 5.6 6c-5.1-.3-10-.9-14.7-1.7Zm-19.2-20.8v-4l4 5.7-4-1.7Zm-15.2-51.3v-1.3h1.5a1118 1118 0 0 1 1.9-.1l49.2-1.6 5.6-.1c8.7.1 9.2 6.9 9.2 7 0 0 .3 2.7.4 8.6h-.1l-31.6 1h-4.5c-2 .1-3.6.7-5 1.7l-1.5 1.3-1.3 1.3-.3.2v.1l-9 8.3v.2h.1l-.6.6a10.4 10.4 0 0 0-1.8 3l-.5 1.8c0 .1.3 1.2.6 9.3v.4l.4 1.5.6 1.4.2.3a9 9 0 0 1-1.2-3.5v-.4a59.7 59.7 0 0 1-12.3-41Zm.8 30.6 7 4.6-6.2 1-.8-5.6Zm-13.6-18v-.1l2.6-7.8 3.9 9-6.5-1.2Zm-6.4-51.4-.1-4.6 4.8.7-4.6 4Zm-.6-9.4v-1.5h.1v1.5h-.1Zm0 .2Zm.8-7.7 2.4 5.8-2.9.3v-3.5c0-1 .2-1.8.5-2.6Zm4.2-4 2 3.6h-6c.9-1.8 2.4-3 4-3.6Zm32-5-8.9.3 7.3-6.2 1.6 6Zm8.4 0 6.2-9 5.8 8.7h-.5l-.1-.1h-.1v.1h-2.5l-2.7.1-4.7.2h-1.4Zm83.3-5.4-13.3 3.6 9-14.6 4.3 11Zm0 .3L289 138l-10.4-8.9 13.3-3.5Zm19.9 34.4 6-13.3 4.2 9.9-8.7 3-1.5.4Zm27.3 34.9-5.7 5.6-4.2-9.8 9.9 4.2Zm-9.9-4.5 9.5-5.3.5 9.6-10-4.3Zm10.6 17.1v.7l-6.3-7.6 5.7-5.5.1 2.6.5 9.8Zm-11 7.2-10.2 5.9 4.2-16.1 6.1 10.2Zm-10.4 5.8-5.2-10.6-.1-1.5v-.4l9.5-3.6-2.3 9-1.9 7Zm-6.1 36h-.1c-1.8 0-6.5 0-18 .4l-18.6.5H268l-14.6.4c-20.7-.3-37-4.7-48.8-13h.9l4.2-.1 4-.1h.2l6.9-.2 7.2-.2h2.3a1551.9 1551.9 0 0 1 4.9 0s0-.1 0-.2h2.8l6-.2 2.8-.1h2.6l6.7-.3 6-.1h2.6l5.7-.2 5-.2 1.5-.5c.7-.4 1.3-.7 1.9-1.2l1.4-1.3 21.4-14.8-.3-6.7V218l-1.5-29.4v-.1l-.8-14.3V173.4l-.4-4.8a24 24 0 0 0-.8-4.9l-.1-.6c-1.8-5.4-6.3-9-13.4-10.6l-.9-.2a41.4 41.4 0 0 0-11.5-.4l-24.4.5h-.1l-3 .1-38.8.9h-.1l-16 .3h-.1c-1.7 0-3.3-.6-4.5-1.7v-.1a6.5 6.5 0 0 1-2-4.4l-.7-13.3h1l5-.2 2.8-.1h2.4a6565.7 6565.7 0 0 1 44.7-1.1h.3c9 0 17.2 1 24.5 2.7a70.2 70.2 0 0 1 13.5 4.7 56.5 56.5 0 0 1 31 38c2 7.8 1.9 13.5 1.9 13.6 0 .5 2.9 50.2 3 64.7ZM239 269.1l-6.4-.2 8.5-5-2 5.2h-.1Zm-17.1-4.5-7.4-6.3 8.5 1.5 3.2 3-4.3 1.8Zm4.4-1.6-1.5 5-2.8-3.2 4.3-1.8Zm55.1-5.6-2.8 1.3h-.6l-8-1 5.6-.2h5.8Zm-7.1 8.4-4.8-2 .2-.2 8.6-4.6-4 6.8Zm-20.7-4.9-.6-2.9 7.2 3.7-6.6-.8Zm-.1-2.9 13.3 1.4-6 2.3-7.3-3.7Zm15-.3 8.2 1-9.3.5.5-1.5h.7Zm-7.3 4.1 6-2.4 1.9 4.2-7.7-1.7h-.2Zm8.1 1.8-.3-.6-1.6-3.6 10.6-.5-8.3 4.5-.4.2Zm-13.5-5.6h4l8-.3-.6 1.5-12-1.3h.6Zm-3 0 .6 2.9-8.2-.8-4.2-2.9c3.7.4 7.7.6 11.8.7Zm-19.4 2.4-5.9-1.6 6.8-2.4-1 4Zm7.5 3.4-8.5 5 1.1-8.1 7.4 3.1Zm-.4-3.3.6 3.1-7.1-3 6.5-.1Zm.8 3-.6-3 4.2-.2-3.6 3.3Zm-.6-3.2.2-2.9 4 2.7-4.2.2Zm4.5 0 .6.5 3.6 2.8h-7.9l3.7-3.2Zm4.5 3.3-4.2-3.2 7.8.7-3.6 2.5Zm-9-6.4-.2 3-6.9.2 1-4 6.2.8Zm-13.5 1.4-4.3-5c3.5 1.1 7.2 2 11.1 2.6l-6.8 2.4Zm-.9 4-3-2.9 3.8-.8-.8 3.7Zm-3.2-3-2.7-4.7 6.5 3.8-3.8.9Zm-3.3-5-5.6 3.4-2.8-6.2 8.4 2.7Zm-8.4-3 2.8-1.2 5.2 3.7-8-2.6Zm2.8 6.7 7.1 6.1-9.1-3.5.3-.4 1.7-2.2Zm5.8-3.7 2.9 5-8.4-1.5 5.5-3.5Zm.3 0 2.3-1 4 4.7-6.3-3.7Zm-.2-.2-5-3.6c2.3 1 4.7 1.9 7.2 2.7l-2.2 1Zm-8.9-3-4.3-4.9c2.2 1.4 4.6 2.7 7 3.8l-2.7 1.1Zm-.4-.2-8-2.7 3.5-2.3 4.5 5Zm.1.3-5.6 4-2.5-6.8 8.1 2.8Zm-14.3.6 6-3.4 2.4 6.7-8.4-3.3Zm8.9 3.4 5.6-3.8 2.9 6.3-2.6-.8-6-1.7Zm21 7.2.8-3.8 5.8 1.6-6.6 2.2Zm6.8-2-1.1 8-5.6-5.8 6.7-2.2Zm8 3.2h8l-9.9 5 2-5Zm8.3 0-.1 5-10 .2 10.1-5.2Zm.3-.1 3.7-2.7 7 .8-11 7 .3-5.1Zm11-1.8 7.6 1.7h.3l-18.6 5 10.7-6.7Zm17.7-3 9.1.8-13 6 3.9-6.8Zm.4-.2 3-1.4 5.4 2.1-8.4-.7Zm9.1.8-5.6-2.2 10.7-.3-5 2.5ZM196.7 240h1.7l-1.2.7-.5-.7Zm-1.3-14 1.7 2.2-2-.3v-.5c0-.1 0-.7.3-1.5Zm.7-1.7 1 2-1.6-.7.6-1.3Zm1-1.4.5 2.2-1.3-1 .8-1.2Zm9.7-9.4 2 .5-8.7 5.8 6.7-6.3Zm-8.6-21.7H200.3l-2.4 1.4-.4-1.4h.7Zm-35-48h.2v1.4h-.2V144Zm-.2 1.3-1.8-.5 1.8-.6v1.1Zm.8 5.8-.2-5 2.9-.3-2.7 5.3Zm6.7-11.4 3.6 3-7.2 2.8 3.6-5.8Zm-3.8 5.7-2.4-5.7h6l-3.6 5.7Zm3.8-6-2-3.6h6.4l-4.4 3.6Zm7.7-7.5h.8l-1.2 2.2-1.2-2.2h1.6Zm58.6-1.5-.9 2.2-1.4-2.1h.1l2.2-.1Zm7.8.1h.5l-1.4 2.1-.4-2.1h1.3Zm10 1-1.8 1.8.3-2 1.5.1Zm7 1 5-6v7.2l-.3-.1-1.3-.3-2-.6h-.1c-.3 0-.5 0-.8-.2h-.4Zm12-4.4 4.6 1.2-5.7 6.2-5.6-9.1 6.6 1.7Zm15.5 10.3 3.2 8.8-1-.9-.2-.1-1.4-1.2-1.8-1.3-2.4-1.7-1.8-1 5.5-2.5ZM295 150l.6.6-2.2 1.1 1-2.3.6.6Zm2.2 2.3-2.5.8 1-2.3 1.5 1.5Zm1.4 1.7-2.2 1 1-2.4 1.2 1.4Zm2.7 3.7-2.4.7 1.1-2.5c.5.6 1 1.2 1.3 1.8Zm1.5 2.3-2.4.7 1.1-2.7c.5.7 1 1.3 1.3 2Zm1 1.7.8 1.4-2.7.2 1.1-3 .9 1.4Zm0-.4 7.7-.8-5.3 5.3-.1-.3a64 64 0 0 0-1.2-2.3l-.9-1.6-.1-.3Zm7.2 52.2 2.2 1-2.1.8v.2l2.4 2.2-2.2.7h-.1c-.1 0 0 .1 0 .2l2.4 1.2-2.3 1.5-.5-9.5 2.4 1-2.2.5-.1.1v.1Zm.7 17.1 2.4 1-2.3.7v-1.7Zm-.4-8.9 2.4 2-2.3.5-.1-2.5ZM275 139.4l1.8-1.7-.4 2.3-1.4-.6Zm-3.7-1.5 2-1.6-.3 2.2-1.7-.6Zm-50.5-7.2h1.5l-.8 1.9-1.2-1.9h.5Zm4 0-1.2 2-1-2h2.2Zm1.9-.1-.8 2-.7-2h1.5Zm2.5 0-1.1 1.9-1-2h2Zm2.8-.2-1.6 2.2-.8-2.1h2.4Zm2 0-.7 2-.8-2h1.5Zm-14.3.3-1.2 2-1-2h2.2Zm-2.5 0L216 133l-1-2 2.3-.1Zm-2.6.1-1 2.1-1.3-2h2.3Zm-1.1 2.3h-2.2l.8-2 1.4 2Zm1.2-2.2 1 2.2h-2l1-2.2Zm2.7 0 1 2.1H216l1.4-2.2Zm2.5-.2h.1l1.5 2.2h.2l.8-2.1 1 2.1-5 .1 1.4-2.3Zm5 0 .8 2.2h-2l1.3-2.2Zm2 0 1.1 2v.1h-2l.9-2.1Zm1.3 2 1.2-2 .8 2-2 .1Zm4-2.2 1 2.2h-2.6l1.7-2.2Zm2 0 1.5 2.2h-2.2l.7-2.2Zm15 .3 1.5.1-1.7 2 .1-2Zm-.4 0-1.5 2-.1-2.1h1.6Zm-2-.2-1.1 2-.3-2h1.4Zm-1.3 2.2h-1.7l1.4-2.2.3 2.2Zm1.5-2v2.1H246l1.2-2Zm2 .2-.2 2h-1.4l1.5-2Zm1.8.1-.3 2.1-1.4-.1 1.7-2Zm0 2.1 2-1.9-.4 2.1c-.5 0-1 0-1.5-.2Zm24.2 3.5-1.8 1.7.3-2.2 1.5.5Zm1.7.8-1.8 1.6.4-2.2 1.4.6Zm2.2 1-2.3 1.5.4-2.4 1.9 1Zm2.2 1.1-2 1.6.1-2.5 1.9 1Zm6.4 4-2.7 1.1.6-2.5 2.1 1.5Zm1.8 1.4-2.5 1 1-2.1 1.5 1.1Zm1.4 1.2-2.1 1.2 1-2.2 1.1 1Zm1.5 1.3-2 1.4.8-2.5 1.2 1Zm-9-6.7-2.3 1.4.5-2.4 1.7 1ZM267 134l2.2.7-2.3 1.7.1-2.4Zm2.5.8 1.8.6-2 1.7.2-2.3Zm3.7 1.3-2 1.6.4-2.2 1.6.6Zm-3.7-1.5-2.5-.8h-.3v-7.2l5.5 9-2.7-1Zm-2.8-.6-1.6 1.8-.1-2.3 1.1.3.6.2Zm-2-.6-1.7 1.9-.1-2.3 1.8.4Zm-1.9 2-1.5-.3 1.4-2 .1 2.3Zm2-1.8.1 2.4-1.8-.5 1.7-1.9Zm2 .6-.1 2.2c-.5 0-1-.2-1.5-.4l1.6-1.8Zm2.5.7-.2 2.3-2-.6 2.2-1.7Zm2 .7-.3 2.3-1.6-.6 2-1.7Zm3.7 1.5-.3 2.3-1.4-.7 1.7-1.6Zm4 1.7-.2 2.5-2-1 2.2-1.5Zm2.1 1.2-.5 2.3-1.5-.8 2-1.5Zm2 1.1-.5 2.4-1.7-1 2.3-1.4Zm.3 0 1.7 1-2.3 1.3.6-2.3Zm1.7 1.2-.5 2.5-1.7-1.1 2.2-1.4Zm2.4 1.7-1 2.2-1.6-1.2 2.6-1Zm1.8 1.3-1 2.2-1.5-1.1 2.5-1Zm1.4 1.2c-.3.6-.6 2-.7 2.5l-1.5-1.3 2.2-1.2Zm1.5 1.3-.6 2.7-1.3-1.3 2-1.4Zm.7 3.9-1-1 2-1.2-1 2.3v-.1Zm.3.3 2-1.1-1 2.2-1-1.1Zm1.3 1.4 2.5-.8-1 2.5-1.5-1.7Zm1.6 2 2.2-1.1-1 2.4-1.2-1.4Zm1.3 1.6 2.2-1.1-1.2 2.4-1-1.3Zm1.2 1.6 2.5-.7-1.1 2.8-1.4-2Zm1.6 2.3 2.4-.7-1.1 3-1.3-2.3Zm5.5 4.7.2.6-2.8-.2 1.4-2.5 1.2 2.1Zm12 5-9 1.5 2.9-11.5 5.6 9.2.5.9Zm-9.2 1.2a64.7 64.7 0 0 0-2.2-5.5h-.1v-.2l5.2-5.4-3 11.1Zm4.1 32.1-2.4-1.3 2.3-1.1.1 2.4Zm-.1-2.8-2.4-1.2 2.2-.8.2 2Zm-2.8-5.4 2.4 1-2.3.9-.1-2Zm2.5 1.2.1 1.8-2.3-1 2.2-.8Zm-2.3-1.4 2.2-1.2.1 2.2-2.3-1Zm2-3.8.2 2.2-2.3-.8 2.1-1.4Zm-2.3-1.1 2.2-1.6v-.1l-2.4-1 2.2-1.1c.3 2.4.3 4.1.3 4.6l-2.3-.8Zm2-4-2.3-.8 2-1.5.3 2.3Zm-.3-2.6-2.5-.6 2.1-1.6.4 2.2Zm-.5-2.5-2.7-1.2 2-2c.3 1.1.6 2.2.7 3.2Zm-.8-4v.4l-2.6-.5 1.8-2.7.7 2.8Zm-2.6-7.8-2.8-.5 1.5-2.6c.5 1 1 2 1.3 3Zm1.7 4.6-2.7-.2 1.2-4 1.5 4.2Zm-6.2-8.5-1.2-2.3 2.7-.2-1.5 2.5Zm3 .6-1.5 2.7-1.3-3 2.8.3Zm1.6 3.5-1.3 4c-.4-1.5-1-3-1.6-4.5l2.9.5Zm1.5 4.6-1.7 2.8-1-3 2.7.2Zm1 3.6-2 2-.4-1.8-.2-.6 2.6.4Zm.8 3.6-2.2 1.5-.5-2.7 2.7 1.2Zm.4 2.5-2.2 1.6-.3-2.2 2.4.6Zm0 2.5-2 1c0-.5 0-1-.2-1.7l2.3.7Zm.3 2.3-2 1.4-.2-2.3 2.2.9Zm.3 2.6-2.3 1.4v-2.2l2.3.8Zm.1 2.5-2.3 1.3v-2.1l2.3.8Zm.3 4.8-2.3.8-.1-1.8 2.4 1Zm.1 2.4-2.3 1.1-.1-2.3 2.4 1.2Zm.2 2.8-2.3.7-.1-2 2.4 1.3Zm.1.2.1 1.9-2.2-1.3 2.1-.6Zm0 2-2.2 1.2-.2-2.5 2.4 1.4Zm-2.2 1.4 1.7.6v.1l.1.3-1.7.6-.2-1.7Zm2.3.8-.3.1v-.1h.3Zm-2.3 1 2.4 1-2.3 1v-2Zm.4 0 1.5-.6.6 1.2v.2l-2.1-.9Zm1.7-.7.4-.1v.9l-.4-.8Zm.4-.4h-.2l.1-.1Zm-.5-.2-1.7-.6 2-1 .1 1.5-.4.1Zm.6-1.8-.2-2.1.1-.1v-.1l-.2-2.8-.2-2.3v-2.1l10 7.4-9.5 3.7v-1.6Zm-.5-9.7 6.6-11.6 3.5 19-10.1-7.4Zm12 7-1.6.5 6-13.3 4.3 9.8-8.7 3Zm-1.7.3-3.5-19 9.5 5.7-6 13.3Zm-10.4-7.6-.1-2.3-.2-2.6s0-2.6-.5-6.5l7.4-.1-6.6 11.5Zm-.6-11.6 6-13.6 1.2 13.5-7.2.1Zm-.2-.2v-.5l-.5-2.4-.8-3.6-.1-.7-.9-3-.7-2.1 9-1.4-6 13.7Zm-14.1-27.9 1-2.4 1 1.3-2 1.1Zm-5.7-6.3.7-2.6 1.4 1.4-2.1 1.2Zm-8.4-9.6-4.8-11.2 10.3 8.7-5.5 2.5Zm-.3-.1-3.9-2.2-2.2-1-1.8-.8-1.7-.7-1-.3 5.8-6.3 4.8 11.3Zm-21.1-7.9.6.1-1.4 2-.2-2.3 1 .2Zm-1 2.2-2-.4 1.8-1.9.2 2.3Zm-2.3-.5V132l2 .4-2 2Zm-.2 0-1.7-.3 1.6-2 .1 2.3Zm-1.8-.5-.1-2.2c.6 0 1.1.2 1.7.3l-1.6 1.9Zm-.2.1-1.4-.2 1.3-2v2.2Zm-1.5-.5-.1-2.1 1.4.2-1.3 2Zm-.2.2-2-.2 1.8-2 .2 2.2Zm-2.2-2.6-1.8 2 .3-2.1h1l.5.1Zm-9.2 1.6h-1.4l1-2.1.4 2.1Zm-1.6-.2-.6-2.2h1.7l-1 2.2Zm-.1.2h-1.5l.8-2.2.7 2.2Zm-1.7-.3-1.1-2h2l-.9 2Zm0 .2H238.1c0-.5.4-1.7.6-2.2l1.2 2.2Zm-2.1-.1-.9-2.2h1.5l-.6 2.2Zm-.2.1h-1.7l.9-2 .8 2Zm-5.4-2.4h-3l-2.4.1h-2l-2.4.1h-1.2l7.5-5 5.3 4.8h-1.8Zm-3.6-5-13.5-3.6 10.4-4.9 3 8.4Zm-.4-1.8-2.5-6.7 13 5.2-9.9 3.3-.6-1.8Zm.3 2-7.7 5-5.7-8.6 13.4 3.5Zm-16.6 5.5-1 2.1-.9-2 1.9-.1Zm-1 2.3h-2.7l1.7-2.2 1 2.2ZM189.4 154h1.1l-5.8 1 .2-2.6c1.2 1 2.8 1.6 4.5 1.6Zm16.1-.3 2 1.7-7.3-.9 5.3-.8Zm38.8-.8 2 2.1-7.7-2 5.7-.1Zm8-.2-5.6 2.3.7-2.2 4.8-.1Zm47.6 43.1-4-3.8 3.6-3 .4 6.8ZM278.8 241l.4-.3-.4.3Zm-1.8 1.1-.6-3 2.2 2c-.5.4-1 .8-1.6 1Zm-41.9 1.7-.9-2h1l1.5-.1c-.5.5-1.4 1.5-1.6 2.1Zm-16.3.5 1.8-2.1v1l.1 1h-2Zm-11.3.3 2.7-2-.6 2h-2.1Zm4.2-34 3.8.8-6.1 2.5 2.3-3.2Zm34.3-1.1 2.8 2.6-4.7.2 2-2.8Zm4.8-10.2-.1-.5 1-.4-1 1v-.1Zm-.6-5.2h-.2l-1 .6.6-1.3s-.2-.1-1 .3l.5-.8c.7.6 1.3 1.3 1.7 2l-1.2.7.6-1.3v-.2Zm-8.9-2.1-.4-1 .9-.1-.5 1Zm-39-.2-1.4 1.4-.1-1.4h1.6Zm1.6 0-.9 1.3-.2-1.3h1.1Zm2.1-.1-1.4 1.4-.3-1.4h1.7Zm15-.6 12.5-10.3 5 10h-4.9l-7.3.2-4.9.1h-.4ZM197 165l-3.8-2 7.7.4 3.6 1.4-7.5.2Zm-11.9.1-1.3-3.3 8.4 1-7 2.4Zm-4.3-7.6-1.4-3 .8-5.8 4.4 6.4-3.8 2.4ZM178 134l1.1-2.2 1.3 2.1-2.4.1Zm-3.6 19h.8v5.7l-6-6 5.2.3Zm-5.3-.5 4.3-3.9 1.7 4.2-6-.3Zm9.9 2-3.6 4.1v-5.6l3.6 1.4Zm0-.3-3.5-1.4 4.4-4.2-.8 5.6Zm-3.7-1.5-1.7-4.2h6.2l-4.5 4.2Zm4.7-4.5-6 .1 8.2-3.6-2.2 3.5Zm-6.4 0 .7-5.5 7.8 1.8-8.5 3.8Zm6.6-7.1-5.6 1.3 3.3-3.4 2.4 2Zm-5.5 1.5 5.7-1.3 1.8 3-7.5-1.7Zm5.7-1.7-2.3-2 3.8-4.5-1.5 6.5Zm-5.3-5.2 2.6 3-2 .2-5 .4 3.8-3.1.6-.6Zm2.5 3.3-3.4 3.4-3.5-2.9 7-.5Zm-4.3 9.3-6.4-2.8 7.2-2.7-.8 5.5Zm0 .2-4.4 4-2-6.8 6.3 2.8Zm5.8 6 1.4 3-5 1.3 3.6-4.3Zm20.3 0 2.3 2-7.9.4 5.6-2.4Zm-5.9 2.3 2.2-3 3.4.6-5.6 2.4Zm23.1-.8-5.5 2.3-3-2.8 8.5.6Zm-8.4-.8 2.9-1.8 5.4 2.4-8.3-.6Zm38.3 0-1.4 3.3-9.9-2.2 11.3-1.2Zm-11.7 1 3.2-3.4 8 2.2-11.2 1.1Zm24.3-1.3 1.3-2.6 5 1.3-6.3 1.3Zm16.5-1-5.5 4.7-4-4.9 9.5.2Zm-9.4-.4 2.1-1.3 6.5 1.4-8.6-.1Zm13.7 0 4.5 2.8-8-2.5 3.5-.3Zm16 38.5 4 3.9-5.4 3 1.3-6.9Zm-18.5 46.2 2.4 1.4a8 8 0 0 1-1.1 1l-1.3-2.4Zm-76.3 5.5 2.5-1.2-1 1.7-1.5-.5Zm-1.4-.7 2.3-.8-1.2 1.4-1.1-.6Zm-.5-2.8-.2-.2 10-1 12.6 2.7-7.7.2-8 .2-1.4.1h-.1c-.8 0-3.5-.5-5.2-2Zm-1.4-2.8v-2.3c-.3-6.5-.5-7.8-.5-7.8s.2-1.7 1.6-3.3l5.2 5.6-5.3 10c-.6-.6-1-1.3-1-2.2Zm-.4-3.6-1.6-.7 1.6-.2v.9Zm0 1.1-1.5-.5 1.6-.3v.9Zm39.5-26.3 2 3.4-8 .2 6-3.6Zm-6.4 3.6-2.4-3.3 8.5-.3-6 3.6Zm21.3-15.8-.7-1.7h-.1c-.4-.7-1-1.4-1.8-2l-.1-.1-1.1-.7c-1-.6-2.2-1-3.7-1.2H243v-.1H238.7l-5-10 15.1-2 6.1 13.1-2.6 10c0-2.4-.2-3.7-.2-3.7s0-.7-.3-1.5Zm-39.7-30.3-.8-1.2h1.3l-.5 1.2Zm.7-1.1.7 1.2h-1.3l.6-1.2Zm-12-2-3.7-4 10.2.8-6.5 3.3Zm10.3-4.4 6.3.8-8.3 2.6-1.3-2.3 3.3-1.1Zm35.6-3.4 5.7 2-7 1.3 1.3-3.3Zm54.4 70L281.3 239l11.4-12.4 4.3-.7 4.1-.6Zm-20.2 12.5-2.7-.8.8-1.3 2 2.1Zm0 .2c-.3.5-.5.9-.9 1.3l-1.6-2 2.4.7Zm-6.4 1.7 5-9.7v.3s1.3 6.4-5 9.4Zm-1.6.7c-3.9 0-7.5.2-11 .3l-5.9-9 6.8-5.1 11.4 13.2-1.3.5Zm-20.7.5h-2.7l6.2-9h.1l5.8 8.8h-2.3l-7 .2Zm-17 .5-8.1-7.7 12.3 1.3-4.1 6.4h-.2Zm-26.1-2.5-4.6-8.9 11.7 7.2-7.1 1.7Zm-8.7-16.3V221l.8 1.2a7 7 0 0 0-.8.4Zm0-2a8 8 0 0 1 1.1-.2l-.2 1.6-.8-1.3Zm1.3 0 .6 1.2-.8.3.2-1.5Zm28.9-8 7.7-.3-8.9 3.1 1.2-2.8Zm8.3-.2-.7 3.8-8.4-.7 9.1-3.1Zm-5.2-31.9-5.5-9 20.3 7-14.8 2Zm-31.8-23.6 5.2 2.7-9.8-.6 4.6-2.1Zm.3-.1 5.5-1.2-.2 4-5.3-2.8Zm5.4 3.2 1.3 2.2-3.5 2.4 2.2-4.6Zm1.4 2.4 4.4 2.1h.1l4.4-4.9 3.9 4.8-16.2.4 3.4-2.4Zm31.1-.5 3.6 2-10.8.2 7.2-2.1Zm10.6-.7-6.2 2.2 8-5.8-1.8 3.6Zm0 .2 4.4 2.1-11.2.3 6.9-2.4Zm19.5-2.4 2.9-.2 3.8-.4-7.8 4.7 1-4Zm25.5 32.8h-7.3l7.3-5v5Zm-1.5 7.5-3.1 8.5-2.3-9.4 3.7.6 1.7.3Zm-12.3 36.5-.1-.1v-1.9h.2l-.1 2Zm-42.5-1-12.4-1.3 5.9-8 6.5 9.3Zm-6.3-9.5 19.5-1.2-13 10.7-6.5-9.5Zm17.6-11.4v-.1l.2-.6 1.1.5-1.4.3v-.1Zm9-50.8-1.3-3.2 6-.6-4.7 3.8Zm-.2.2-.2.1-4 .1 2.9-3.5 1.3 3.3Zm25.7 21.5 1.5-1.1 1.2 3.7-6.8.5 4.1-3.1Zm-4.3 3 2.2-7.1 3.5 2.8-5.7 4.2Zm2.2-7.4-2.8-6.8 9.5 4.8-6.7 2Zm0-12-4.3-1.5 8.1-2.3-3.9 3.8Zm0 .3 4.7 2.8-7.5 1.7 2.8-4.5Zm.1-.2 4-3.8.8 6.6-4.8-2.8Zm4.2-4.2-1-3 5.7 5.5-4.7-2.5Zm-.3 0-8.2 2.3 7.3-5.4 1 3.1Zm-8.4 3.6Zm13.2 58.3-3.5-1.2 8.4-2.7-4.2 4-.7-.2Zm-7.4-7.3 6-2.2-2.4 8-3.6-5.8Zm-3 14v.3l-1.3-1 1.3.1v.7Zm-1.7-2.6v-.6l1.7.7-1.7.3v-.4Zm-38-11.3h.6l-.3 1-.4-1Zm-14.8.4Zm-6.1.2-.4 1-.4-1h.8Zm1.2 0-.5 1-.4-1h1Zm1 0-.2 1-.4-1h.7Zm1-.1v1.1l-.6-1 .6-.1Zm1.8 0c-.3.5-.5 1-.7 1.1l-.7-1.1h1.4Zm.6 0 .4.2-.3.7-.4-1h.3Zm2.2-.1-.7 1-.6-1h1.3Zm1.4 0-.5 1-.5-1h1Zm1.2-.1-.3 1-.5-1h.8Zm1.4 0-.6 1-.5-1h1.1Zm1 0-.4.9-.3-1h.6Zm1.3-.1-.5.9-.5-.9h1Zm1.4 0-.4 1a9 9 0 0 0-.5-1h1Zm1.3-.1-.6.9-.3-.9h1Zm1.5 0-.6 1-.5-1h1Zm1.3 0-.8 1-.2-1h1Zm.7-.1h.2c0 .4-.2.8-.3 1l-.3-1h.4Zm2.1 0v.9l-.5-.9h.5Zm9.1-7.1v.4l-1-.1 1-.7v.4Zm0 1-.1.7-1.2-.5 1.3-.6v.5Zm-.5 1.6-1-.3 1.3-.3-.3.6Zm-2.3 3.2-.7-1 1.6.1-.9 1Zm-1.1.9-.6-1 1.5.4-.9.6Zm-1.2.6-.4-1 1.3.5-.9.5Zm-1.4.4-.2-1 1.3.7a9 9 0 0 1-1 .3Zm-1.3.3v-1l1 .8-1 .3Zm3-2.4.6 1-1.3-.5.8-.5Zm1.1-.8.7 1-1.5-.4.8-.6Zm.8-.8.9.7-1.5-.1.5-.6Zm-3.7 2.5.8-.3.4 1-1.2-.7Zm5-1.8-1-.8 1.6-.2-.7 1Zm.7-1.2-1-.4 1.3-.2-.3.6Zm-.4 0-1.4.2.3-.5 1.1.3Zm-5.7 3.1.3 1-1-.8.7-.2Zm-1 1.3-.7-.9.6-.1.1 1Zm-.8-.7.7.9h-.9l.2-1Zm1 1 1.3-.2 1.4-.5 1.2-.6 1.1-.8h.1c.4-.4.8-.8 1-1.2h.2l.8-1.3.4-.9.3-.8v-.2l.4 10.2-8.7-3.6h.4Zm11 11.5-15.6 3.2 12.8-10.6 2.8 7.4Zm-2.6-7.7-.3-10.9 9.8 13.3-8.3-2.1-1.2-.3Zm15.7-59v-1.3h1.5l1.2-.1-2.7 1.4Zm11 6.7v.6h-.1V171.3l.1.3Zm.2 6.8-.1-1v-.1l.1 1Zm.3 7.7h-.1V185v1.1Zm0 3V188v1Zm5.3 16.3-4.3-5.6 7.3-1.3-3 7Zm0 .4 5.3 2.4-9.2 6.3 4-8.7Zm-1.1 12.9-2.8-3.7 8.6 1.6-5.8 2Zm-4.6 10.7v-.9l1.6.4-1.6.5Zm-1.3-42.2v-1.8l1.4.8v.2l-1.4.8Zm1.5 2.2-1.4.6v-1.5l1.4.6v.3Zm.2-.2Zm.5 21.5-1.5 1.2v-2l1.5.5v.3Zm.3-.2Zm.6 14.4h-.1v-1 1Zm0 2.8v-1.2 1.2Zm-.5-7.9-1.6.6v-1.3l1.6.6v.1Zm0 .3v.9l-1.3-.5 1.3-.4Zm-1.6.6 1.6.5-1.6.5v-1Zm1.6.7v1l-1.3-.6 1.3-.4Zm0 1.2-1.5.6V222l1.6.6Zm0 .3.1.6-1.2-.2 1.2-.4Zm.1.8-1.6.6v-.8l1.6.2Zm-1.6 1 1.6.3-1.6.4v-.8Zm0 1 1.7.6-1.6.6v-1.2Zm1.8 2.1-1.7.4v-1l1.7.6Zm0-.2-1.5-.6 1.4-.4v1Zm-1.4-2 1.3-.4v.9l-1.3-.5Zm-.1-1.1 1.3-.5v.8l-1.3-.3Zm1.5-1v-.7h.1v.8Zm0-1v-1.1l.1 1h-.1Zm0-1.5v-1 1Zm0-1.4h-.1v-.9l.1 1Zm-.3-.1-1.3-.5 1.3-.2v.7Zm-1.8-4.6 1.6.7-1.5.3v-1Zm0 1.3 1.7.7-1.6.5v-1.2Zm1.7 1v1l-1.3-.7 1.3-.4Zm-1.3-1.1 1.3-.2v.8l-1.3-.6Zm1.5-.2.1.9h-.1v-1Zm0-.4v-1.2 1.2Zm-.3-.1-1.3-.6 1.3-.4v1Zm-1.6-.8v-1l1.6.5-1.6.5Zm.4-1 1.2-.3v.6l-1.2-.4Zm-.4-.2v-1.1l1.5.8-1.5.3Zm0-1.3 1.5-1v1.7l-1.4-.7Zm-1.2-37.2 1.4.7v.1l-1.3.8V175Zm0-1.3h1.3l-1.3 1.1v-1.1Zm.7 23.8 1.5.3-1.5.7v-1Zm0 1.4 1.5.5-1.4.5v-1Zm1.8 7.8v.7l-1.2-.3 1.2-.4Zm-1.5.2v-1l1.5.5-1.5.5Zm.2-1.1 1.3-.4v.8l-1.3-.4Zm1.3-.6c-.4 0-1 .3-1.5.4v-1l1.5.5Zm-1.6-2.2 1.5 1-1.5.4v-1.4Zm0-1.4 1.5.8-1.5.3v-1Zm-.1-1.3 1.5.7-1.5.3v-1Zm.2-.2 1.3-.4v1l-1.3-.6Zm0-1.4 1.2-.6v1l-1.3-.4Zm0-1.3 1.2-.5v.7l-1.2-.2Zm-.4-3.6 1.5.8v.1l-1.5.4v-1.3Zm1.5 1.2v1.2l-1.3-1 1.3-.2Zm-1.3-1.3 1.2-.3v1l-1.2-.7Zm1.2-.5-1.4.3V192l1.4 1v.1Zm-1.5-2.7 1.5.7v.1l-1.4.5v-1.3Zm1.6 6v.1l-1.4.6v-1.8l1.5 1Zm-1 10.7 1.5.4-1.6.6v-1Zm.2 2.7 1.3-.5v.9l-1.3-.4Zm-.2-.1v-1.3l1.5.5v.1l-1.5.7Zm.2-1.5 1.3-.4v.9l-1.3-.5Zm1.5-.4.1 1-.1-1Zm0-.4v-.9 1-.1Zm0-1.2-.1-1h.1v1Zm0-1.3h-.1v-.8.8Zm-.3 0-1.3-.4 1.2-.3v.6Zm-1.4-2 1.3-.3v1l-1.3-.8Zm0-1.5 1.2-.2v.9l-1.2-.7Zm1.4-.3h.1v1.1-1Zm0-.4v-1.2l.1 1.3Zm0-1.6V198v1.3Zm-.1-1.5v-1l.1 1h-.1Zm0-1.4-.1-1.4h.1v1.5-.1Zm-.1-1.8v-1.1l.1 1.1h-.1Zm0-1.5-.1-1.5h.1v1.5Zm-.3-.2-1.3-.9 1.3-.4v1.3Zm-1.3-2.5 1.2-.6v1.3l-1.2-.7Zm-.4-6.6 1.4 1v.3l-1.3.2v-1.5Zm0-1.1 1.4.6-1.4.3v-1Zm0-2 1.3 1v.1l-1.3.6v-1.6Zm-.2-2.5 1.4.5v.2l-1.3 1.3v-2Zm0-.2v-1.1l1.4.5-1.4.6Zm.3-1.2 1-.6v1l-1-.4Zm-.1-1.8 1-.9.1 1.5-1.1-.6Zm.1-1.4 1-.6v.6h-1Zm1-.9-1.4 1-.2-1.3 1.5.2v.1Zm-2-1.8 1.8.4v.1l-1.5.7c0-.4-.2-.8-.4-1.2Zm-.5-1h2l-1.7.7a13 13 0 0 0-.3-.8Zm-.8-1.3 2.3-.2-1.6 1.1-.7-1Zm-1-1.2 2.4-.5-1.5 1.4-.9-.9Zm-.4-.4-.8-.5 2.5-.7-1.5 1.4-.2-.2Zm.6.2 1.4-1.4.8.9-2.3.5Zm-1.3-1 1.3-1.5.9.6.2.2-2.4.8Zm-.4.2c-.3-.3-.7-.4-1-.6l2.3-1-1.3 1.6Zm1 .8c1.8 1.4 2.9 3.7 3.2 6.6 0 1.6 0 3.7.2 6.3l-7-14.5c1.2.3 2.4.7 3.5 1.6Zm3.4 13.4.3 11.2-11.5-7.7 11.2-3.5Zm-11.3 3.3 4.2-18 7 14.6-11.2 3.4Zm11.6 8.1-9 11.5-2.6-19.2 11.6 7.7Zm0 .3.2 5.2v2.6l-9 3.4 8.8-11.2Zm.3 8 .2 7-9.2-3.5 9-3.5Zm2.3 18.4-1.5.4v-1.2l1.5.8Zm-.9 9.9 1.3-.3v.6l-1.3-.3Zm1.5-.4h.1v.8-.8Zm0-1.9-.1-1h.1v1Zm-.3-7.8v-1.2 1.3Zm-.2-4.3v-.7l.1.7h-.1Zm0-1.1-.1-2v-.2l.2 2.3-.1-.1Zm-.1-2.7v-1.1 1.2Zm-.3-6.5v-1.2l.1 1.2Zm-.3-12.7h-.1l-.1-1.5h.1v1.5Zm-.4-2.1-1.3-.6 1.2-.3v.9Zm-1.5-.7v-.8l1.4.4-1.4.4Zm.3-1 1-.6.1 1-1-.3Zm1-1.2-1.1-.7 1.1-.2v.9Zm-1.2-2.5 1.2-.2v1.1l-1.2-.9Zm0-1.2 1.1-.5v1l-1-.5Zm-.3-2 1.3-1.3v2.3l-1.3-1Zm.3-2.4 1-.5v.9l-1-.4Zm1.1-.9v-1.2h.1v1.3Zm0-1.6V173.7a366.1 366.1 0 0 1 0 1.7Zm0-2-.1-.8h.1v.9Zm-.3-2v.8l-1.3-.2 1.2-.6Zm-1.8-1 1.5-.6.2 1-1.7-.3Zm-.5-1 1.5-1 .4 1H277Zm-.8-1.3 1.5-1.3.6 1.2-2 .1Zm-1.3-3.7-2.4 1 1-1.6.6.2c.3 0 .6.2.8.4Zm-1.8-.7-2 1.3.6-1.5 1.4.2Zm0 .3-1 1.5-1-.3 2-1.2Zm-7.7 19.8 1 .2-5.5 13-1.3-14 5.8.8Zm1 .5 2.7 19-8-5.9 5.4-13.1Zm12.4 23.1V209.8l.1 2.3v1.4l.1 1.2v.4l-9.4-11.3 9.2 3.6Zm.2 8-6.9 5.2-2.7-16.7 9.6 11.4Zm-16 10.8-3.3-15.6 12.2 10.2-9 5.4Zm16-10.6.2 6.2v1.6l.1 1.1v2.6l.1 1.3v.8l-7.2-8.3 6.8-5.3Zm.8 15.4 1.6 1v.1H280v-1Zm.2-.1 1.4-.2v1l-1.4-.8Zm0-1.3 1.3-.5v1l-1.4-.5Zm1.5-.5h.1v1.2-1.2Zm-.2-14 2.8 3.8-2.2 10.3-.6-14Zm3 4 3.5 5.8-5.7 4.3 2.2-10Zm6.1-2.7-8.8-1.6 9.2-6.4-.4 8Zm-4.8-10.8 3-7 2.2 9.4-5.2-2.4Zm3-7.4-.5-5.9 5.9 6.8-5.3-.9Zm-.1 0-7.3 1.4 6.6-7.4.7 6Zm-.7-6.2-6.8 7.5-.4-11 7.2 3.4Zm-7 7.7 4.5 6-4 8.8-.1-4v-.1l-.1-2.8-.1-2.6-.2-5.7V197.6v2.1Zm-.8-12v-1.2h.1v1.2Zm0-3.1-.1-1.3.1 1.4v-.1Zm-.1-1.6v-1.3 1.3Zm0-1.6-.2-2.6.1-.1.1 2.8v-.1Zm-.5-10.4-.2-1.3c.2.4.2.8.3 1.3h-.1Zm-.3-1.6-.4-1.2.5 1.2h-.1Zm-11-5.8-2 1.4-.7-1.3 2.8-.1Zm-3.1 0-1 1.5c-.2-.1-.5-.8-.9-1.4h1.9Zm-10.2.3-1 1.4-.6-1.3h1.6Zm1.6 0-.6 1-.5-1h1.2Zm2.1 0-.8 1.3-.9-1.3h1.7Zm.5 0 .8-.1h.7l-1 1.3-.6-1.3Zm3.5-.2-1 1.4-.6-1.3h1.6Zm-21.5.6-.7 1.3-.7-1.3h1.4Zm2-.1-1 1.4-.7-1.4h1.7Zm2.4 0-1.3 1.3-.7-1.3h2Zm2.1-.1-1.1 1.4-.6-1.4h1.7Zm1.9 0-1.1 1.3-.4-1.3h1.5Zm2-.1-.8 1.4-.8-1.4h1.7Zm1.5 0-.6 1.2-.5-1.2h1Zm.1.1.6 1.3h-1l.4-1.3Zm2-.1.7 1.2h.2l.8-1.2.8 1.3H254l1.2-1.3Zm3.7 0 .7 1.2H258l.8-1.3Zm2-.1.6 1.3H260l1-1.3Zm2-.2h.2l.8 1.4h-2l1.1-1.4Zm2.5 0 .6 1.4h-1.6l1-1.3Zm3.2 0v1.3h-2.1l2.1-1.3Zm3 0-.6 1.5a10 10 0 0 0-1.9-.2l2.5-1.3Zm-5 19.8-5-11.6.1-.1 9.2-6.3-4.2 18Zm0 .3-6.8-1.1 1.7-10.5 5 11.6Zm-7-.6 1.3 14-5.6-5.3 4.3-8.7Zm1.6 14.5 8 5.9-9.3 6.5 1.3-12.4Zm8.2 6 2.7 16.9-12.2-10.3 9.5-6.5Zm-9.8 6.8 3.3 15.8-10-13.6 6.8-2.2Zm-6.9 2v-.8l-.2-8.8 7 7.4-6.8 2.2Zm-.2-1.1v-.1l-1-.4 1-.6v1Zm-.3 0-1 .7v-1l1 .3Zm-1 1h1l-1.1.5.1-.5Zm-.7 1.9 1.1.3-1.3.2.2-.5Zm-36.2 5.5-.4 1.1-.7-1h1Zm1.7 0-.6 1.1-.8-1.1h1.4Zm1.3 0-.6 1-.4-1h1Zm1.3-.1-.6 1-.3-1h.9Zm1.3 0-.6 1-.3-1h.9Zm.1 0 .4 1.2h-1l.6-1.1Zm1.1 0 .5 1.1h-.9l.4-1Zm1.3 0 .5 1-1 .1.5-1.1Zm1 0 .6 1h-.8l.3-1Zm1 0 .7 1h-.8l.2-1Zm1.8-.1.4 1h-1l.6-1Zm1.1 0 .6 1h-1l.4-1Zm1.7-.1.5 1h-1.2l.7-1Zm1.4 0 .5 1h-1l.5-1Zm1.2 0 .4 1h-.8l.4-1Zm1.4-.1.2 1h-.8l.6-1Zm1 0 .5 1h.1-1.1l.4-1Zm.7 1 .7-1.2.6 1.1h-1.4.1Zm2-1.1.4 1h-.8l.4-1Zm.6 1 .7-1.1.5 1h-1.2Zm2.1-1.1.3 1h-.8l.5-1Zm1.4 0 .3 1h-1l.6-1.1Zm.9 0 .3 1h-.6l.3-1Zm1 0 .5.9h-.9l.4-1Zm1.1 1.1 8.7 3.6-19 1.2 10.3-4.8Zm11.8 11.5-6.2 9.2-9.4-6 15.6-3.2Zm.3-.2-2.7-7.5 7.6 2 1.9.4-6.7 5ZM272 221l2.1 18.5-11.1-13 9-5.5Zm.3.2 7.2 8.3-5.1 10-2.1-18.3Zm7.5 11.1 1.8 1.2v.2l-2 .2.2-1.6Zm-.3 2 2 1.5-2.4-.3.4-1.3Zm.2-.2 2-.2c0 .4 0 1-.2 1.6l-1.8-1.4Zm2.1-.7v-1.1a58.5 58.5 0 0 1 .1 1.2Zm0-1.5-.1-1.3.1 1.4v-.1Zm3.6-4.8 2.6-2 .7.2 3.5 1.2-9.7 2.7 2.9-2.1Zm2.9-2.3 2.4-8 6.3 5.2-8.7 2.8Zm2.8-16.4 5 3.6-5.4 4.3.4-8Zm-2.9-16.3h7.4l-1.4 7-6-7Zm-7.6-3.8h-.1l-.6-16.7v-.5h-.1c-.2-1.2-.5-2.2-.9-3.1a9 9 0 0 0-.5-1l4.5 1.6-3 4.7v.1l3 7.2-2.3 7.4v.1h.1l7.1-.5v4.1l-7.2-3.4Zm6.3-4.7 6.2-1-5 4.7-1.2-3.7Zm-3.6-3 6.5-2-3 4.8-3.5-2.8Zm-3-7.2 7.7-1.8 2 6.6-9.6-4.8Zm7-8.8 5.2 2.7-4.4 4-.7-6.7Zm-8.8 2 1-4.4 6.4-1-7.4 5.4Zm-.2.2-.3-.3c-.3-.5-.7-1-1.1-1.3l-.2-.2a8 8 0 0 0-2.5-1.2l5.1-1.5-1 4.5Zm-4-3.3 3-5 2 3.5-5 1.5Zm2.7-4.9-3 5a10.3 10.3 0 0 0-4.2-.4h-.5l7.7-4.6Zm-15 4.8h-2.4l5-4h.1l1.5 3.6-4.3.4Zm2.7-4.3-6.2.5 7.1-5.6-1 5.1Zm-9.5 4.3-4.1-2 6.8-1.4-2.7 3.4Zm-11.5.2-3.4-1.8 4.6-2.8-1.2 4.6Zm-11.7.5 4.8-4.6 3 2.3-7.8 2.3Zm-.4 0-.8-3.7 5.6-1-4.8 4.7Zm-.6-4 3.5-3.5 2 2.6-5.5.9Zm-.4.3.8 3.7-6.2-3.7h5.4Zm.4 3.7-8.7.3 2.5-4 6.2 3.7Zm-9 .3-3.9-4.9 6.5.8-2.6 4Zm-3.9-5 4.4-4.6 2.1 5.3-6.5-.8Zm-8.8 2.9 8.2-2.7-4.1 4.7-4.2-2Zm16.7 2.3-.7 1.3-.3-1.3h1Zm1.8 0-.6 1.3-.8-1.3h1.4Zm1.8 0-.6 1.3-.8-1.3h1.4Zm1.8-.1-.9 1.3-.6-1.3h1.5Zm2.1 0-1 1.3-.8-1.3h1.8Zm1.7-.1-.7 1.3-.6-1.3h1.3Zm2.2 0-1 1.3-.8-1.3h1.8Zm2-.1-1 1.3-.6-1.3h1.5Zm.1 0 .7 1.4h-1.7l1-1.3Zm1.7 0 .6 1.4h-1.3l.7-1.3Zm2.1 0 .7 1.3h-1.8l1.1-1.3Zm2.4 0 .6 1.3h-1.9l1.3-1.4Zm2-.1.5 1.3h-1.5l1-1.3Zm2 0 .8 1.3h-2l1.2-1.4Zm2 0 .6 1.2h-1.4l.8-1.3Zm8 1.3 4.3-.2h4s1.1-.2 2.6 0l-9.2 6.3-8.7-6 7-.1Zm1.5 6.2-12.1 6.7 3.4-12.7 8.7 6Zm0 .4-1.8 10.5-10.3-4 12-6.5Zm-1.8 10.7-4.3 8.8-6-12.8 10.3 4Zm-4.3 9.3 5.7 5.4-8.4 5 2.7-10.4Zm5.7 5.6-1.3 12.4-7-7.4 8.3-5Zm-8.5 12.3-1-.1 1-.9v1Zm-.2.2-1 .5v-.6l1 .1Zm-5.8 7.7 3.5-3.3a7.5 7.5 0 0 1-3.5 3.3Zm-2.5.8c-1.4.2-2.4 0-2.4 0l-7.7.3h-.7l5.2-2.5 7.3 1.7c-.6.3-1.2.4-1.7.5Zm-11.1.3-3.2-3.2 8.3.6-5.1 2.6Zm5.7-2.7.7-3.9 6.3 5.6-7-1.7Zm-9.2-.5 3.2 3.2-5 .2 1.8-3.4Zm-2.1 3.4h-.6l-5.3-2.8 7.8-.6-2 3.4Zm-14.5-2.7 9.3-5.3-1.2 5-8.1.3Zm13.5 2.7h-2.9l-2.2.2h-1l-4 .1h-2.5l7.3-3 5.3 2.7Zm-13.4.7-.3 1-.6-1h1Zm-1.2 0c0 .5-.2 1-.3 1.2l-.7-1.2h1Zm-1.4 0-.5 1.2-.4-1.1h1Zm-1.2 0-.8 1.2-.2-1.1h1Zm-1.3.1-.5 1.1-.5-1h1Zm-1.3 0-.6 1.2-.4-1.1h1Zm-1.3 0-.5 1.2-.3-1 .8-.1Zm-2 .2h.8l-.4 1.2-.5-1.2h.2Zm.2 1.4-.6.1.2-1.2.4 1.1Zm.8-1.3.4 1.1-.8.1.4-1.2Zm1.1 0 .5 1h-.2l-.7.1.4-1.1Zm1.3-.1.5 1-1 .1.5-1.1Zm1.3 0 .2 1h-.7l.5-1Zm1.3-.1.4 1.1h-1.1l.7-1.1Zm1.3 0 .7 1h-1.2l.5-1Zm1.4 0 .5 1h-.8l.3-1Zm1.2-.1.7 1-1 .1.3-1.1Zm1.4 0 .7 1h-1l.3-1Zm1.7-.1.4 1-1 .1.6-1.1Zm1.3 0 .4 1h-1l.6-1Zm1.3 0 .4 1h-1l.6-1Zm1.8 1.2 2.5-.1h2.3l2.8-.2h2.9l5.1-.2 2.5-.1 2.5-.1h2.1l-10.3 4.8-13.6-4 1.2-.1Zm11.9 4.1-16.1 1.8 2.4-5.8 13.7 4Zm.3.2-6 8-10.3-6.2 16.3-1.8Zm-26.9 4.1 10.2-2.2.3 9.2v.5l-11.7-7.2 1.2-.3Zm10.4-2.2 10.3 6.3-10 3.5-.3-9.8Zm-9.5 1.8-2.4.5-5.1-5.4 16.4 3-9 1.9Zm-2.4.9 4.6 9-10 .9 5.4-10Zm12.2 7.3 5.7 4.4-12.7-2.7 7-1.7Zm6.1 4.5-5.9-4.6 9.9-3.4-4 8Zm6.5-.2-6.2.2 4-8 8 7.6-5.7.2Zm10.6-6.5 9.3 6c-4.8 0-9.3.2-13.4.3l4-6.3Zm39.6.6 2.2.3c0 .5-.2 1-.4 1.6l-1.8-1.9Zm2.4.4h.2a9 9 0 0 1-.6 1.8v-.1a9 9 0 0 0 .5-1.7Zm-.3 2c.4-.7.6-1.4.7-2v-.1c.2-1 .2-1.7.1-2.3v-1.5l-.2-2.6h.1l10.3-2.9-11.4 12.3.5-.9Zm9.5-21.5 5.3-4.4 1 9.6-6.3-5.2Zm.3-8.5 3.2-8.4 1.8 12-5-3.6Zm-3-16.3v-4.2l7.2-.9-7.2 5Zm-1-8.5 3-4.7 3.1 3.8-6.2.9Zm3-5-1.9-6.6 7.8 2.7-5.9 3.9Zm-1.9-6.8 4.4-4 3.4 6.7-7.8-2.7Zm4.3-4.4-6-6 6.8-1-.8 7Zm-13-5.1-2-3.5 8.1 2.4-6 1Zm-1.7-3.7 7.2-1.4 1 4-8.2-2.6Zm-.4-.1-.7-2-.8-2.2 8.8 2.8-7.3 1.4Zm-1-2 .8 2-6.8.6 5.3-4.7.8 2Zm-7.6 7h-3.1.7c.1 0 .1 0 0-.1l-1.5-3.8 5-.3-1.1 4.2Zm-4-4.1 1-5.1 4 4.8-5 .3Zm.6-5.2-7.1 5.6.6-4.3 6-1.2h.5Zm-7.4 5.7-5-2.3 5.7-2-.7 4.3Zm-.2.1-6.9 1.5 2-3.8 4.9 2.3Zm-5.5-2.2-8.4 6 1.3-4.6 7.1-1.4Zm-12.2 4.2-3-2.3 7.6-.5-4.6 2.8Zm-3.3-2.5-2-2.6 9.5 2.1-7.5.5Zm-2.6-2.7-1.3 1.4-2.2 2.2-2-3.5h5.5Zm-5.7.2 2 3.5H225l3.4-3.5Zm-3.7 3.4-2.1-5.3 5.6 1.7-3.5 3.6Zm-6.9-.8-.8-3.1 5-1.4-4.2 4.5Zm-.2 0-6.3-.8 5.5-2.2.8 3Zm-10 .3.2-3.9 2.9 2.8-3.1 1.1Zm-.6-4.1-5.2 1.2-2.2-2 7.4.8Zm-10.3 3.4-3.2-1.6 7.7-.4-4.5 2Zm-.2.2-4 3.5.7-5.2 3.3 1.7Zm-4.1 3.5-3.2-3.5 3.8-1.7-.6 5.2Zm4.3-3.4 3.7 4-7.7-.4 4-3.6Zm27.8 5.5-1 1.4-1.3-1.4h2.3Zm.2.1.3 1.3h-1.2l.9-1.3Zm1.4 0 .8 1.2h-1.6l.8-1.3Zm1.8-.1.8 1.3h-1.4l.6-1.3Zm1.8 0 .6 1.3h-1.2l.6-1.3Zm1.8-.1.7 1.3h-1.6l.9-1.3Zm2.1 0 .7 1.3h-1.7l1-1.4Zm1.7-.1.8 1.3h-1.5l.7-1.3Zm2.2 0 .6 1.3h-1.6l1-1.4Zm14.7 1.1-3.4 12.7-10.3-12.3 13.7-.4Zm-3.7 12.7-20.4-7 10.1-5.3 10.3 12.4Zm3.4 20v.9l-1 .2 1-1Zm0 2.2-1 .2 1-1.2v1Zm.1 1.2-1 .1 1-1v.9Zm0 .9v.4l-1 .2 1-1.1v.5Zm0 1.5-.9.1 1-.8v.7Zm.1.8-.9.1.9-.6v.5Zm0 1.5-1-.2 1-1v1.2Zm0 1h-.9l1-.6v.6Zm.1 1.2h-1l1-.8v.8Zm-.1.2-1 1-.1-1h1Zm-2.1 5.3-3.8 3.6 2.8-5.3 1.2 1.3-.2.4Zm-4.2 3.8-2-5.3 5-.3-3 5.6Zm-.3 0-6.4-5.7 3.3-3.6 1.2 3.9 2 5.3ZM239 212l-1.9-3.3 5.2-.2-3.3 3.5Zm-9.9 3.5-7.5.7 8.7-3.5-1.2 2.8Zm-8 .7 1-5 8 1.3-9 3.7Zm-9 .3-3-2.3 6.4-2.6-3.4 4.9Zm7 0h1.2l-7.3 3.1h-.1l-.6-2.8 6.8-.3Zm-16.4 3.7-.3 1.3-.6-1.2h.1l.8-.1Zm-2.5 2.3-1-1.2 1-.5v1.7Zm0 .3-.8.5-.3-1.7 1 1.2Zm5.2-1.2 5.9-.2 2.5-.1 4.6-.2-2.4 5.9-17-3c1.2-1.3 3.2-2.3 6.4-2.4Zm-2 20.9-2.2 1 1-1.3c.5 0 .9.2 1.3.3Zm-1.5-.5-2.1.8 1.2-1.1.9.3Zm2 .5h1.6l-1.4.8-1.2.8 1-1.6Zm3.7 0-2.7 1.9 1-2h1.7Zm2.5-.2-2.8 2.1.7-2h2Zm1.5 0-1.8 1.9.7-1.9h1Zm.3 0h1.6l-1.6 2v-2Zm4-.1-2 2-.1-2h2.1Zm2-.1-1.5 2v-2h1.5Zm2.5 0-1.9 2-.2-2h2Zm1.9-.1-1.4 2-.2-2h1.6Zm.4 0h1.9l-1.4 2-.5-2Zm4-.1-1 2-.8-2h1.8Zm2.1 0-.9 2-.8-2h1.7Zm2.4 0-1 2-1-2h2Zm2.4-.1-1.4 2-.6-2h2Zm5.6-.2-1.3 2-.7-2h2Zm2 0-1.3 2-.3-2h1.6Zm1.9-.2-1.3 2-.2-1.9h1.5Zm1.9 0-1 2-.5-2h1.5Zm3-.1-1.2 2.1-1.4-2 2.6-.1Zm1.3-.1h1.4l-1.4 2.1-1-2h1Zm2.7 0 .6-.1-1.1 2-.5-2h1Zm3.2-.2-1.5 2.2-.8-2.1h2.3Zm1.8 0-1 2-.4-2h1.4Zm1.7 0-1 2-.4-2h1.4Zm2.3-.1-1.1 2.1-.8-2 1.9-.1Zm2.3 0-1.2 2-.8-2h2Zm1.7-.1-.4 2-1-2h1.4Zm2.4-.1-1.1 2.2-1-2.1 2-.1Zm1.7 0-.7 2-.7-2h1.4Zm2-.1-.7 2-1-2h1.6Zm1.6 0-.2 2-1.1-2h1.3Zm1.8-.7-.1 2.6-1.4-2 1.5-.6Zm1.6-1 .5 3-1.8-2.1 1.3-.8Zm1-.7 1.2 2.5-2-1.9.7-.6Zm.2-.2.7-.8 1.9 2.3a86 86 0 0 1-2.6-1.5Zm3.7 0 .1.1c-.2.5-.5 1-1 1.5l.9-1.5Zm12.2-11.7h-.3l4.3-4.2 4 3-8 1.2Zm3.2-14 4.6 6-3.7 3.5-1-9.5Zm3.9-8.4.3 5.3-4.1 2.4 3.8-7.7Zm-4 7.7-1.8-12.2 5.7 4-3.9 8.2Zm-8-24.3 4.6-4.2.5-.5 2.2 3.8-7.3.9Zm5-5-3-4 5.7-3.7-2.6 7.6Zm3-7.7 2.9 7.7h-5.6l2.6-7.7Zm0-.6-3.5-6.6 5.4.4-2 6.2Zm-2.8-14 3.9 3.1-4.6 3.9.7-7Zm-.5-.2-6.7 1-1-3.9 7.7 3Zm-7.6-3 4.4-2 3.3 4.9-7.7-3Zm-5.2-3.3 4-.8.8 3.8-4.8-3Zm-4.3.2V152l3.5 1.4-3.5.3Zm-17.7 1.5-5.4 2-5.6-2h11ZM247 155l5.7-2.4 5.5 2.4H247Zm-17.7 1.3h-.7l1.5-3.2 4 3.1-4.8.1Zm-.4-3.2-6.2 1.3 1.2-1.2 5-.1Zm1 0-1.6 3.2-5.4-1.7 7-1.5Zm-12.8 2.8 1.4-2.5 3.5 1.1-4.9 1.4Zm-24.4 1.3-3.7 1.7-4-3.6 7.7 1.9Zm-7.7-2 6.5-1.3 1.4 3-7.9-1.8Zm-.4.1 4.2 3.7-5.3 2.4 1-6.1Zm-.2 0-1.1 6-2.6-3.7 3.7-2.3Zm-.6 6.2 5.2-2.4 3.2 3.6-8.4-1.2Zm17.1 1.7 6.4-3.2-2.3 4.7h-.1l-4-1.4Zm10 1.7-.7 1.4-.7-1.3h1.3Zm-.9 1.5h-1.5l.8-1.3.7 1.3Zm1-1.3.7 1.2h-1.3l.6-1.2Zm2.5 1-.7-1.2h1.2l-.5 1.2Zm2.6-1.3-1 1.3-.8-1.3h1.8Zm1.4 0-.6 1.2-.5-1.2h1.1Zm2.1-.1-.6 1.4-1-1.4h1.6Zm2.2 0-.7 1.3-1-1.3h1.7Zm.2 0 1.3 1.3-2 .1.7-1.4Zm1.6 1.6 5.3-.2c2.5 0 5 0 7.4-.2h1.5l-10 5.3-6.4-4.9h2.2Zm-9.2 25.2-.8 1.3-.6-1.3h1.4Zm2.2 0-.6 1.2-1.2-1.2h1.8Zm2-.1-1 .9-.6-.9h1.6Zm2 0-1.3 1.2-.3-1.2h1.5Zm.4 0 1.8-.1-1.1 1.3-.7-1.3Zm3.4-.2-.8 1.2-.4-1.1h1.2Zm1.5 0-.8 1.2-.4-1.2h1.2Zm2.1 0-1.3 1.2-.4-1.2h1.7Zm1.6 0-.9 1-.2-1h1.1Zm1 0-.5.6-.1-.7h.6Zm1.6-.1-.9 1.1-.3-1.1h1.2Zm1.1 0-.4 1-.4-1h.8Zm1.5-.1-.3 1.1-.8-1 1.1-.1Zm1.4 0-.6 1-.4-1h1Zm1.8 0-.6 1-.8-1h1.4Zm.6 0 .9-.1-.6 1.1-.6-1h.3Zm1.8-.1-.4 1-.2-1h.6Zm1.9 0h.3l-.4 1-.3-1h.4Zm1.6 0-.6 1-.4-1h1Zm1.8.4-1.2.8-.3-1.1 1.5.3Zm1.8.6-1.7.7v-1.2c.6 0 1.2.3 1.7.5Zm1.2.8-1.5.3.6-.9.8.6Zm2.8 3.8-1.4.4.7-1.8.7 1.4Zm.3 1.5-1.1.5.9-1.7.2 1.1Zm-.1 1.4-1 1.1v-.9l1-.2Zm0 1.2-1 1v-.7l1-.3Zm.2 1.2-1 1.3-.1-1.1 1-.2Zm0 1.4-1 .9v-.7l1-.2Zm-.1 1-.9.7v-.5l.9-.1Zm-.9 1 1-.1-1 .9v-.8Zm1.1 1.3-1 .8v-1l1 .2Zm0 1-1 1v-.8l1-.1Zm-1.4 4.7-.3 1.2-1.2-1.3 1.5-3.2v3.3Zm-6.9 0-1-3.8 3 1-2 2.8Zm-16-3.2 2.4 3.2-7.7-1.3 5.3-2Zm-15.3 7.2.4-.5 3-4.3 5.7-.4-9 5.2Zm3.3-5-3.7-.7 4.7-1.3-1 2Zm-3.9 5.3-12.2 3.9 9.3-6.2 3 2.3Zm.2.2.6 2.8h-1l-1.4.1-6.3.2h-1.2l-.4.1-1 .2 10.7-3.4Zm-13.2 4.7.3 1.7-1.1-1.2.8-.5Zm.3 2a10.2 10.2 0 0 0-.5.5l-.2.3-.4-2 1 1.2Zm-1.4 1.8-.5-2 1 1.2-.5.8Zm-.6 1.2-.8-1.8 1.2 1a6 6 0 0 0-.4.8Zm-.1 1.7-1.4-2 1.5.7-.1.6v.7Zm.1 1.8-1.9-1.6 1.8.3.1 1.3Zm0 1.3-1.6-1h1.6v1Zm.1 1.4-1.7-.7 1.7-.4v1.1Zm-.2.2-1.7.3v-1l1.7.7Zm0 1.2-1.6.4v-1l1.6.6Zm-1.6.6 1.7.6-1.7.5v-1Zm2 .7v1.1l-1.7-.6 1.6-.5Zm0 2.2v.2l-1.6-.5 1.6-.5v.8Zm.3 1.3-1.6-.2 1.4-.6.2.8Zm.7 1h-1.7l1.2-.7.5.8Zm.2.3.3.3.6.4h-2.2l1.3-.7Zm1.9 1.4-2 .4 1.3-.8.7.4Zm0 .2-1.3 1.2a9 9 0 0 1-1-.8l2.3-.4Zm2.3 2.6 2.6-1.6-1 1.8c-.4 0-1 0-1.6-.2Zm4.8-1.8-.7 2h-2.1l2.8-2Zm4 0v2h-1.9l2-2Zm1.9-.1v2H212l1.6-2Zm2.5-.2v2l-2.2.1 2.2-2Zm2 0 .2 2h-1.8l1.6-2Zm4.4-.2.5 2.1h-2l1.5-2Zm2.2 0 .9 2-2.3.1 1.4-2.1Zm2.2 0 .9 2h-2l1-2Zm2.2-.1 1 2h-2l1-2Zm2.2 0 .7 2h-1.6l1-2Zm2.6-.2c.4 1.2.7 1.8.9 2.1h-2.4l1.5-2Zm3 0h.1l.8 2-2.5.1a9 9 0 0 1 1.7-2.2Zm2.5 0 .3 2h-1.6l1.3-2Zm2-.1.1 2H240l1.4-2Zm1.9-.1.5 2-2 .1 1.5-2.1Zm1.9-.1 1.3 2-2.4.2 1-2.2Zm3 0 1 2h-2.3l1.3-2Zm2.6-.1.5 2-1.8.1 1.3-2.1Zm2 0 .7 2h-1.9l1.1-2Zm2.6-.2.5 2.1h-2l1.5-2Zm1.7.1.4 2h-1.3l.9-2Zm1.8-.1.8 2h-2l1.2-2Zm2.2-.1.8 2-1.8.1 1-2.1Zm2.4 0 .9 2h-2.1l1.2-2Zm1.7 0 .9 2h-1.4l.5-2Zm2.3-.2.8 2.1h-1.9l1.1-2Zm1.8 0 .9 2h-1.6l.7-2Zm1.9 0 1.2 2h-1.9l.7-2Zm1.7 0 1.4 2h-1.6l.2-2Zm1.8-.8 1.9 2.2-1.2.5h-.8V240Zm5 0 .2-.2-.2.2Zm17.6-18 3.7-3.4.4 6.2-4-2.8Zm-1-10 4.3-2.5.4 8.3-4.6-5.9Zm-1.8-12.8 5.4-3 .4 7-5.8-4Zm1.3-7.6v-5l3.7 2-3.7 3Zm0-5.2-2.2-3.9h5.6l.3 6-3.7-2Zm.6-12h2.4l.4 7.3-2.8-7.3Zm2-4.8.3 3.8v.8h-2.3l1.9-6v1.4Zm-5.5-2.5 4.6-3.8v.4c.5 1.4.6 2.7.7 3.8l-5.3-.4Zm.6-7.3-3.6-5.1c3.2 1.6 6 4.1 7.4 8l-3.8-3Zm-8.3-3.2-.8-3.9c1.7.4 3.6 1 5.3 1.9l-4.5 2Zm-5.3-3.2-3.6-1.5c2 0 4.5.1 7 .6h.4l-3.8.9Zm-4.2.3-6.6-1.5h2.8l3.7-.3v1.8Zm-10-.1-4.6-1.2 6.8-.2-2.1 1.3Zm-7 1.3-5.4-2.4 6.8-.1-1.4 2.5Zm-11.5-2.2-.7 2.2-2-2.2h2.7Zm-12.8 3.5-4-3.2 7.2-.1-3.2 3.3Zm-12-1.8-3.4-1.1 4.7-.1-1.2 1.2ZM217 156l-5.5-2.5 7-.1-1.4 2.6Zm-9.1-.7-2-1.7h4.9l-3 1.8Zm-8.4-1-2.8-.5 7.3-.1-4.5.7Zm-6.2 2.7-1.4-3 3.6-.1-2.2 3Zm-8.7-2.1-4.1-6 4.3 3.2-.2 2.8Zm-4.4-6.5 2.3-3.7v-.1l-2-3.3 1.6-6.4.6 12.7c0 1.4.6 2.7 1.4 3.7l-4-2.9Zm2-14.4h-1.4l.9-2.1 1.3 2.1h-.8Zm-.3-2.3h2.4l-1.1 2.2-1.3-2.2Zm2.5 0 1 2.2-2 .1 1-2.2Zm.2 0 2.3-.1-1.4 2.1-.9-2Zm2.5 0 1 2.1-2.5.1 1.5-2.2Zm.1-.2h2.3l-1.2 2.2-1-2.1Zm2.5.1 1.2 2.2h-2.4l1.2-2.2Zm.2-.1h2.2l-1 2.1-1.2-2.1Zm2.3 0 1.1 2.2h-2l1-2.1Zm.2 0 2.3-.2-1.2 2.3-1.1-2.2Zm2.5 0 1.4 2.1-2.6.1 1.2-2.3Zm.2-.2h2.3l-1 2.1-1.3-2Zm2.5.1 1 2.1-2 .1 1-2.2Zm1.1 1.9-1-2h2.6l-1.6 2Zm1.8-2 .5 2.2h-2.2l1.7-2.2Zm-20 2.7-1.2-2.2h2.2l-1 2.2Zm-2.8.2h-2.1l.8-2.2 1.3 2.2Zm-2.4 1.5 6.5-1.4-3.9 4.5-2.5-3Zm-8.7 10.3 2 6.7-4.7-.8 2.7-6Zm2.3 7 6.2 6-7 1 .8-7Zm11.7 4.8 2.7 3.7-7.5-2.4 4.8-1.3Zm2.5 3.9-6.6 1.5-1-4 7.6 2.5Zm.4.1 1.3 3.4-8-2 6.7-1.4Zm.7 3.5-6.7.2-1-2 7.7 1.8Zm8.2-2.2-.7 2-6.3.2 7-2.2Zm.3 0 3.8 2h-4.6l.8-2ZM203 165l-.5 1.4-1.3-1.3h1.8Zm1.7 0-.5 1.3-.8-1.3h1.3Zm2.8 0-1.1 1.3-1.3-1.3h2.4Zm1.7-.1-.8 1.4-.5-1.4h1.3Zm5 0 .8 1.3h-1.3l.5-1.3Zm2 0 .6 1.2h-1.4l.9-1.3Zm1.6-.2 1 1.4h-1.7l.7-1.4Zm2 0 1.1 1.3h-1.6l.6-1.3Zm7.8 6.5L211 174l10.2-7.6 6.4 4.9Zm5.6 9.2-15.6 3.2 10.2-12.2 5.4 9Zm-.2.2L220.6 191l-3.1-7 15.5-3.3Zm-20.3 10.8-1 1.3-.5-1.3h1.5Zm-1.9 0-.9 1.4-.5-1.3h1.4Zm-1.7 0-.8 1.4-.7-1.3h1.5Zm-1.9.1-.7 1.3-.2-1.3h1Zm-21 2.2h-1.5l1-1.5.5 1.5Zm-.4-1.7h1.3l-.7 1.5-.6-1.5Zm1.5.1.7 1.5h-1.5l.8-1.4Zm.2-.1h1.5l-.9 1.5-.6-1.5Zm1.6.1.6 1.4-1.4.1.8-1.5Zm.2-.1h1.2l-.6 1.4-.6-1.4Zm1.4 0 .6 1.5H190l.7-1.4Zm.2 0 1.2-.1-.7 1.4-.5-1.4Zm1.3 0 .4 1.5h-1l.6-1.4Zm.2-.1h2.5l-2 1.5-.5-1.5Zm2.8 0 .7 1.4-2.8.1 2-1.5Zm.2 0 1.6-.1-.9 1.4-.7-1.4Zm1.8 0 .4 1.4h-1.3l.9-1.4Zm3.2-.1.2 1.4h-2.4l2.2-1.4Zm2 0 .3 1.3H201l1.5-1.4Zm1.6 0 .3 1.3h-1.2l.9-1.3Zm2-.1.3 1.3h-1.6l1.4-1.3Zm1.4 0 .7 1.3h-1.5l.8-1.3Zm1.8 0 .6 1.2h-1.4l.8-1.3Zm1.8-.1.6 1.2H210l.9-1.2Zm1.9 0 .6 1.2H212l.9-1.3Zm1.8-.2 1.2 1.3h-2l.8-1.3Zm2.2 0 .8 1h.1l1-1 .4 1.2-3 .1.7-1.3Zm4-.1.7 1.2-2 .1 1.2-1.3Zm2.2 0 .4 1.2H222l1-1.2Zm1.5 0 .4 1.1H224l.8-1.1Zm1.6 0 .4 1-1.2.1.8-1.2Zm2.1-.2.3 1.2H227l1.3-1.2Zm1.5 0 .1.9h.2l.8-.9.3 1.1-2.2.1.8-1.1Zm2.6 0 .4 1.1h-1.2l.8-1.1Zm1.2 0 .8 1-1.3.1.5-1.2Zm1.5 0 .4 1h-.8l.4-1Zm1.4-.1.7 1-1.4.1.7-1.1Zm1.7 0 .6 1h-1.2l.7-1Zm1.5 0 .2 1h-.8l.6-1Zm1 0 .4 1h-.9l.4-1Zm1 0 .4 1h-.7l.4-1Zm1.1 0 .4 1.1h.2l.7-1 .2 1.2h.2l1.1-.8v1.1l.1.1h.1l1.8-.6-.6 1 1.7-.3-.6 1 .1.1 1-.4-.7 1.2a9.3 9.3 0 0 0-6.1-2.6l.4-1.1Zm7 3.3-.6 1.2-.5-.6 1-.6Zm.8.7-.7 1.7-.5-1 1.2-.7Zm.9 1.6-1 1.7-.4-1.3 1.4-.4Zm-.9 11.7L249 212l-2.9-2.6 4.5-1.2v.2Zm-4.7.8-2.8-.8 6.7-.2-3.9 1Zm-18.7-.2-5.1 1.9c0-.1 0 0-.1 0h-.2l-4.2-1.8h1.5l8.1-.1Zm-10.1.1 4.2 1.7-5.3.4 1-2Zm-5.5 1.3-4 2.4.7-.7a8.6 8.6 0 0 1 6.3-2.9h1.4l-4.4 1.2Zm-4.7 3 4.3-2.5-2.3 3-2-.4Zm-7.9 7.4.5-.2-.7.4.2-.2Zm-1.2 1.3.4 1.8-1-1.2.6-.6Zm-.8 8-1.8-.1-.1-1.6 1.9 1.6Zm0 1.2-1.7.4v-1.4l1.8 1Zm.2 5.2-1.6.5V236l1.6.7Zm.1 1.3-1.4.7-.2-1.2 1.6.5Zm.4 1.2-1.2.8-.5-1 1.7.2Zm1.8 2-1.4 1-.8-1h2.2Zm1.9-107.6 2.5-2.3 1.3 2.2h-3.8Zm4.2-.1 1.6-2.2.8 2.1-2.4.1Zm106 99.2 2.3.6-2.2.9v-1.5Zm.3-.2 2-.6.2 1.2-2.2-.6Zm-.2-2 2.1-1 .2 2-2.3-1Zm-.2-.1v-1.8l2.3.6-2.3 1.2Zm-.3-5.9 2.4.8-2 1.3-.1.1v.1l2 .4-2.1 1-.2-3.7Zm.7 2.2 1.9-1.2v1.6l-1.9-.4Zm-.4-2.3 2.2-.5v1.3l-2.2-.8Zm-.3-2.8 2.3-1.6.2 3.6-2.5-2Zm.2-3 2-.6v1.7l-2-1.1Zm-.3-3 2.1-1 .2 3-2.3-2Zm0-2 2-.6v1.4l-2-.9Zm-.3-1.8 2.2-1 .1 1.8-2.3-.8Zm12.1-7.3 10.3-3.5-4.1 13.7-6.2-10.2Zm6-14-9.5-5.7 10.7-6.8-1.2 12.5Zm-9.6-5.8-1.3-13.7 12 6.8-10.7 6.9Zm-7.6-24.2 10.3-3.5-4.2 13.5-6-10Zm-8.2.7-.6-1v-.1l-1.5-2.3-1.5-2.1-1-1.2 12.3 5.9-7.7.8Zm-4.8-7.1 9.3-13 3.4 19.1-12.7-6.1Zm-.1-.1-1.3-1.6-1.7-1.8-.6-.7-.7-.7-1.6-1.5 15-6.6-9.1 12.9Zm-6.1-6.5-3.2-9 18.3 2.4-15.1 6.6ZM266.7 126l4.9-9.6 6.5 12.5-11.4-2.9Zm4.7-9.8-4.8 9.6-5.1-13.7 10 4.1Zm-5.2 10.1-4.9 6h-.3l-2.4-.6c-.7 0-1.4-.2-2-.3l-1.8-.3-1.8-.2h-.1l13.4-4.6Zm-13.7 4.5-2-16 15.8 11.3-13.8 4.7Zm-1.4-.1-2-.2-2-.2h-2.5l-.5-.1-4.6-8 12.5 8.6-1-.1Zm-7.3-.5h-.7l-2-.1h-6.6l-5.4-4.8 10-3.4 4.7 8.2Zm-28.8-8.8-5.5-8.5 15.8 3.6-10.3 4.9Zm-6.5 9.5h1.3l-1.6 2.2-.8-2.2h1Zm-3.1 2.3L204 131h3l-1.7 2.2Zm-4.3.1-.5-2.2h3l-2.5 2.2Zm-19.4-1.9 4.1-7.8 5 7.4-9 .4Zm-5.6.4-.8 2.3-1-2.2h1.8Zm-1 2.3h-.1l-1.2.1.3-2 1 2Zm-1.7.1-1.7.1.7-2.1 1 2Zm.7.4 1.2-.2 5.1-.2h.3l-5.7 1.2h-6.3c2.6-1 5.2-.9 5.4-.9Zm-10.8 9h-.2V142h.2v1.5Zm-.4-.2-1.9-.7 1.9-.6v1.3Zm0 .3v.1l-2 .7-.1-1.6 2 .8Zm0 1.7v.2l-2 1v-1.8l2 .7Zm0 .5v1.3l-1.8-.4 1.8-1Zm.7 5.6h.1Zm5 1.4-.7 7-3.9-3.1 4.6-3.9Zm6.4 6.2 1 3.9-7.6-2.9 6.6-1Zm1 4-4.4 2.3-3.4-5.1 7.8 2.9Zm.2.2.9 2.1a1783.2 1783.2 0 0 1-5.3.1l4.4-2.2Zm24.6 1.9-.6 1.3-.9-1.3h1.5Zm.2 0 1.2 1.4h-1.8l.6-1.4Zm2.2 0 .8 1.3h-1.3l.5-1.3Zm1.7 0 1.2 1.2h-1.7l.5-1.3Zm2.8-.1.4 1.3h-1.5l1-1.3Zm2.6 1.5 3-.1-2.7 7.2-2.1-7.1h1.8Zm3.3-.1 7.2-.2-10 7.5 2.8-7.3Zm14 5-10.3 12.1-6.6-9.4 16.8-2.7Zm-7.2 19.6-10.4.1 7.3-7.2 3.1 7Zm-21.6.5h-.5l6.1-9 5.1 8.6-10.7.4Zm-13.3.5-1 1.6-.6-1.5h1.6Zm-1.2 1.7h-1.4l.9-1.5.5 1.5Zm-1.3 25.4 2.1-1.8c.8 2.7 1.8 5.4 3 8l-5.1-6.2Zm5.3 6.9-4.5-.5-.8-6 5.3 6.5Zm-7.4-14.7-4-2.3 1.7-11 5.4 15-3-1.7Zm-3.9-2 7 4-5.4 4.1-1.6-8.1Zm8 7.4v.4l-2 1.7 1.2-5 .8 2.9Zm-6.2-19 4 2.8c0 3.3.3 7.5 1.2 12l-5.2-14.7Zm0-.2 2-3.1 1.9 5.8-4-2.7Zm4-2.8v5l-1.8-5.6 1.9-.1-.1.7Zm-2-.6-2.2 3.2-3.3-3 5.5-.3Zm-2.4 3.4-5.4 2 2-5.2 3.4 3.2Zm0 .2-1.6 11-3.9-9 5.5-2Zm0 19.6-4.3-4 2.7-4 1.6 8Zm-4.6-3.8 1.1 8.1-5.5-4 4.4-4Zm.3.1 4.3 4-3.3 4-1-8Zm9.9 0-1.2 5.4.7 6.1-4.8-7.5 5.3-4Zm.1 12.2 4.4.4 2.2 4-6.6-4.4Zm12.8 15-.4-.5.4.6Zm0 .1h.1Zm.5.5-.2-.2.2.2Zm6.7 3.2 2 1.4-3.5 2.4-4-5.6c2 1.3 4.2 1.7 5.5 1.8Zm6 12.5 3.9 1.1-2 2.6-6.3-5 4.3 1.3Zm11.5 7.7-4.4 2.4-4.9-6 9.3 3.6ZM274 266l-11 2.8 6.3-4.8 4.7 2Zm1-.2 13-5.8-1.2 4.1-11.7 1.7Zm11-1.4-9 3.8-2.4-2 11.4-1.8Zm2.2-4.5 9 .6L287 264l1.2-4Zm.3-.2 5.1-2.5 3.8 3.1-8.9-.6Zm9.3.6-3.9-3.1 6.8-.3-3 3.4Zm3.3-3.3 4 1-2.3 2.7-1.7-3.7Zm4.3 1 4.1 3-6.5-.2 2.4-2.8Zm4.3 3.1-4.4 6-2.3-6.1 6.7.2Zm-.4 1 .6-.9 1.3 1.4-5.4 4.2 3.4-4.7Zm.5-1.2-4.2-3 6.4-1.2-2.2 4.2Zm-4.5-3.1-3.5-.9 9.1-.2-5.5 1Zm6.4-23.5 2.3.8-2.2.8-.1-1.6Zm.2-.2 2.2-.9v1.7l-2.2-.8Zm2.2-7.1-.1-2-.3-5.4-.3-5.3v-1.8l-.2-2 5.1 10.3-4.2 6.2Zm19.2-26.1 6.4 7.5-10.4 6 4-13.5Zm-4.2-10.7 1.2-12.5 8.3 7.2-9.5 5.3Zm1-12.8-12-6.8 17.1-3.7-5 10.5Zm-12-7 4-13.6 13.2 9.9-17.3 3.7Zm-.2-24 6.4-2-2.2 11.8-4.2-9.7Zm-.3-10.7v10.5l-9.4-5.6 9.4-5v.1Zm0 10.7-6 13.4-3.5-19 9.5 5.7Zm-17.5-14.6 9.5-4-1.7 12.5-7.8-8.5Zm-10.8 6.1 2.8-12.4 7.6 6.2-10.4 6.2Zm-11-9-6.6-12.7 15.7-2-9 14.6Zm-52.5-12.5 8.1-8.4 5 13.6-13.1-5.2Zm-11.3 5-15.6 3 10.3-11.5 5.3 8.4Zm0 .2-6.2 9-8 .3-1.5-6.2 15.7-3.1Zm-16.1 3L191 131l-5-7.5 12.4 1.2Zm-16.9 6.7-5.8-4.5 9.9-3.3-4.1 7.8Zm-6-4.6-.6-1.8-2.5-6.7 13 5.2-9.9 3.3Zm-3.3-8.5 3 8.4-13.4-3.5 10.4-4.9Zm3.3 8.8 5.7 4.4H179l-2.6.2h-3.6l2.7-4.6Zm-1.6 4.9-.3 2.1-1-2 1.3-.1Zm-2.4 2.4-3-2c1.7-.3 3.1-.2 3.3-.2l.4-.1-.8 2.3Zm-.4.1c-.6 0-1.2.2-1.9.4l-.8-2.2 2.7 1.8Zm-2.4.8-1 .4 1-.4Zm-1.2.2-1.7-1.8 2.9 1.4-1.2.4Zm-3.9 4.8-.3 1.5h-.2l.3-1.4.2-.1Zm-.7 1.4-1.9-.4 2.2-.8-.3 1.2Zm0 .2-2.1.8v-1.2l2.1.4Zm0 5.6v.2l-2 1.6V147l2 .5Zm0 .5v1.5h-1.8l1.8-1.5Zm.3-.2.1-.1v1.8h-.1v-1.7Zm27 17.7-1.2 1.4-.4-1.4h1.6Zm1.5 0-.3 1.2-.7-1.2h1Zm2 0-.6 1.3-1-1.3h1.6Zm1.5-.1-.4 1.3-.7-1.3h1.1Zm2.3 0-1.1 1.3-.9-1.3h2Zm1.4-.1-.4 1.2-.6-1.2h1Zm.2.1 1 1.3h-1.4l.4-1.3Zm7.3 1.3h1.9l2 7.2-11.4-7c2.4 0 5 0 7.5-.2Zm10.7 17-12.5-1.2 6-8.1 6.5 9.4Zm0 .3-7.4 7.3-5-8.6 12.3 1.3Zm-34.6 10H181l1.3-1.6.3 1.6Zm-3.6 0 1.2-1.5.5 1.5h-1.7Zm-2 .1 1-1.6.7 1.6h-1.8Zm-1.9.1c0-.3-.3-1-.6-1.5l2 1.5H175Zm-2.4.3h2.2l-2 5.1-3.6-4.5a10.8 10.8 0 0 1 3.4-.6Zm-.1 5.2-6.7-1.8 3.2-2.7 3.5 4.5Zm-6.2-3c.7-.5 1.3-1 2-1.2l-2.7 2.2.7-1Zm6.3 3.2-2.6 7.8-4.2-9.6 6.8 1.8Zm-2.5 8.3 6.5 1.1-2.8 4.2-4.4 4 .7-9.3Zm5.1 13.8 3.3-4 4.9 7.6-4.7-2-3.5-1.6Zm15.8 8.9c1 1.7 2.2 3.4 3.6 5l-9.7-4 6-1Zm3.7 5.3-3.1 3.7-6.7-7.8 9.8 4Zm-3 3.8 3.2-3.7.1.2v.4a8.5 8.5 0 0 0 3 5.6v4.1l-6.3-6.6Zm10 8.5.6.3-5.8 3.2 1.7-5 3.5 1.5Zm-5 4 8.4 3.3-1 4-4.6-4.5-2.7-2.7Zm8.6 3.5 6.3 5-7.3-1 1-4Zm6.4 5.2-3.4 4.2-4-5.2 7.4 1Zm39.7 8.4-.9 2-.6-2h1.5Zm.2 0 1.6 2.2h-2.5l.9-2.2Zm2 .1 1.4 2h-1.5l.2-2Zm.2-.2h1.5l-.2 2-1.3-2Zm7-.2-.5 2-.4-2h1Zm1.6 0c0 1-.2 1.9-.3 2.2l-1-2.2h1.3Zm1.7 0c-.3 1-.7 2-.9 2.2l-.5-2.2h1.4Zm.2.1.8 2.1h-1.7l.9-2Zm2.6-.2 1 2.2h-2.5l1.5-2.1Zm.1 0h1.5l-.4 2-1-2Zm3.8-.1-.6 2.1-1.4-2 2-.1Zm1.6 0-.5 2-.8-2h1.4Zm14.8-.7-7.3.2h-2.2l-2.5.1-4.3.1-7.4.2 10.8-2.7 2.6 2.2 9.9-4 1.2 3.9h-.8Zm-.2-4 9.7 1-8.5 2.9-1.2-3.9Zm10.8-3.6 7 6.4-7.4-2 .4-4.4Zm0-.2 3-3.5 1.8 4 2.3 6-7-6.5Zm7.4 7 5.9-4.6a9 9 0 0 1-6 4.6h.1Zm7.2-10.9 2.5 1.9-2.5.6v-2.4Zm0-1.7 2.3 1-2.3.4v-1.4Zm0-2 2.3.8-2.3 1v-1.8Zm0-1.3 2.1.9-2.1.1v-1Zm-.3-5.7 2.4 1-2.3 1.2v-2.2Zm0-1.7 2.2.4-2.2 1v-1.4Zm.2-.2 2.2-1 .1 1.5-2.3-.5Zm-.2 0-.1-2.7 2.4 1.6-2.3 1Zm-.2-5.5 2.4 1.9-2.3.5-.1-2.4Zm-.1-2.2 2.3 1.4-2.3.5v-2Zm.1-.2 2.3-.8.1 2.2-2.4-1.4Zm2.2-8.4v-.3l4.3-6.3 3.4 16.4-7.7-9.8Zm14.7-12.6 4 15.5-14.2-9.8 10.2-5.7Zm.4-.2v-.1l10.6-6.1.1 2.4.3 6.4v1.1l.2 3-11.3-6.7Zm11.4 6.8-.1-3c.3.3 1 .6 2.8 1.2l-2.6 3.3v-1.5Zm-.5-9.8 2.6 2.5-2.3 3.8-.3-6.3Zm-.1-3.4-.2-4.6 2.8 3.4-2.5 4-.1-2.8Zm-.5-10.5 2.2 2.6-2 2.7-.2-5.3Zm-.2-3.1-.1-3.4 2.5 2.6-2.2 3.3-.2-2.5Zm-.6-10.2-8.2-7 7.8-.2.1 1.9.3 5.3Zm-8.3-7.2 5-10.4c1 3.2 2 6.6 2.9 10.2l-7.9.2ZM301 121c-1.4-1-2.9-1.8-4.4-2.7l3.8-.7 1 3.6-.4-.2Zm-4.6-2.9-.4-3.3 3.5-.8.9 3.3-4 .8Zm-.2 0-3.6-1.9-.7-.4 4-1 .3 3.3Zm-8.4-4.1 3-1 .6 2.6-3.6-1.6Zm-.5-.3-5-1.9 3.5-1 1.5 3Zm-37 .7-5.5-6.9 10.5-.2-5 7Zm-5.4-7.1 3-2.2 2.7 2-5.7.2Zm-19.5 9-15.9-3.7 11.5-4.6 4.4 8.3Zm-26.8 8-6.5-8.9 16.8-2.6-10.3 11.6Zm-6.2-9.1 10.3-6.8 6.2 4.2-16.5 2.6Zm-.8 0-19.1 2.6 7.4-9 11.7 6.5Zm0 .3-5.9 7.7-13-5.2 19-2.5Zm-19.7 2.5-10.4 4.9-.1-.1-5.4-8.4L172 118Zm-10.5 5.2 6.6 9-9.9.8 3.3-9.8Zm.4 0 13.5 3.6-2.8 4.9h-.1l-.6.1c-.2 0-1.7 0-3.6.3l-6.4-8.8ZM169 135l-3.4-1.6c.8-.4 1.7-.7 2.5-.8l.9 2.4Zm-3.7-1.5 2 2.2-4-1c.7-.5 1.3-.9 2-1.2Zm-2.2 1.5 2.3 2H161.6c.4-.8 1-1.5 1.5-2Zm-1.6 2.2 2.6 1.2-3.2.4c.1-.6.3-1 .6-1.6Zm-.6 13v-.5h2v.2l-2 1.3v-1Zm2 0 .1 1.6-1.9-.4 1.9-1.3Zm.3-.2.1-.1.1 2h-.2v-2Zm0 2v.1Zm0 6 .1.7-2-.5 1.9-1v.8Zm.2 0v-1h.2v1.1l.1.7h-.2v-.8Zm.2 1.2.2-.1c0 .4.2.9.4 1.4h-.2l-.4-1.3Zm.2 1.3-2.1-.2 1.7-1 .4 1.2Zm.3.2Zm.2.1.5 1a7 7 0 0 1-.6-.9h.1Zm.2 1.2-1.8.4 1.4-1.3.4.9Zm.4.2.6.7a7 7 0 0 1-.6-.7Zm.4.8-1.8.6 1.3-1.3.5.7Zm.3.4.4.3.5.4-1.7 1 .8-1.7Zm2.5 1.7-1.6 1.2.4-1.9 1.2.7Zm.4.1.9.3-1 1.1v-1.4Zm2 .6-.8 1.2v-1.4l.9.2Zm1.4.2-.6 1-.4-1.1h1Zm2 0-.9 1.3-.7-1.3h1.6Zm.4 0h1.3l-.6 1-.7-1Zm2.8-.1-.5 1-.6-1h1.1Zm1.4 0-.4 1-.6-1h1Zm2 0-.6 1.3a10 10 0 0 1-1-1.4h1.6Zm1.4-.1-.5 1.2-.6-1.2h1Zm1.8 0-.7 1.2-.8-1.2h1.5Zm2.5-.1-1 1.3-1.1-1.3h2Zm2 0-.7 1.3-.9-1.4h1.6Zm.2 0 .4 1.3h-1l.6-1.2Zm2 0 .8 1.3h-2l1.2-1.4Zm1.5 0 1 1.2h-1.4l.4-1.3Zm2-.1.7 1.3h-1.3l.6-1.3Zm1.5 0 .7 1.3H195l.4-1.3Zm2.3-.1.7 1.3h-1.8l1-1.3Zm.9 1.6 11.6 7.1-19.1 2.6 7.4-9.7Zm11.7 7.3-6 8.1-13-5.5 19-2.6Zm-24.5 5 5-2.3 3.1 9-17.7-2.4 9.6-4.3Zm-5 14.6-.6-1.6h1.9l-1.4 1.6Zm-2 0-.8-1.5h1.9l-1.2 1.6Zm-2.3.2-2-1.6 3.1-.1c-.7 1-1 1.5-1 1.7Zm-2.4-1.6.6 1.6a81 81 0 0 1-2.6-1.6h2Zm.4 1.7H173l-.9-1.4 2.4 1.4Zm-3.2.2-.8.1a27 27 0 0 0-1.5-1.5l3.2 1.3h-.9Zm-2.7.6-2-1.1 3.3.7-1.3.4Zm-2.3 1.3c-.4 0-1.4-.5-2.2-.8l3.7-.1c-.5.2-1 .5-1.5 1Zm-1.3 1.4-2.1-.5 3-.5-.9 1Zm-.9 1.7-2-.3 2.6-1-.6 1.3Zm-.4 1.7-2-.4 2.3-.9-.3 1.3Zm-.1 1.9-2-1 2-.5v1.4Zm.2 0v-1.6h.1v1.7h-.1v-.2Zm0 .4v1.6-1.6Zm-.3 1.6-2-.7 2-.8v1.5Zm.2.3v1.4-1.4Zm-.2 1.3-1.9-1 2-.3v1.3Zm.2.5.1 1.4v-1.4Zm-.2 1.3-1.9-.5 2-.7v1.2Zm.5-3.2v-2.9a8 8 0 0 1 1.4-4.5l-1.4 7.5v-.1Zm1.6-7 4.2 9.7-5.7-2 1.5-7.8Zm3.5 19.4-4.7-3.1v-.3l5.4-5.8-.7 9.2Zm2.1 9.7-4.9-2 2.9-7.1 2 9Zm4-5 8.2 3.5-5.8 4.5-2.4-8Zm2.3 8.4 5.1 5.6-7.4-3.2 2.3-2.4Zm-2.3 2.6 7.6 3.3-5 3.8-2.6-7Zm9.3-1.2 6.7 7.6-8-3.2 1.3-4.4Zm2.1 13.3L198 247l-1.6 5-9.7-6.6Zm9.4 6.8-11.4 1.1 1.7-7.9 9.7 6.8Zm6.2 6 1.6 1.7-13-2 5.5-5.5 6 5.9Zm35.4 11.5-.6 2-.5-2h1.1Zm.2.2 1 2h-1.6l.6-2Zm.1-.2h1.7l-.7 2-1-2Zm7.4 0-.6 2-.8-2h1.4Zm2 0-1 2.2a17 17 0 0 1-.7-2.2h1.7Zm2.3-.1-.9 2.1-1-2 1.9-.1Zm.1.2.6 2-1.4.1.9-2.1Zm5.8 0 .6 1.9h-.8l.2-1.9Zm.1-.4h1.5l-.8 2-.7-2Zm4 0-1.3 2.1-.9-2.1h2.2Zm-1.5 2.3h-1.7l.8-2.1.9 2Zm1.6-2.2.4 2.1h-1.6l1.2-2Zm1.3 0c.4 1.3.7 1.8.9 2l-1.5.1.6-2Zm1.6.3c.1.6.2 1.4.4 1.7h-.7l.3-1.7Zm8.3-.6.8 2.1h-1.4l.6-2Zm1.7 0 1.3 2H272l.6-2Zm.2-.2h2.2l-1 2.1-1.2-2.1Zm4.7-.1-1 2.1-1.1-2 2.1-.2Zm8.1-.3L284 271l-.7-2.2h2.4Zm1.4 0-1 2v-2h1Zm15.3-.6-8.6.2-5.1.1 8.7-3 7.9 2.2c-.8.3-1.6.4-2.1.4h-.8Zm10-8.5 2.5 1.2h-2.6l.2-1.2Zm.3-3 2.4-.4v2.2l-2.4-1.7Zm0-1.7 2.3-1v2l-2.3-1Zm.2-2h2l.1.8-2-.8Zm-.2-1.3 2.2-.7v1.6l-2.2-.9Zm-.3-.1v-1.5l2.5.7-2.5.8Zm0-3 2.1.4-2.1.8v-1.2Zm.2-.1 2.2-1.2v1.6l-2.2-.4Zm-.2-2.5 2.3-1v2l-2.3-1Zm-.2-4.7 2.3-.5.1 2.1-2.4-1.6Zm-.1-2.7 2.3-.5.1 2.3-2.4-1.8Zm19.7 5.3-9.5-5.7 10.7-6.9-1.2 12.6Zm0 .2-6 13.3-3.5-19 9.4 5.7Zm-9.6-6-3.5-16.8 14.3 9.8-10.8 7Zm18.6-14.2 2.1 1.7-1.3 2.1v.2l2.1 2.2-2.5 2.8-.4-9Zm2.3 1.8 2.8 2.1-2 2.2-2-2.2 1.2-2.1Zm1 4.4 1.9-2 .2 4.3-2.1-2.3Zm-.9-4.6 2.4-4 .3 6-2.7-2Zm.6-5.5 1.7-2.1v2.7l-1.7-.6Zm-.7-5.4 2-3.3.3 5.6-2.3-2.3Zm-.2-.2-2.6-2.6 2.5-4 2.3 2.6v.5l-2.2 3.5Zm0-6.9 1.9-2.9.3 5.4-2.1-2.5Zm0-.2-3-3.5 2-2.8 2.9 3.2-2 3.1Zm-.8-6.5 2.3-3 .3 6-2.6-3Zm0-6.5 2-2.9.3 5.2-2.3-2.3Zm-2.8-3.1-.3-6v-.2l2.6 3-2.3 3.2Zm-.7-13.6-.1-.7 2.6 3.8-2.1 4-.4-7.1Zm-1.3-5.1 2.5 1.6-1.5 2-1-3.7Zm0-.1-1.6-5.2 3.5 1.3-1.9 3.9Zm-1.5-5.4-.1-.2 1.6-4.6 4 2.2-2 4-3.5-1.4Zm-5.8-13.5 1.6-4 4.4.7-1.5 4.5-4.5-1.2Zm-.1-.1-2.5-4.5 4 .6-1.5 3.9Zm-2.5-4.7 1.5-3.7 4.1.3-1.5 4-4.1-.6Zm-.2-.2-2.5-3.9 4 .3-1.5 3.6Zm-2.5-4 .8-3.9 4.9.2-1.6 4-4.1-.4Zm-.2-.3-2.7-3.7h3.5l-.8 3.7Zm-2.8-4 .8-4.4h3.9l-1 4.6-3.7-.2Zm-.2 0-2.2-2.8-1.3-1.5h4.3l-.8 4.2Zm-3.5-4.5.4-4h4.6l-.7 4h-4.4Zm-.3-.1a86.1 86.1 0 0 0-3.7-4h4.2l-.5 4Zm-3.8-4.1.2-3.7 4.5-.2-.4 3.8h-4.3Zm-.2-.2a76.1 76.1 0 0 0-3.6-3.3l3.8-.2-.2 3.5Zm-3.8-3.5-.2-3.6 4.5-.7-.3 4.1-4 .2Zm-.2-.1-3.6-2.9 3.4-.5.2 3.4Zm-3.7-3-.4-3.7 3.7-.9.2 4-3.5.5Zm-.3-.2-3.8-2.7 3.5-.8.3 3.5Zm-4-2.8-1-3.9 4.2-.8.4 3.8-3.6.9Zm-5.8-6.7-4.1 1-.6-2.8 4-1.4.4.2.3 3Zm-4.8-2-.7-3.2 4.6 2-3.9 1.2Zm-5-2.2-1.6-3.1c1.9.6 3.7 1.2 5.5 2l-4 1.1Zm-.3.1-3.6 1.1-1.5-3.2 3-1.3.5.1 1.7 3.3Zm-3.9 1-4.4-1.3h-.2l-.3-.2 3.5-1.5 1.4 3Zm-9.6-2.7 2.9-1.6 1.3 2.7c-1.5-.4-2.9-.8-4.2-1Zm-5.5-1 3.1-1.6 1.9 2.5-5-1Zm-.3-.1-1.4-2.3 3.2-1.5 1.5 2.1-3.3 1.7Zm-.3 0a67 67 0 0 0-4.8-.6l3.5-1.6 1.3 2.2Zm-7-.8-3.2.1 3-1.8 1.8 1.8H259Zm-3.6 0-1.6-1.8 3-2 2 2-3.4 1.9Zm-.2.1-4 .1 2.5-1.8 1.5 1.7Zm-4.4 0-2.9-2 3-2.3h.6l2 2.4-2.7 2Zm-.3-4.3-2.7 2-2.5-1.8h-.1l-2.7 1.9-1.5-1.8 9.6-.2Zm-5.3.5 2.4 1.7-3.1 2.3-1.8-2.2 2.5-1.8Zm-1 4-5 .1 3.3-2.2 1.7 2.1Zm-10.7.2 3-2 2 2h-5Zm-.4 0-1.6-2 3-2 1.9 1.8-3.2 2.2Zm-.2 0-4.8.2 3.2-2.1 1.6 2Zm-10.1.3 3-2.2 1.7 2-4.7.1Zm-.4 0-1.4-2 3.3-2.1 1.4 1.7-3.3 2.3Zm-.2 0h-4.7l3.3-2 1.4 2Zm-9.4.2 2.7-2 1 1.9H213Zm-.5 0h-5.8l3.6-2.2 2.2 2.2Zm-11.4.2 2.7-1.9 2.3 1.8-5 .1Zm-.3 0-2.5-2.2 2.9-1.8 2.4 2-2.8 2Zm-.3 0-6 .1 3.6-2.2 2.4 2.1Zm-11.2.2 2.6-2 2 2h-4.6Zm-.3 0-2-2 2.8-2 2 1.9-2.9 2.1Zm-.3 0-4.5.1 2.7-2 1.8 2Zm-4.9.1-2.3-2.1 3.2-2 2 2-2.9 2.1Zm-.2 0-5.7.1 3.4-2.1 2.3 2Zm-6.1.1-1.6-1.8 3.5-2.1 1.8 1.6-3.7 2.3Zm-.3 0-4.6.2 3-2 1.6 1.9Zm-5 .1-2-1.9 3.6-2.1 1.7 2-3.3 2Zm7.5.1-7.3 9-3.7-8.8 11-.2Zm-7.5 9-16-3.6 12.3-5.1 3.7 8.8Zm-14.2 15.4-4.6 14.6-2.6-19 7.2 4.4Zm.2 0 8.8-.7c-2.1.6-4.4 2-5.5 4.4l-.7 1.9-.2 1.3v2.5l-7 5.4 4.6-14.8Zm5 18.6v.3l-2 1.5-.1-2.2 2 .4Zm.1 4.8v.1l-2 1.1v-1.8l2 .6Zm.2 2.1v.2l-2 1.1v-.6l-.1-1.2 2.1.5Zm5 6.3-.2 1.7.1.2h.1l1.1-1.4v1.7h.2l1-1.4.6 1.3h.1l.8-1.2.7 1.4h-3.2c-1.2-.2-2.2-.5-3-1l1.6-1.3Zm5.7.9 1 1.2h.1l.7-1.3.7 1v.1h.1l.6-1.1.7 1.1h.2l.5-1.1 1 1.3-6.4.1.8-1.3Zm6.6-.1.6 1.2h-1.1l.5-1.2Zm1.4 0 .7 1.2h-1.2l.5-1.3Zm1.8-.2 1.1 1.3h-1.8l.7-1.3Zm2.5 0 1 1.3h-2l1-1.4Zm12 1.2-7.5 9.7-3.1-9.4 10.6-.3Zm-7.7 9.8-16-3.9 12.9-5.6 3.1 9.5Zm-15 7.1-4.6 8.5-17-8.8 21.6.3Zm.2 0 17.9 2.4-11.5 5.8-4.4.1-6.5.2 4.5-8.5Zm-4.1 8.7 1 1.7-3.8-1.5.6-.1h2.2Zm-3.2.3 1.7 1.7-4-1a10 10 0 0 1 2.3-.7Zm-5 2.7 2.4 1-3.4.5 1-1.5Zm-1.1 1.8 2.4.5-3 1.1c.1-.6.3-1.1.6-1.6Zm-.7 2 2.3.2-2.5 1 .2-1.3Zm-.2 1.5 2 .5-2.1.6v-1.1Zm1.8 4.3-2 .2v-.8l2 .6Zm.2 3.6-2.1 1V208l2 .6Zm0 .2v1.8l-2-.9 2-.9Zm.2 0 .1 1.9-.1-2Zm0 2.2h.1l.1 1.8-.1-1.8Zm0 1.7-2-1 1.9-.6v1.6Zm.2.5.1.8v-.8Zm.3-.2-.2-2.1v-5l5.7 2-5.5 5.9v-.8Zm7.1 14.6 3.4 5.3-5.6.2 2.2-5.5Zm.1-.3 3.5-5.1 2.4 8.2-2.3 2.4-3.6-5.5Zm6.2 13-5-.3 2.3-6.7 2.7 7Zm5.3-3.6 3 8.2-8-4.4 5-3.8Zm3 8.4-7.7 2.6-.3-7 8 4.4Zm0 .2-1.6 8v.1h.1l11.6-1.1-5.5 5.5a55.3 55.3 0 0 1-12.2-10l7.7-2.5Zm28.1 21.8-1 1.8-.4-2.2c.4.2 1 .2 1.4.3Zm1.5.3-.6 1.8-.5-2c.3 0 .7 0 1 .2Zm1.9.3-.6 2-1-2.3 1.6.3Zm1.4.2-.5 2-.6-2.1c.4 0 .7 0 1.1.2Zm1.7.3-.7 2-.7-2.2 1.4.2Zm1.6.3-.7 1.9-.6-2.1 1.3.2Zm2.2.2-1 2-.8-2.2 1.8.2Zm1.6.2-.7 2-.5-2.1 1.2.1Zm1.7.2-1 2-.4-2.2 1.4.2Zm2.9.2-1.3 2-1.1-2.2 2.4.2Zm1.7 0-.6 2.1-.8-2h1.4Zm2.2.2c-.3 1-.7 2-.9 2.2-.2-.2-.6-1.3-1-2.3h1.9Zm1.7 0a18 18 0 0 1-.6 2.3l-.8-2.3h1.4Zm.2.4.5 1.9h-1l.5-2Zm2.8 2 .6-2 .6 2h-1.3Zm.8-2.3h1.6l-1 2.1-.6-2Zm3.7 0-.7 2.1-1-2 1.7-.1Zm.1.2.8 2h-1.4l.6-2Zm1.7 0 .6 2h-1.2l.6-2Zm28.8 1.3 1-2.2 1.1 2.2h-2.1Zm3.4-2.2 1 2-2 .1 1-2.2Zm.2-.2h1.9l-.8 2.1-1.1-2Zm5-.1-2.3 2.2-.5-2.1 2.7-.1Zm.2 0 .6 2.3h-2.9l2.3-2.2Zm2.7 0 .1 2.2h-1.8l1.7-2.1Zm1.4 0c.4 1.3.6 2 .8 2.2h-1.8l1-2.1Zm1 2.1c-.2-.1-.5-1.2-.8-2.2h2.8a21 21 0 0 1-2 2.2Zm5.3-2.4-1.3 2.3-1.6-2.2h3Zm3.3 0-2.1 2.2-.8-2.2h2.9Zm2.2-.1-1.4 2.1-.4-2 1.8-.1Zm3-.1h.2l1.2-.1h.1l-1.6 2.2v-2.1Zm10.2-7.2 2.4 1.7-3 .2c.2-.6.5-1.2.6-1.9Zm.4-11.3 2.2-.8v1.5c-.2-.1-.9-.4-2.2-.7Zm2.4-1V247l-.1-2.3-.1-1.7-.2-4.7 7.3-.1-6.9 11v-.4Zm7-10.4 3.5 19-10.4-7.8 6.9-11.2Zm5.3 18.6-1.5.5 6-13.3 4.2 9.8-8.7 3Zm5.9-25.8 7.8 7.2-9 5.3 1.2-12.5Zm7.8 7.4.3 9-9.2-3.7 9-5.3Zm.2-5.2 2.5 2.7-2.2 2.8-.3-5.5Zm2.7 8.9-2.1 2.7-.3-5.5 2.4 2.8Zm.8 7-2.5 3.6-.4-7.3 2.9 3.7Zm-2.5 4 2.6-3.8 2.3 3v.1l-2.3 3-2.6-2.4Zm1.5-68.2-2 2.7-2.7-3 2.2-4 2.5 3.7v.6Zm-2.4-4.5 2-3.7v.6l.4 6.6-2.4-3.5Zm-1.3-6.7 2.6-3.5c.3 1.8.5 3.7.6 5.6l-3.2-2Zm-.2-.1-2.3-1.5 1.8-3.8 3.2 1.2v.4l-2.7 3.7Zm-2.5-11.9 1.8-4.9c.8 2.4 1.6 4.7 2.2 7.2l-4-2.3Zm-.2 0-4-2.4 1.4-4.6 4.2 1.1.2.7-1.8 5.1Zm-2.5-7.2 1.5-4.6 2.5 5.7-4-1.1Zm-3-5.5 1.6-4v-.2l-4.3-.4 1.6-3.9c2 3 3.9 6 5.4 9.1l-4.3-.6Zm-6.1-9 1-4.6v-.1c0-.1 0 0-.1 0h-4l.7-3.9c2.6 2.8 5 5.8 7.2 8.8l-4.8-.1Zm-7.2-8.9.4-4-4.6.2.2-4c3 2.4 5.9 5 8.5 7.8h-4.5Zm-8.7-7.4-.2-4v-.1h-.1l-3.8.9-.4-3.6 2.6 1.6c2.2 1.4 4.2 3 6.2 4.5l-4.3.7Zm-26.2-16.7-2.8 1.3-1.1-2.4 3.9 1.1Zm-3 1.4-3.7 1.6-1.4-2.8 3-1.6 1 .3 1 2.5Zm-5.2-1.4-1.2-2.3 3.9.8-2.7 1.5Zm-.2.1-3 1.7-2-2.7 3.3-1.6.5.1 1.2 2.5Zm-5-1.1-1.6-2.2h-.2l-3.3 1.5-1.3-2.1c3.2.3 6.3.7 9.3 1.3l-3 1.5Zm-5.3-.6-3.7 1.7-1.8-1.9 3.7-2.1h.4l1.4 2.3Zm-5.6-.4L257 103h-.2l-3 2.2-2-2.2h2.9c2.6 0 5.2 0 7.8.3l-3.4 2Zm-18.3-2 1.6 2-3.4 2.4-2.2-2.1 3.2-2.3h.8Zm-4.2 2.1-2-1.9-3.1 2-1.6-2 9.7-.2-3 2.1Zm-5.3.2-3.4 2.3-1.8-2.2 3-2.2h.5l1.7 2.1Zm-5.3 0-1.4-1.9h-.2l-3.4 2.1-1.5-2 9.3-.2-2.8 2Zm-5.2.3-3.6 2.2h-.2l-1.2-2 3-2.3h.4l1.6 2.1Zm-12.6-1.9 1.8 1.9-3.7 2.4-2.4-1.9 3.4-2.4h.9Zm-4.5 2.3-2.5-2h-.2l-3 1.8-2-1.8 11-.3-3.3 2.3Zm-5.8 0-3.8 2.3-2.1-2 3-2.3h.7l2.2 2Zm-6 .1-2-1.9h-.2l-2.9 2-2-2 9.8-.2-2.8 2.1Zm-22 .5-2-2-3.9 2.2-2.2-2.1 11.8-.3-3.6 2.2Zm-6 .3-3.5 1.9-2.2-1.8 3.4-2.2 2.2 2Zm-3.7 2-5.1.2 2.9-2 2.2 1.9Zm.8 50v-.2l-7.5-10.3 7.3 1.7.2 7.9a139 139 0 0 1 .3 2.2l1 2.2.8 1.2a10.2 10.2 0 0 0 3.3 2.8c1 .5 2 .9 3.3 1.1h3.4l8.4-.3h1.5l2.2-.1h1.8l-12.6 5.5-18.2-7.1 4.8-6.7Zm-4.9 6.4-2.7-16.6 7.4 10-4.7 6.6Zm-3 27.6.6-9.2 7.6 16.8-9 4.8.8-12.4Zm.7-9.4 17 8.7h-1.2a10.4 10.4 0 0 0-3.7 1.2 9 9 0 0 0-2.4 1.8c-.5.5-.9 1.1-1.2 1.8l-.7 2-.3 1.1-7.5-16.6Zm9.9 27.3-2.1.7-.1-1.6 2.2.9Zm0 2v.2l-2 1.3-.1-2.5 2.2 1Zm.1.5.2 1.9-2-.8 1.8-1.1Zm.3 1.1.2.9-.2-.9Zm.2 1.2.4 2.8-.4-2.8Zm0 2.7-2.1-1.1 1.9-1.5.3 2.6Zm.4.5.3 1.3c-.2-.4-.2-.9-.3-1.3Zm0 1.2-2-.6 1.8-.6.2 1.2Zm.3.5.5 2.4-.5-2.4Zm.2 2.3-2-.5 1.6-1.6.4 2Zm.4.4.4 1.8-.4-1.8Zm.2 1.7-2.1-.5 1.7-1c0 .5.2 1 .4 1.5Zm.3.5.8 2.7-.8-2.7Zm.5 2.5-2.3-.9 1.6-1.5.7 2.4Zm.4.6 1 2.5h-.1l-.9-2.5Zm.6 2.4-2.1-.4 1.4-1.8.7 2.2Zm.5.5.8 2-.8-2Zm.6 2h-2.2l1.4-1.8.8 1.9Zm6.8 11.3-1.5-2 1.5 2Zm8.4 8.8-1.4.9.5-1.6.9.7Zm2.2 1.7-2.3.9.4-2.3 1.9 1.4Zm1.7 1.3-1.7.9.4-1.9 1.3 1Zm2.4 1.5-1.7 1.3-.2-2.5 2 1.2Zm2.7 1.5-2 1.3-.2-2.5 2.2 1.2Zm3 1.5-2.2 1.3-.4-2.5 2.6 1.2Zm3 1.4-2.4 1.3-.1-2.4 2.5 1Zm3.3 1.3-2.2 1.4-.5-2.5 2.7 1Zm2.5.8-1.3 1.8-.6-2.4 1.9.6Zm1.7.6-.8 1.8-.5-2.2 1.3.3Zm1.7.5-.5 1.9-.8-2.3 1.3.4Zm1.5.4-.7 1.8-.5-2.1 1.2.3Zm1.4.3-.7 1.9-.4-2.2 1.1.3Zm1.3.4-.3 1.8-.6-2c.3 0 .6 0 1 .2Zm.2.3.5 2-.9-.1.4-1.9Zm1.8.2.6 2.2c-.6 0-1-.2-1.6-.3l1-1.9Zm1.4.3 1 2.3-1.5-.3.5-2Zm2 .4.5 2.2-1.1-.2.6-2Zm1.4.3.7 2.1-1.3-.2.6-2Zm1.6.2.6 2.1c-.4 0-.8 0-1.2-.2l.7-1.9Zm1.7.2.9 2.2-1.7-.2.8-2Zm2.2.3.6 2.1c-.5 0-1 0-1.6-.2l1-2Zm1.6.3.3 2-1-.1.7-2Zm1.8 0 1.1 2.2-2.3-.2 1.1-2Zm2.8.2.8 2.2-2.1-.2 1.3-2Zm1.7.2c.5 1.2.7 1.8.9 2h-1.5l.6-2Zm1.4 2 .8-1.9c.3 1.2.6 1.8.7 2H234Zm6.9.2 1-2 1 2h-2Zm2.3.3h2.7l1.8-.1 6.4 7-13.5-1.4 2.6-5.5Zm11.1 7L248 272h2.6l4.7-.2 6.3-.2-7.3 7.4Zm9-7.5 7.2-.2h1.4l-5.4 15.6-4.5-15.4h1.3Zm16-.6.7-2.1.5 2h-1.3Zm9.3-.3 1.9-2.3 1.6 2.2-3.5.1Zm5.2-2.3.8 2.2h-2l1.2-2.2Zm3.3-.1.4 2.2H295l2.1-2.2Zm2 .2.2 2h-1.4l1.3-2Zm2.7-.3v2.2h-2.1l2.1-2.2Zm2-.1 1 2.2H302l1.7-2.2Zm1 1.9-.8-2.1c.8-.1 2-.4 3.2-.9l-.6 3.1-1.2-2.4h-.2l-.3 2.3Zm3.6-3.6.4 2.7-1.3-2.2.9-.5Zm1.5-1.1 1.2 3.2-2.5-2.2 1.3-1Zm.5-.6 1.4 2-1.7-1.6.3-.4Zm1.2-1.6 2.2 2.1-3.2-.7 1-1.4Zm3.7-2.5v-8.1a924 924 0 0 1 0-2l-.1-.1v-.8l10.3 7.8-10.2 4v-.9Zm10.6-3L336 254l-4.1 13.7-6.1-10.2Zm10.4-4L332 244l9.3 3.7-5.1 6Zm5.1-5.8.9 13.1-5.9-7 5-6Zm.2-.3-.2-8.7.9 19-.7-10.3Zm1 11 2.3-2.9 2 1.9-2 3.3-2.3-2.3Zm4.6-1v-.1l-2.1-2 2.2-2.7.5 11-2.8-2.8 2.2-3.4Zm-51.7-146.1Zm-55-8.7h.1-.1Zm-26.4.5Zm-58.4 2 2.2 1.8a64 64 0 0 0-3.1 2c-.3 0-1.2-.8-2.4-2l3.3-1.9Zm-1.4 3.9h-5.4l3.3-2a22 22 0 0 0 2.1 2Zm-3.8 19-6-10.4v-.2l4-7.8 2 18.4Zm0 .7-5.5 13-3.5-9.9 9-3.2Zm2.8 19.6 2.7 16.9-12.2-10.3 9.5-6.6Zm2.7 17.1-11.7 10.7-.5-21 12.2 10.3Zm-2.5 17.8-6.7 7-2.5-13.6 9.2 6.6Zm1.3 42-5 10.6-3-16.6 8 6Zm-8-6.3 5.4-13 2.6 19-8-6Zm8.2 6.4 7.6 17.3-12.7-6.5 5-10.7Zm0-.5-2.6-19.1 9.2 8.7L155 225Zm-2.6-19.4 9-4.8V202.1a75.8 75.8 0 0 0 .3 12.1l-9.3-8.6Zm11.7 9.9-2 1.6a78 78 0 0 1-.2-2.4l2.2.8Zm.4 3.1v.1l-2 .7-.3-2 2.3 1.2Zm.3 1.7v.2l-1.8 1.8-.5-2.7 2.3.7Zm.6 2.8-1.9 1.3-.4-1.8 2.3.5Zm.5 2.1v.2l-1.7 1.5-.6-2.2 2.3.5Zm.9 3v.4l-1.5 1.9-1-3.2 2.5 1Zm1 3 .1.2-1.5 1.9-1-2.6 2.4.5Zm1.2 2.9 1 2-2.4-.4 1.4-1.6Zm.2-.2 1 2.2a56 56 0 0 1-1-2.2Zm1.2 2.6.6 1a36 36 0 0 1-.6-1Zm.4 1.2-1.8.6 1.3-1.6.5 1Zm.3.2 1.7 2.8-1.7-2.8Zm1.4 2.8-2.4-.1 1-2.4 1.4 2.5Zm.5.5.9 1.2-.9-1.2Zm.7 1.3-1.2.8.5-1.8.7 1Zm1.7 2.4-2 .6.6-2.5 1.4 2Zm1 1.4-1.8.6 1.1-1.6.8 1Zm1.5 1.6-1.9.8.8-2 1.1 1.2Zm1.5 1.5-1.7 1.2.6-2.3 1 1.1Zm.3.4 1 .9-1.8 1 .7-2v.1Zm3 2.7-2.3.8.6-2.3 1.7 1.5Zm3.7 3-.5 2.2h.1l2.1-1 .3 2.7-4.4-3 2.4-1Zm4.1 2.7.2 2.6-2-1.2 1.8-1.4Zm2.7 1.5.3 2.7-2.4-1.4 2-1.3Zm3 1.6.2 2.4c-.8-.3-1.7-.7-2.5-1.2l2.3-1.2Zm3 1.3.6 2.6-3-1.3 2.5-1.3Zm3.4 1.3.6 2.5-3-1 2.4-1.5Zm2.4.9.5 2.3-2-.6 1.4-1.8Zm1.6.5.9 2.4-1.7-.4.8-2Zm1.7.6.6 2.2c-.4 0-.7-.2-1-.3l.4-1.9Zm1.5.4.4 2.2-1-.3.6-1.9Zm1.5.3.6 2.3-1.4-.4.8-1.9Zm23.7 5.4h.7l1.4.1a134.1 134.1 0 0 0 3.6 0h2.3l-2.6 5.5-5.8-5.6h.4Zm5.6 5.9 13.5 1.5-7.8 10.4-4.7-9.8-1-2.1Zm8.3 8.8 5.4-7.3 11.9 8-19.7 2.5 2.4-3.2Zm5.6-7.4 7.3-7.5 4.5 15.4-11.8-8Zm17.5-7.7 7.2 11.7-12.5 4 5.3-15.7Zm12.8 20.8-18-5 12.5-3.9 5.5 8.9Zm-12.6-21h5.8l1-.1 11.8-.3-11.4 12.2-7.2-11.7Zm34.3-.8 1.8 10.5-7-6.2 5.2-4.3Zm-1.5-.2.4-2.2 1 2-1.4.2Zm2.4-3.1 1.4 2.4-2 .5c.2-.5.4-1.4.6-3Zm5.2 0-1.9-2.4 3.3.7a8 8 0 0 1-1.5 1.9v-.1Zm.3.4 8.3 6.4-8.1 3.6-.2-10Zm0-.3c.5-.5 1-1.1 1.3-1.8.5-.8.8-1.7 1-2.8v-.8l6 11.8-8.3-6.4Zm10.6-.8 2.2-8.7 6.1 10.1v.2l-10.2 5.7 1.9-7.3Zm8.7 1.6v-.1l9.9-6.5.9 13.3-10.8-6.7Zm10.1-6.8h-.2l-9.8 6.4 4-13.6 6 7.2h.1l.6 10.3-.7-10.3Zm.6 3.3 2.7 3.1-2.4 3.5-.3-6.6Zm0-.3 2-3.2 3 2.9v.5l-2.2 3-2.8-3.2Zm5 .5.2 5.4-2.2-2.5 2-2.9Zm-.4-12.5v-1.6l7.6 10-7 .1-.6-8.4v-.1Zm-.3-6.2.1-.2v-.1l-.2-.3-.6-12.6v-.1l7 10.8-6.1 6.5-.2-4Zm6.3-2.8-6.8-10.7 9.1-5.3-2.3 16Zm.2 0 2.3-15.9 5.5 10.2-3.4 2.5-4.4 3.3Zm2.4-16.2 9.2-3.4-3.7 13.7-5.5-10.3Zm-9.5 5.4-.1-.2-.6-11.4.1-.2 9.8 6.4-9.2 5.4Zm-.5-12 6.6-12.7 3.1 19-9.7-6.3Zm-.2 0v-.1l-.2-3.1.1-.2v-.1l-.1-.2-.3-6.2.2-.2v-.2l-.2-.2-.3-5.7 7.5 3.2-6.7 13Zm6.8-13.2-7.6-3.2 9.6-11.3-2 14.5Zm-7.7-3.4-.3-6.8.2-.2v-.2l-.2-.2-.3-5.7 10.2 1.7-9.6 11.4Zm-.5-13.3 4.4-6.2 5.7 7.9-10-1.7Zm-36-72-3.4-2.1-2.9-1.7 1.7-4 5.6 8.5-1-.6Zm-4.7-7.9-1.8 4c-2-1.1-4-2.2-6.2-3.2v-.2l-.1-.1h-.4a98 98 0 0 0-4.5-1.8l6.8-1 6.2 2.3Zm-24.8-5.5.2.4-.6-.2.4-.2Zm-26.3-5.7-7.2 3.2-3.2-4.6 10.4 1.4ZM242.3 98l7.5-3.9 3 5.3-10.5-1.4Zm-.4.2 3.2 4.6h-4.2l-.3-.2h-.1l-.5.3H234l8-4.7Zm-16.2 4.8-6.5.2h-1.8l8.4-5.8v5.6Zm-30.4.6-.2.1-9 .3 6.6-5 2.7 4.6h-.1Zm-20.4.7h-5.7l13.7-3.7-5.7 3.6H175Zm8-4-14 3.8 5.2-4.2 8.8.4Zm-17.2-4.5.8-1.7 7.2 5.6-9.5-.6 1.5-3.3Zm.5-1.5-2.3 4.9-1.6.3-4.8 1.2 3.9-2.8 4.8-3.6Zm-12 2.6 5.7-3.5-3 7.3-1.4-2-1.3-1.8Zm2.6-1.9-2.7 1.7-.5-3.2 6.1-.3-2.9 1.8Zm-2.7 2 2.7 3.8-5.5.9 2.8-4.7Zm9.6 2.4-4.3 4.9-2.2-3.3 6.5-1.6Zm.4 0 9.4.5-13.8 4.3 4.4-4.8Zm9.4.7-5.2 4.2H160l13.4-4.2Zm-24.4 5h.9l2 2-3.6 2.2-2.7-2.1 3.4-2.1Zm-1 4.2-6.2.1 3.6-2.1 2.6 2Zm.1.2-4 7.9-9.1-7.6 13.1-.3Zm-4.1 8v.2l-8.5 5.9-.7-13.7 9.2 7.7Zm6.3 11.1-2.6 1-6.4 2.2 2.8-13.8 6.2 10.6Zm-9.1 3.6 3.4 9.9-8.8-4.3 5.4-5.6Zm-5.4 5.3-.5-13.2 5.7 7.6-5.2 5.6Zm.4 13.8.1.2-.1.2v-.4Zm0 .9.3-.7-.3-.6-.1-3.1 7.1 7.3-6.8 2.3v-.1l-.2-5.1Zm10.2 38.4-9 1.5L144 177l2.5 13.6Zm.2.5 5.3 14.5-1 .3-8 2.8 3.7-17.6Zm5.2 14.7-5.4 13-3.5-9.9 9-3.1Zm.7 40-2.8-9.2 12.6 6.4-1.5.5-8.3 2.2Zm10.2-3-7.6-17 13 12.4-5.4 4.7Zm-7.8-17.5 6.6-10.4c.6 6.7 2.3 14.7 6.4 22.7l-13-12.3Zm15.7 12.6-1 2.6-1-1.9 2-.7Zm10 13-.6 2.3-1.3-1.2 1.9-1.1Zm2.9 5.6a47.7 47.7 0 0 0 6.9 4.5l-17.8 2 7.6-9.2 3.2 2.7Zm7 4.7-3 11.6-14.8-9.6 17.8-2Zm.2 0a68 68 0 0 0 2.7 1.5l2.9 1.3a70.9 70.9 0 0 0 3.4 1.5l3.4 1.2 2.3.7 2 .6 1.4.4 1.3.3.6.2-23 4 3-11.7Zm20.2 7.9-7.7 9.4h-.4l-14.8-5.5 23-4Zm-8 9.7 2.6 9.4-15-6.6 12.3-2.9h.2Zm.4 0 13.5 1.3-11 8.1-2.5-9.4Zm0-.2 7.9-9.5 5.7 10.8-13.6-1.3Zm14 1.3 6.3-4 6 5.3-12.2-1.3Zm16.8-7.8 6 5.6-10 3.5 4-9Zm6 5.8 5.7 11.9-15.6-8.4 10-3.5Zm39.2 5.6 15.7-3.3-10.2 12.2-5.5-9Zm.2-.3 11.4-12.1 4.3 8.9-15.7 3.2Zm16-3.2 5.5-4.9 6.9 6.2-12.3-1.3Zm12.8 1.2-1.9-10.7 2.4-.6 2.1-1 .1-.1 1.5-1.1.1 10.1-4.3 3.4Zm4.4-3.2 8.6 8.7-12.9-5.3 4.3-3.4Zm.4 0 19.1 3.9-10.4 5-8.7-8.8Zm0-.1 8-3.6 11 7.3-19-3.7Zm19.5 3.8-11-7.4 21 .9-10 6.5Zm-11-7.6 10.1-5.7 10.8 6.6-21-1Zm21.4-2.4 2.5-3.7 2.4 2.7v.5l-2.4 3.4-2.5-2.9Zm5-.2.3 6.2-2.6-3 2.3-3.2Zm.3-.8h-.1l-.3-6 .2-.3v-.2l-.2-.2-.2-2.8 7.2-.2-6.6 9.7Zm6.7-9.4v9.5h-6.5l6.5-9.5Zm-7.8-10.8 6-6.5 1.8 16.6-7.8-10.1Zm11-10.2 3-2.3 3.7 15.6-11.4-9.8 4.6-3.5Zm7.2-16.7 4.5-5.3.6 12.7-5.1-7.4Zm-9.6 3.2-3.1-19 8.5 5.7-5.4 13.3Zm-3.1-19.2 7.3-6.2 1.2 11.8-8.5-5.6Zm0-.2 2-14.5 5.2 8.3-7.3 6.2Zm1.9-15-5.8-8 13.4-.8-7.6 8.8Zm7.8-8.7.9 8.8h-8.5l7.6-8.8Zm-.4-.3-13.1.8 4.5-4.5 7.8 3.4.8.3Zm-12.7-11.7 11.2.7-7 7-4.2-7.7Zm-7.5-8 11.4-6.2-4.1 14-7.3-7.8Zm-.2-.1h-.1c-.1 0 0 .2 0 .2l7.5 7.8-5.4 8.4-.2-2.7v-1.1l-.7-6.1.1-.3v-.1l-.2-.1c-.8-4.5-2-8.8-3.6-13l.2-.5 6.5-2.6 7.4 3.8-11.6 6.3Zm4-10.3-6.3 2.5 5.5-14.3.8 11.8Zm8.7-4-1 7.8-7.3-3.7 8.4-5-.1 1Zm-15.2 6.6h-.3c-2-5.4-4.8-10.5-8.1-15.3l14 .5-5.6 14.8Zm-8.5-15.5 8.5-7.5 5.6 8-14.1-.5Zm8.2-7.5-8.4 7.4a80 80 0 0 0-6.2-7.8l14.6.4Zm-19.1-14.4 6.2-3.1-2 16.5-4.2-13.4Zm-9.9 1.2 6.9-9.8 2.7 8.5-9.6 1.3Zm-.2-.1-5.8-8.7 12.7-1-6.9 9.7Zm-1.5-14.4-10.6 3.1-1.2-6.7 11.8 3.6Zm-19.9-1.4-6.1-4 13.6 1.7-7.5 2.3Zm4-8.2 3.8 5.8-14-1.9 10.1-4Zm-11 4-10.3 4 1.1-6 9.2 2Zm-10.6 4.2v.1h.1l10.7-4.1-2.7 5.4-.6.3a94 94 0 0 0-4.4-1v-.1l-.1-.1h-.1l-.3.2c-3.3-.7-6.6-1.1-10-1.4v-.1l8.6-5.2-1.2 6Zm-7.7-.9-.5-5.5 9.2.2-8.7 5.3Zm-10-3.4-3-5.3 12 3-9 2.3ZM241.4 98l-15.1-.8 7.7-4.4 7.4 5.2Zm.1.2-8.1 4.8-3.8.2v-.2h-.2l-.3.2H226l.1-5.8 15.5.8Zm-33.5 5.3-.1-.2h-.2l-4.1-3.6 9.5-1.2-5 5Zm-4.5-4 .4-5.9 9.1 4.7-9.5 1.2Zm-.3 0-10.1-.7 10.5-5.2-.4 5.9Zm-.1.2-3.6 4-3.8.2-2.8-4.9 10.2.7Zm-17.4 4.4-8.1.2 6-3.9 8.7-1.3-6.6 5Zm-1.8-4 6-5 2.6 3.7-8.6 1.4Zm-10-.4-7-5.5L178 96l-4.1 3.8Zm-6.6-5.6 5.3-.5 4.8 2-10-1.5Zm-.8-.2v-3.7l5.7 3.2-5.7.5Zm-15.4 8.1 5.8-.9 2.3 3.5h2.9l-12.1.3 1.1-2.9Zm-8.3 3.3h.4l-4.1 2.2-2.4-2 6-.2Zm.5.3 2 1.6-3.8 2.3-2.2-1.9 4-2Zm-2.1 4h-6l3.8-1.9 2.2 1.8Zm-5.8 14.4 8.5-5.9-2.7 13.7-5.8-7.8Zm8.5 52.8-6.6 15-.3-14.6 6.9-.4Zm-6.5 15.6 9-1.5-3.6 18-5 .3-.4-16.8Zm5.3 16.7-4.3 7-.6-6.6 4.9-.4Zm3.7 10.4 3 16.6-9.4-9.5 6.4-7Zm15 27.6 1.3-3.7 3.7 9.1-11 10.3 6-15.7Zm18.7 6.7-7.7 9.2-5.6-10.3 13.3 1ZM161.4 270l10.9-6.7-.3 7-10.6-.3Zm11.1-6.7 14.7 9.5-15-2.5.3-7Zm15 9.7-12 9.4-3.3-11.9 15.2 2.5Zm.1.1 2.5 8.4-14.4 1 12-9.4Zm.2 0 14.7 5.5-12.2 2.9-2.5-8.4Zm18.3 15.2 11-8.2 6.5 9.5-17.5-1.3Zm116-1.3 10.4-5v7.1l-10.3-2.2Zm10.2 2.3-6.6 7-3.7-9.2 10.3 2.2Zm.4-7.4 10.4 1.9-10.5 5.3V282Zm.2-.2 10-6.6.5 8.5-10.5-2Zm10.4-3.4 2.7 2.5-2.4 2.4-.3-5Zm0-.3 2.3-3.1 2.7 3v.4l-2.2 2.3-2.7-2.6Zm5 .6.3 4.5-2.3-2.3 2-2.2Zm6.8-7.6 1.7 11.2-8.3-11.2h6.6Zm6.4-57.8-1.2-11.9 9.1 6.4-8 5.5ZM360 201l-5.3-8.3h8.5L360 201Zm-6.5-21.5 7.1-7 1.7 10.8-8.8-3.8Zm7-7.3-11.2-.7 9.2-9.4 1.8 8.8.3 1.3Zm-11.2-1 4.1-13.7 5 4.4-9.1 9.3Zm4.2-14 1-8 .1-.8 10.7 7.7-11.8 1Zm-.9-16.3 10 6.2-8 1-2-7.2Zm-7.7 0-5.6-8H352l-7.1 8Zm-12.3-14.7 11-5.4-4.6 11.8-6.4-6.4Zm-.3-.4-6.1-10.5h8l-2 10.5Zm-.1.3-8.2 6 2-16.6 6.2 10.6Zm-12.6-7.8-2.7-8.4 8.9 5.3-6.2 3Zm-2.8-8.6 5.1-5.6 4 10.9-9-5.3Zm-.1-.1-7.9-4.3 12.9-1.3-5 5.6Zm-8.2-4.6L305.9 93l5.5 6.8-2.8 5Zm-6.7-6.6-3.5-3.4 7-2.1-3.5 5.5Zm-10-3-10 4 1.2-6.6 8.8 2.7Zm-19.8 2 2.3-5.1 7 7-9.3-1.9Zm-22.7-3.3-7.5 4V98l-7.6-5.2 4.4.4 10.7 1Zm-16-1.3-7.5 4.4-7.7-3.6 15.3-.8Zm-15 .5 10.3-4.4 5 3.7-15.3.7Zm-15.3.4-10.4 5-2.7-3.6 13.1-1.4Zm-13 1.2 5.4-5.3 7.8 3.8-13.2 1.5Zm-3.7-2.8 4.4-2.3-1 5-3.4-2.7Zm-13.8 1.3-5.5-3 8.3 1.7-2.8 1.3Zm-6.3.5-3-.4-2.9-.4 6-2.9V94Zm-12.4-.6h-.2l1.7-2.9 4.3 2.7-5.8.2Zm-.5.4.5 3.1-1 .1-4.2.5 4.7-3.7Zm.4 3.3-2.7 4.7-2.6-4 5.3-.7Zm-4 7.7v-.1h-.2l-.3.2-2 .1h-3.5l7-2.8-1 2.6Zm-11 2.9-3.9 2 1.2-4.2h.3l2.5 2.2Zm-3.6 16.2-.2.1v1.3l-1-1.6 1-2.7.2 2.9Zm-.1 1.8v.3l-1.3 3.7-1.2-2.4 1.3-3.3 1.2 1.7Zm0 1 .3 6-1.5-2.7 1.2-3.4Zm.3 6.5v.2l-1.2 2.5-1.5-2.5 1.1-3.2 1.6 3Zm0 .7.2 4.1v.3l-1.3-2.2 1.1-2.2Zm.2 4.9-1.2 3.5-1.5-3.4 1.3-2.6 1.4 2.4Zm0 .7.2 6.1-1.3-3 1.1-3.1Zm.2 6.7-1.2 2.6-1.5-2.2 1.3-3.7 1.4 3.3Zm0 .5v1l.2 3-1.3-1.7 1.2-2.3Zm.2 4.4v1.3l-1.2 2.5-1.6-2.9 1.4-2.8 1.4 2Zm0 1.7.2 4.7-1.3-2.4 1.1-2.3Zm.2 5.1-1.3 2.9-1.5-2.6 1.4-2.8 1.4 2.5Zm0 .5.2 5-1.4-2.4 1.2-2.6Zm.2 5.4-1.4 3-1.4-2.6 1.3-3 1.5 2.6Zm0 .4v1.7l.1 3.8-1.4-2.7 1.3-2.8Zm.1 6-1.3 3-1.5-3.2 1.3-2.7 1.5 2.9Zm0 .5.2 4.6v1.2l-1.4-3 1.3-2.9Zm.2 6.3-1.2 2.4-1.6-2.6 1.3-3 1.5 3.2Zm0 .5.1 4.1-1.1-2 1-2.1Zm.1 4.5-1.5 3.3-1.2-2.3 1.5-3.1 1.2 2.1Zm0 .5.2 6.2-1.6-3.1 1.5-3.1Zm.2 6.7-1.2 2.3-1.6-3.4 1-2.3 1.8 3.4Zm0 .4.2 4.6-1.3-2.5 1.2-2.1Zm.2 5.1-1.4 4-1.4-4 1.4-2.8 1.4 2.8Zm1 21.9.8 6-1.7-3 .9-3Zm.9 6.5-1 4-2-3 1.1-4.1 1.9 3.1Zm.1.5.6 3.1.8 4-2.3-3.4.9-3.7Zm193.4 66 11 6.8-11 .3v-7Zm11.4 6.8-11.2-7 10.6-5.3.7 12.3Zm-.3-12.3 1.9 2.6-1.7 1.5-.2-4.1Zm0-.4 2.4-2.5 2.5 2.4v.6l-2.8 2.4-2.1-3Zm5.2.1v.1Zm-.2-5.3V278l-.2-6.8 8.2 11.3-8-1.3v-2.9Zm6.6-7.3 6.5 2.4-4.8 8.9-1.7-11.3Zm8.7-4 3.7 9.6-5.6-3.4 1.9-6.2Zm1.2-13 6.9 7.2-8 5.3 1.1-12.5Zm-4.8-52.8 8.7-.8.3 7-9-6.2Zm-.1-.2 3.2-8.4 5.2 1 .3 6.6-8.7.8Zm2.4-17.7 4.7-13.2.9 15.9-5.6-2.7Zm-.1-.3-1.7-10.7 6.5-2.7-4.8 13.4Zm-1.7-11-2.1-10 8.6 7.4-6.5 2.7Zm-2.3-10.4-4.9-4.3 6.6-.6 5-.5-6.7 5.4Zm-3.7-13.4 8.1-1c1 2.8 1.9 5.6 2.5 8.6l-10.6-7.7Zm-2.2-7.7-.3-7.6 7.7 7.2-7.4.4Zm-.5-8h-12.5l5.8-3 6.6-3.2v6.2Zm-.2-6.4-12.3 6.2-.3.1 4.6-11.7 8 5.2v.2ZM326.2 115l-3.9-10.9 11.9 10.9h-8Zm-3.9-11.2 5.6-.4 6.1 11.2-11.7-10.8Zm-.2-.2-6-7c4.1 2 8 4.1 11.9 6.6l-5.9.4Zm-6.2-7-4.4 3-5.7-7a96.1 96.1 0 0 1 10.1 4Zm-17.7-1.9-3.2-5a95 95 0 0 1 10.6 2.8l-7.4 2.2Zm-6 .4-3.8-6.5 6.4 1-2.5 5.5Zm-.1 0-8.8-2.6 4.9-3.8 3.9 6.4Zm-10.5 4.1-7-7.1 8.3.5-1.3 6.6Zm-7-7.3 3.9-4 4.3 4.5-8.2-.5Zm-.2 0-6-1h-.2l-5.8 6-3.4-8.7 19.2-.4-3.8 4ZM262.2 97l-1.5-.4-10.6-2.7 8.7-5.7 3.4 8.8Zm-24-4.2-3.8-.3 10.2-4 5 5.3-11.4-1Zm-4.2-.4L229 89l15-.3-10.1 4Zm-15.8.7 3-4V89l7-.2-10 4.3Zm-.4 0-2.7-4h5.9l-3.2 4Zm-3-4 2.7 4-10.7-3.8 8-.2Zm-11 4.1-7.8-3.7 10.2-.2-2.5 4ZM190 94.7l1-5 4.3-.1-5.2 5.1Zm-3.8-2.8-3.6-2 8-.2-4.4 2.2Zm-4.3 1-4.1-3h4.5l-.4 3Zm-6.1-1-8.4-1.8 9.8-.2-1.4 2ZM160 93l-4.3-2.6 10.2-.2L160 93Zm-6.7.4-5.1 4h-3.8l10.6-6.8-1.7 2.8Zm-5.5 4.2-5.6 3.4 1.9-3.4h3.7Zm.4 0 2.6 4.2-8.6-.6 6-3.5Zm-6.3 3.8 8.1.5-17 2.9 8.9-3.4Zm-10 4.6 2.6 3.8-1.6 3.4-.8-.8-.2-6.4Zm2.7 4.2.2 5-1.7-1.8 1.5-3.2Zm.2 5.7.1 4-1.1-1.8 1-2.2Zm.1 4.4-1.2 3-1.4-1.8 1.4-3.1 1.2 2Zm-1.3 3.3-1.2 3v-4.8l1.2 1.8Zm0 6.3-1 2.8-.1-5 1.1 2.2Zm.4 6-1.2 2.5-.2-4.7 1.4 2.3Zm.2 6.6-1.2 3.4-.2-6.5 1.4 3.1Zm.2 6.4-1.3 2.6v-4.6l1.3 2Zm.2 6.1-1.3 2.6-.1-5.2 1.4 2.6Zm.1 5.9-1.2 2.7-.2-5.1 1.4 2.4Zm0 6-1 2.5-.2-4.9 1.3 2.4Zm.3 6.5-1.2 2.8-.2-5.8 1.4 3Zm.4 6.2-1.4 2.8-.2-5.3 1.6 2.5Zm-.3 5.8-1 2-.1-4 1 2Zm.6 6.2-1.4 2.5-.1-5.7 1.5 3.2Zm-.1 7.4-1 3.1-.3-6.8 1.3 3.7Zm.3 7-1.2 2.7-.1-5.5 1.3 2.8Zm.1.2 1.5 3.1-1.1 3-1.6-3.3 1.2-2.8Zm1.6 3.6c0 2.2.3 4.3.5 6.3l-1.6-3.4 1-2.9Zm.3 6.5-.8 3-1.9-3.2 1.2-3.1 1.6 3.3Zm-.9 3.3-1 3.8a155 155 0 0 1-1-7l2 3.2Zm1 7.6-.8 3.5-1.1-6.3 1.9 2.8Zm.2.3 2.5 3.6-1 2.5-2.4-2.6.9-3.5Zm2.6 3.9 1.4 5.1-2.4-2.7 1-2.4Zm1.5 5.5-1.2 3-2.3-2.1-.3-.9 1.2-2.9 2.6 3Zm0 .3 2 5.6-3-2.7 1-2.9Zm2 6-.8 3-2.9-2-.4-1.3 1-2.6 3.2 3Zm.2.3 1.9 4.6-2.7-1.9.8-2.7Zm2 5-.7 3.8-2.9-1.7-.3-.8 1-3.3 2.9 2Zm.2.2 2.9 6-3.6-2.2.7-3.8Zm3 6.3-.5 3-3.4-1-.4-.9.6-3.4 3.7 2.2Zm.2.2 2.2 3.7-2.7-.8.5-2.9Zm2.3 4-.4 3.7h-2.8l-.3-.7.7-3.9 2.8 1Zm.2.3 2.5 3.6-2.9-.2.4-3.5Zm2.6 3.8.8 5-3.7-.8-.5-.7.4-3.6 3 .1Zm.3.3c1.3 1.9 2.8 3.7 4.3 5.4l-3.5-.7-.8-4.7Zm4.4 5.6 1.3 5.2h-3.4l-.6-.7-.9-5.2 3.6.7Zm.3.3c1.5 1.6 3 3.3 4.6 4.8h-3.4l-1.2-4.8Zm4.8 5 1.6 5-3.4.4-.7-.7-1-4.6h3.5Zm.3.2 5.2 4.6-3.7.3-1.5-4.9Zm5.4 4.8 1.2 4.5-3 .5-.6-.5-1.4-4.2 3.8-.3Zm.3 0a78 78 0 0 0 5 3.7l-3.9.7-1.1-4.3Zm5.4 4c1.5 1 3 2 4.6 2.8l.9.5-4.4.5-1.1-3.8Zm6.1 3.7c2 1 4 2.1 6.1 3l-4 .3-2-3.3Zm6.8 3.4c2.5 1 4.8 2 7.2 2.8l-4.8.9-2.4-3.8Zm8 3 5.7 1.8-3.8.8-2-2.5Zm6.5 2c1.7.5 3.4 1 5 1.3l-3.2 1.3-1.8-2.5Zm5.8 1.4c2.1.5 4.2.8 6 1.1l-3.6 1.3-2.4-2.4Zm6.8 1.2 5.3.6-3 1.7-2.3-2.3Zm6 .7 3.3.2h4l-4.7 2.4-2.7-2.6Zm8 .1h3.5l-2.4 1.7-1.2-1.7Zm4 0 4.6-.2-2.4 2.3-2.1-2.2Zm5.1-.2 5.9-.1-3.4 2.6-2.5-2.5Zm6.5-.1 4.6-.1-2.7 2-2-2Zm5.2-.1 3.6-.1-2 2.2-1.6-2.1Zm4-.1 4.1-.1-2.3 2.5-1.8-2.4Zm4.7-.1 6-.2-3.5 2.6-2.5-2.4Zm6.8-.2h5l-2.5 1.7-2.5-1.7Zm5.8-.1 7.6-.2-3.5 2.7-4-2.5Zm8.3-.2 6.7-.1-3.6 2.4-3.1-2.3Zm7-.1 2 2-2.8 2.7-3-2.2 3.8-2.5Zm.3 0 4-.1-2.1 2-1.9-2Zm4.5-.2h4.9l-2.2 2.3-2.7-2.3Zm5.5 0 6.6-.2-2.7 2.6-3.9-2.5Zm7-.2 2.7 2.1-2.7 2.5-3-1.9a63 63 0 0 0 3-2.7Zm.2 0 5-.1-2.4 2.1-2.6-2Zm5.6-.2h5.4l-2.3 2.3-3-2.3Zm6 0 4.4-.2-1.6 2-2.8-1.9Zm5-.2 7.7-.2-3 2.7-4.6-2.5Zm22.5-.5 2-2 2.7 6.1-6-1.9 1.3-2.2Zm0-.3-.4-7.3 2.3 5.3-1.9 2Zm-.4-8 1.9-1.4 3.3 4.5-2.7 2.7-2.5-5.7Zm2-1.6 2.8-2.3.4 6.6-3.2-4.3Zm11-3.7.7 12.5-8.2-7.8 7.5-4.7Zm.3.1 6.9 8.2-6.3 4.3-.6-12.5Zm0-.3 10.6-5.5-3.7 13.7-7-8.2Zm0-.3 4.9-8.9 5.6 3.5-10.4 5.4Zm10.8-5.6-3.8-9.8 8.3 3.7-4.5 6Zm4.6-5.9.4 6.8c0 2.2.2 4.4.3 6.5l-5.2-7.2 4.5-6Zm-13.8-109 6.9-5.6c.9 4.2 1.5 8.5 1.7 13l-8.6-7.4Zm1.3-22-7.6-7.3v-5.9c3 4.2 5.5 8.6 7.6 13.2Zm-8.5-14.4-7.6-5-2.3-6.3c3.7 3.5 7 7.3 10 11.3Zm-10-11.5-7 1-6.4-11.6a92 92 0 0 1 13.3 10.6ZM279.2 88c3 .1 6 .3 8.8.7l-5 3.9-4.3-4.6h.5Zm-29.4 6-5-5.3 13.5-.3-8.5 5.6Zm-106 4-2 3.3-8 3 10-6.4Zm-11.7 14.8.7.7-.6 1.5-.1-2.2Zm1.5 5.4-1.3 2.9-.1-5 1.4 2.1Zm1.1 91.3 1.6 3.3-1.2 3.2-.3-2.5v-4Zm2.6 22 2.2 2.5-1 2.6c-.5-1.7-.8-3.4-1.2-5.2Zm1 6v-.1l.1.2v-.1Zm.6.8 2.1 2-.9 2.4-1.2-4.4Zm1 5.5.2-.4.1.6-.3-.2Zm.8.8 2.7 1.8-1 3.2-1.7-5Zm1.8 5.8Zm.6.7 2.7 1.6-.6 3.2-2.1-4.8Zm2.2 5.7Zm.6.5 3.3 1-.7 3.7c-1-1.5-1.8-3.1-2.6-4.7Zm2.7 5.6Zm.6.2 2.6.1-.4 3.4-2.2-3.5Zm2.3 4.4Zm.8.4 3.6.7.8 4.9-4.4-5.6Zm4.8 6.7v-.1Zm.7.2 3.2-.1 1 4.3a76 76 0 0 1-4.2-4.2Zm4.7 5.2Zm.8.1 3.2-.2 1.3 4a73 73 0 0 1-4.5-3.8Zm5 4.6Zm.7 0 2.8-.5.7 3-3.5-2.4Zm4.8 3.3 3.4-.4.8 2.8-4.2-2.4Zm5.6 3.2 4.9-.4 2.3 3.8a94 94 0 0 1-7.2-3.4Zm8.7 4 3.3-.6 1.6 2.4-4.9-1.8Zm6.3 2.2 4.5-.9 2.3 3a117 117 0 0 1-6.8-2Zm8 2.4 2.9-1.3 1.5 2.3-4.5-1Zm5.6 1.3 3.8-1.4 2.7 2.6a136 136 0 0 1-6.5-1.2Zm7.5 1.4 2.9-1.6 2.3 2.4-5.2-.8Zm10.5 1.4-4.3-.5 3-1.6 2.2 2h-1Zm1.7 0 3.5-2.8 1.8 2.6-5.3.1Zm6.2-.2a27 27 0 0 0 2.5-2.2l2 2.1-4.5.1Zm5.3-.1 2.6-2 1.8 1.9h-4.4Zm5.2-.1 3.3-2.5 2.5 2.4h-5.8Zm6.4-.2 1.9-2.2 1.6 2.2H251Zm6-2a32 32 0 0 0 1.5 1.9H255l1.9-2Zm2.4 1.9 3-2 2 1.9h-5Zm5.8-.1 4-2.8 3.8 2.6-7.8.2Zm8.7-.2 2.7-2 3 1.9h-5.7Zm10-2.4 2.9 2.1-6.3.1 3.4-2.2Zm3.4 2 2.7-2.5 2.5 2.5h-5.2Zm5.8 0 2.2-2.3 2.7 2.2H293Zm8.9-2.2 3 2h-5.6a19 19 0 0 0 2.6-2Zm3.2 2 2.7-2.5 3 2.3-5.7.1Zm6.5-.2 2.3-2.3 3 2.2h-5.3Zm6-.2 2-2.5 3.7 2.4-5.7.1Zm6.7-.1 2.2-2 3.3 1.9-5.5.1Zm6.5-.1 3.6-2.8 6 2.6-9.6.2Zm10.5-.3 1.5-2.4 6.3 2h.2v-.2l-2.8-6.5 2.6-2.6.5 9.6-8.3.1Zm7.8-13.6 8.4 8-7.7 5.3-.7-13.3Zm15.2 3.3 3.7-13.8 5.3 7.4v.1l-9 6.3Z" style="fill:#999;mix-blend-mode:color-dodge"/></g></svg>