<svg width="212" height="280" viewBox="0 0 212 280" fill="none" xmlns="http://www.w3.org/2000/svg">
<path opacity="0.24" d="M109.463 279.999C95.4324 279.91 81.8894 277.558 68.8353 272.946C55.8699 268.332 44.2362 260.835 33.935 250.454C23.6337 240.074 15.4636 226.323 9.42487 209.2C3.47497 192.077 0.5 171.051 0.5 146.121C0.588805 123.231 3.20854 102.781 8.35922 84.7713C13.5987 66.6727 21.0583 51.3241 30.7381 38.7259C40.5065 26.128 52.1844 16.5462 65.7714 9.98092C79.3586 3.32696 94.5886 0 111.462 0C129.666 0 145.74 3.54877 159.683 10.6463C173.625 17.6552 184.814 27.1925 193.251 39.2583C201.776 51.3241 206.927 64.8538 208.703 79.8475H151.823C149.603 70.3544 144.941 62.902 137.837 57.4901C130.732 52.0783 121.941 49.3723 111.462 49.3723C93.7005 49.3723 80.2021 57.091 70.9667 72.5282C61.8196 87.9653 57.1574 108.947 56.9797 135.475H58.8447C62.9297 127.401 68.4356 120.525 75.3625 114.847C82.378 109.08 90.3259 104.689 99.2065 101.672C108.176 98.5673 117.634 97.0146 127.58 97.0146C143.742 97.0146 158.128 100.83 170.739 108.459C183.349 116.001 193.295 126.381 200.577 139.6C207.859 152.819 211.5 167.946 211.5 184.98C211.5 203.433 207.193 219.847 198.579 234.218C190.054 248.592 178.109 259.858 162.746 268.021C147.472 276.094 129.711 280.088 109.463 279.999ZM109.197 234.752C118.078 234.752 126.026 232.622 133.041 228.364C140.057 224.105 145.562 218.338 149.559 211.063C153.555 203.788 155.553 195.626 155.553 186.577C155.553 177.527 153.555 169.41 149.559 162.223C145.651 155.037 140.234 149.315 133.308 145.056C126.381 140.798 118.477 138.668 109.597 138.668C102.936 138.668 96.7643 139.91 91.0808 142.395C85.4861 144.879 80.5576 148.339 76.2949 152.775C72.1211 157.211 68.8353 162.356 66.4374 168.212C64.0398 173.979 62.8408 180.145 62.8408 186.71C62.8408 195.493 64.839 203.522 68.8353 210.797C72.9203 218.072 78.4262 223.883 85.3529 228.23C92.3684 232.578 100.317 234.752 109.197 234.752Z" fill="#08BED5"/>
</svg>
