<svg width="90" height="94" viewBox="0 0 90 94" fill="none" xmlns="http://www.w3.org/2000/svg">
<g filter="url(#filter0_d_2284_20758)">
<rect x="16" y="17.0796" width="51" height="47" rx="6" fill="url(#paint0_linear_2284_20758)"/>
<g filter="url(#filter1_bi_2284_20758)">
<path d="M21.7002 21.2601H28.5401V18.7002C28.5401 17.5956 29.4356 16.7002 30.5401 16.7002H34.9374C36.6676 16.7002 38.3136 17.4471 39.4529 18.7492L39.8394 19.1909C40.989 20.5047 42.6538 21.2527 44.3995 21.2397L72.9997 21.0267V50.5998C72.9997 53.9135 70.3134 56.5998 66.9997 56.5998H27.7002C24.3865 56.5998 21.7002 53.9135 21.7002 50.5998V21.2601Z" fill="url(#paint1_linear_2284_20758)"/>
<path d="M21.7002 21.2601H28.5401V18.7002C28.5401 17.5956 29.4356 16.7002 30.5401 16.7002H34.9374C36.6676 16.7002 38.3136 17.4471 39.4529 18.7492L39.8394 19.1909C40.989 20.5047 42.6538 21.2527 44.3995 21.2397L72.9997 21.0267V50.5998C72.9997 53.9135 70.3134 56.5998 66.9997 56.5998H27.7002C24.3865 56.5998 21.7002 53.9135 21.7002 50.5998V21.2601Z" stroke="url(#paint2_linear_2284_20758)"/>
</g>
<g filter="url(#filter2_bi_2284_20758)">
<path d="M21.7002 17C21.7002 13.6863 24.3865 11 27.7002 11H66.9997C70.3134 11 72.9997 13.6863 72.9997 17V21.2599H41.65L39.8847 19.1801C38.7447 17.8369 37.072 17.0627 35.3103 17.0627H30.3501C29.2456 17.0627 28.3501 17.9581 28.3501 19.0627V21.2599H21.7002V17Z" fill="url(#paint3_linear_2284_20758)"/>
<path d="M21.7002 17C21.7002 13.6863 24.3865 11 27.7002 11H66.9997C70.3134 11 72.9997 13.6863 72.9997 17V21.2599H41.65L39.8847 19.1801C38.7447 17.8369 37.072 17.0627 35.3103 17.0627H30.3501C29.2456 17.0627 28.3501 17.9581 28.3501 19.0627V21.2599H21.7002V17Z" stroke="url(#paint4_linear_2284_20758)"/>
</g>
<g filter="url(#filter3_d_2284_20758)">
<circle cx="57.6094" cy="16.1299" r="1.70998" fill="url(#paint5_linear_2284_20758)"/>
<circle cx="57.6094" cy="16.1299" r="1.20998" stroke="white" stroke-opacity="0.14"/>
</g>
<g filter="url(#filter4_d_2284_20758)">
<circle cx="62.1692" cy="16.1299" r="1.70998" fill="url(#paint6_linear_2284_20758)"/>
<circle cx="62.1692" cy="16.1299" r="1.20998" stroke="white" stroke-opacity="0.14"/>
</g>
<g filter="url(#filter5_d_2284_20758)">
<circle cx="66.7298" cy="16.1299" r="1.70998" fill="url(#paint7_linear_2284_20758)"/>
<circle cx="66.7298" cy="16.1299" r="1.20998" stroke="white" stroke-opacity="0.14"/>
</g>
<g filter="url(#filter6_d_2284_20758)">
<mask id="path-10-inside-1_2284_20758" fill="white">
<path fill-rule="evenodd" clip-rule="evenodd" d="M67.2997 31.472C67.2997 33.046 66.0237 34.322 64.4497 34.322C63.0375 34.322 61.8652 33.2948 61.6391 31.9468H33.0605C32.8345 33.2949 31.6621 34.3221 30.2499 34.3221C28.6759 34.3221 27.3999 33.0461 27.3999 31.4721C27.3999 29.8982 28.6759 28.6222 30.2499 28.6222C31.6619 28.6222 32.8341 29.6491 33.0604 30.9969H61.6392C61.8654 29.6491 63.0377 28.6221 64.4497 28.6221C66.0237 28.6221 67.2997 29.898 67.2997 31.472Z"/>
</mask>
<path fill-rule="evenodd" clip-rule="evenodd" d="M67.2997 31.472C67.2997 33.046 66.0237 34.322 64.4497 34.322C63.0375 34.322 61.8652 33.2948 61.6391 31.9468H33.0605C32.8345 33.2949 31.6621 34.3221 30.2499 34.3221C28.6759 34.3221 27.3999 33.0461 27.3999 31.4721C27.3999 29.8982 28.6759 28.6222 30.2499 28.6222C31.6619 28.6222 32.8341 29.6491 33.0604 30.9969H61.6392C61.8654 29.6491 63.0377 28.6221 64.4497 28.6221C66.0237 28.6221 67.2997 29.898 67.2997 31.472Z" fill="url(#paint8_linear_2284_20758)"/>
<path d="M61.6391 31.9468L62.6254 31.7815L62.4854 30.9468H61.6391V31.9468ZM33.0605 31.9468V30.9468H32.2142L32.0743 31.7815L33.0605 31.9468ZM33.0604 30.9969L32.0742 31.1624L32.2143 31.9969H33.0604V30.9969ZM61.6392 30.9969V31.9969H62.4854L62.6254 31.1624L61.6392 30.9969ZM64.4497 35.322C66.576 35.322 68.2997 33.5983 68.2997 31.472H66.2997C66.2997 32.4938 65.4715 33.322 64.4497 33.322V35.322ZM60.6529 32.1122C60.9584 33.934 62.541 35.322 64.4497 35.322V33.322C63.534 33.322 62.772 32.6557 62.6254 31.7815L60.6529 32.1122ZM61.6391 30.9468H33.0605V32.9468H61.6391V30.9468ZM30.2499 35.3221C32.1587 35.3221 33.7413 33.934 34.0467 32.1122L32.0743 31.7815C31.9277 32.6558 31.1656 33.3221 30.2499 33.3221V35.3221ZM26.3999 31.4721C26.3999 33.5984 28.1236 35.3221 30.2499 35.3221V33.3221C29.2282 33.3221 28.3999 32.4939 28.3999 31.4721H26.3999ZM30.2499 27.6222C28.1236 27.6222 26.3999 29.3459 26.3999 31.4721H28.3999C28.3999 30.4504 29.2282 29.6222 30.2499 29.6222V27.6222ZM34.0466 30.8313C33.7408 29.0099 32.1584 27.6222 30.2499 27.6222V29.6222C31.1655 29.6222 31.9275 30.2883 32.0742 31.1624L34.0466 30.8313ZM33.0604 31.9969H61.6392V29.9969H33.0604V31.9969ZM64.4497 27.6221C62.5412 27.6221 60.9587 29.0098 60.653 30.8313L62.6254 31.1624C62.7721 30.2883 63.5341 29.6221 64.4497 29.6221V27.6221ZM68.2997 31.472C68.2997 29.3458 66.576 27.6221 64.4497 27.6221V29.6221C65.4715 29.6221 66.2997 30.4503 66.2997 31.472H68.2997Z" fill="white" fill-opacity="0.14" mask="url(#path-10-inside-1_2284_20758)"/>
</g>
<g filter="url(#filter7_d_2284_20758)">
<mask id="path-12-inside-2_2284_20758" fill="white">
<path fill-rule="evenodd" clip-rule="evenodd" d="M50.1998 28.6221H44.4999V31.7501C43.5482 31.9378 42.6152 32.2196 41.7147 32.5926C39.9282 33.3326 38.3049 34.4172 36.9376 35.7845C35.5703 37.1518 34.4856 38.7751 33.7456 40.5616C33.4349 41.3118 33.1875 42.0846 33.005 42.8719H30.25V48.5719H35.9499V42.8719H33.9782C34.1431 42.209 34.3573 41.5577 34.6199 40.9237C35.3124 39.2521 36.3273 37.7331 37.6067 36.4537C38.8862 35.1742 40.4051 34.1593 42.0768 33.4669C42.8616 33.1418 43.6728 32.8908 44.4999 32.716V34.322H50.1998V32.716C51.0267 32.8909 51.8378 33.1418 52.6225 33.4669C54.2941 34.1593 55.8131 35.1742 57.0925 36.4537C58.372 37.7331 59.3869 39.252 60.0793 40.9237C60.342 41.5577 60.5562 42.209 60.7211 42.8719H58.7497V48.5719H64.4497V42.8719H61.6943C61.5118 42.0846 61.2644 41.3118 60.9536 40.5616C60.2136 38.7751 59.129 37.1518 57.7617 35.7845C56.3944 34.4172 54.7711 33.3326 52.9846 32.5926C52.0842 32.2196 51.1513 31.9379 50.1998 31.7502V28.6221Z"/>
</mask>
<path fill-rule="evenodd" clip-rule="evenodd" d="M50.1998 28.6221H44.4999V31.7501C43.5482 31.9378 42.6152 32.2196 41.7147 32.5926C39.9282 33.3326 38.3049 34.4172 36.9376 35.7845C35.5703 37.1518 34.4856 38.7751 33.7456 40.5616C33.4349 41.3118 33.1875 42.0846 33.005 42.8719H30.25V48.5719H35.9499V42.8719H33.9782C34.1431 42.209 34.3573 41.5577 34.6199 40.9237C35.3124 39.2521 36.3273 37.7331 37.6067 36.4537C38.8862 35.1742 40.4051 34.1593 42.0768 33.4669C42.8616 33.1418 43.6728 32.8908 44.4999 32.716V34.322H50.1998V32.716C51.0267 32.8909 51.8378 33.1418 52.6225 33.4669C54.2941 34.1593 55.8131 35.1742 57.0925 36.4537C58.372 37.7331 59.3869 39.252 60.0793 40.9237C60.342 41.5577 60.5562 42.209 60.7211 42.8719H58.7497V48.5719H64.4497V42.8719H61.6943C61.5118 42.0846 61.2644 41.3118 60.9536 40.5616C60.2136 38.7751 59.129 37.1518 57.7617 35.7845C56.3944 34.4172 54.7711 33.3326 52.9846 32.5926C52.0842 32.2196 51.1513 31.9379 50.1998 31.7502V28.6221Z" fill="url(#paint9_linear_2284_20758)"/>
<path d="M44.4999 28.6221V26.6221H42.4999V28.6221H44.4999ZM50.1998 28.6221H52.1998V26.6221H50.1998V28.6221ZM44.4999 31.7501L44.8869 33.7123L46.4999 33.3941V31.7501H44.4999ZM41.7147 32.5926L40.9493 30.7448L41.7147 32.5926ZM36.9376 35.7845L38.3518 37.1987L38.3518 37.1987L36.9376 35.7845ZM33.7456 40.5616L35.5934 41.327L35.5934 41.327L33.7456 40.5616ZM33.005 42.8719V44.8719H34.5945L34.9534 43.3235L33.005 42.8719ZM30.25 42.8719V40.8719H28.25V42.8719H30.25ZM30.25 48.5719H28.25V50.5719H30.25V48.5719ZM35.9499 48.5719V50.5719H37.9499V48.5719H35.9499ZM35.9499 42.8719H37.9499V40.8719H35.9499V42.8719ZM33.9782 42.8719L32.0373 42.3893L31.4201 44.8719H33.9782V42.8719ZM34.6199 40.9237L36.4677 41.6891L36.4677 41.6891L34.6199 40.9237ZM37.6067 36.4537L36.1925 35.0394L36.1925 35.0394L37.6067 36.4537ZM42.0768 33.4669L42.8422 35.3146L42.8422 35.3146L42.0768 33.4669ZM44.4999 32.716H46.4999V30.249L44.0862 30.7592L44.4999 32.716ZM44.4999 34.322H42.4999V36.322H44.4999V34.322ZM50.1998 34.322V36.322H52.1998V34.322H50.1998ZM50.1998 32.716L50.6135 30.7593L48.1998 30.249V32.716H50.1998ZM52.6225 33.4669L51.8571 35.3146L51.8571 35.3146L52.6225 33.4669ZM60.0793 40.9237L58.2316 41.6891L58.2316 41.6891L60.0793 40.9237ZM60.7211 42.8719V44.8719H63.2792L62.662 42.3893L60.7211 42.8719ZM58.7497 42.8719V40.8719H56.7497V42.8719H58.7497ZM58.7497 48.5719H56.7497V50.5719H58.7497V48.5719ZM64.4497 48.5719V50.5719H66.4497V48.5719H64.4497ZM64.4497 42.8719H66.4497V40.8719H64.4497V42.8719ZM61.6943 42.8719L59.7459 43.3235L60.1048 44.8719H61.6943V42.8719ZM60.9536 40.5616L62.8014 39.7962L62.8014 39.7962L60.9536 40.5616ZM57.7617 35.7845L56.3475 37.1987L56.3475 37.1987L57.7617 35.7845ZM52.9846 32.5926L52.2192 34.4403L52.2192 34.4403L52.9846 32.5926ZM50.1998 31.7502H48.1998V33.3941L49.8127 33.7124L50.1998 31.7502ZM44.4999 30.6221H50.1998V26.6221H44.4999V30.6221ZM46.4999 31.7501V28.6221H42.4999V31.7501H46.4999ZM44.1128 29.7879C43.0319 30.0011 41.9721 30.3212 40.9493 30.7448L42.48 34.4403C43.2582 34.118 44.0645 33.8745 44.8869 33.7123L44.1128 29.7879ZM40.9493 30.7448C38.9202 31.5853 37.0764 32.8173 35.5234 34.3703L38.3518 37.1987C39.5334 36.0171 40.9362 35.0798 42.48 34.4403L40.9493 30.7448ZM35.5234 34.3703C33.9703 35.9233 32.7384 37.7671 31.8979 39.7962L35.5934 41.327C36.2329 39.7831 37.1702 38.3803 38.3518 37.1987L35.5234 34.3703ZM31.8979 39.7962C31.5449 40.6483 31.2639 41.5261 31.0567 42.4204L34.9534 43.3235C35.1111 42.6431 35.3249 41.9753 35.5934 41.327L31.8979 39.7962ZM33.005 40.8719H30.25V44.8719H33.005V40.8719ZM28.25 42.8719V48.5719H32.25V42.8719H28.25ZM30.25 50.5719H35.9499V46.5719H30.25V50.5719ZM37.9499 48.5719V42.8719H33.9499V48.5719H37.9499ZM35.9499 40.8719H33.9782V44.8719H35.9499V40.8719ZM35.9191 43.3545C36.06 42.7878 36.2432 42.2311 36.4677 41.6891L32.7722 40.1584C32.4715 40.8844 32.2261 41.6302 32.0373 42.3893L35.9191 43.3545ZM36.4677 41.6891C37.0596 40.2601 37.9272 38.9616 39.021 37.8679L36.1925 35.0394C34.7274 36.5046 33.5651 38.244 32.7722 40.1584L36.4677 41.6891ZM39.021 37.8679C40.1147 36.7741 41.4132 35.9065 42.8422 35.3146L41.3115 31.6191C39.3971 32.412 37.6577 33.5743 36.1925 35.0394L39.021 37.8679ZM42.8422 35.3146C43.513 35.0367 44.2065 34.8222 44.9135 34.6727L44.0862 30.7592C43.1391 30.9594 42.2101 31.2469 41.3115 31.6191L42.8422 35.3146ZM46.4999 34.322V32.716H42.4999V34.322H46.4999ZM50.1998 32.322H44.4999V36.322H50.1998V32.322ZM48.1998 32.716V34.322H52.1998V32.716H48.1998ZM49.7861 34.6728C50.493 34.8222 51.1863 35.0368 51.8571 35.3146L53.3878 31.6191C52.4893 31.2469 51.5605 30.9595 50.6135 30.7593L49.7861 34.6728ZM51.8571 35.3146C53.2861 35.9065 54.5846 36.7741 55.6783 37.8679L58.5067 35.0394C57.0416 33.5743 55.3022 32.412 53.3878 31.6191L51.8571 35.3146ZM55.6783 37.8679C56.7721 38.9616 57.6397 40.2601 58.2316 41.6891L61.9271 40.1584C61.1342 38.244 59.9719 36.5046 58.5067 35.0394L55.6783 37.8679ZM58.2316 41.6891C58.4561 42.2311 58.6392 42.7878 58.7802 43.3545L62.662 42.3893C62.4732 41.6302 62.2278 40.8844 61.9271 40.1584L58.2316 41.6891ZM58.7497 44.8719H60.7211V40.8719H58.7497V44.8719ZM60.7497 48.5719V42.8719H56.7497V48.5719H60.7497ZM64.4497 46.5719H58.7497V50.5719H64.4497V46.5719ZM62.4497 42.8719V48.5719H66.4497V42.8719H62.4497ZM61.6943 44.8719H64.4497V40.8719H61.6943V44.8719ZM63.6426 42.4204C63.4354 41.5261 63.1543 40.6483 62.8014 39.7962L59.1059 41.327C59.3744 41.9753 59.5882 42.6431 59.7459 43.3235L63.6426 42.4204ZM62.8014 39.7962C61.9609 37.7671 60.7289 35.9233 59.1759 34.3703L56.3475 37.1987C57.5291 38.3803 58.4664 39.7831 59.1059 41.327L62.8014 39.7962ZM59.1759 34.3703C57.6229 32.8173 55.7791 31.5853 53.75 30.7448L52.2192 34.4403C53.7631 35.0798 55.1659 36.0171 56.3475 37.1987L59.1759 34.3703ZM53.75 30.7448C52.7273 30.3212 51.6677 30.0012 50.5869 29.788L49.8127 33.7124C50.635 33.8746 51.4412 34.118 52.2192 34.4403L53.75 30.7448ZM48.1998 28.6221V31.7502H52.1998V28.6221H48.1998Z" fill="white" fill-opacity="0.14" mask="url(#path-12-inside-2_2284_20758)"/>
</g>
<g filter="url(#filter8_d_2284_20758)">
<path fill-rule="evenodd" clip-rule="evenodd" d="M45.6399 38.0948V44.3638C44.9584 44.758 44.5 45.4948 44.5 46.3387C44.5 47.5979 45.5207 48.6187 46.7799 48.6187C48.0391 48.6187 49.0599 47.5979 49.0599 46.3387C49.0599 45.4948 48.6014 44.7579 47.9199 44.3637V38.0942L55.9 52.2035C55.6945 52.3092 55.439 52.42 55.1524 52.5444C53.4815 53.2693 50.7554 54.4519 50.7554 57.7387H42.8047C42.8047 54.4519 40.0787 53.2693 38.4078 52.5444C38.1212 52.42 37.8656 52.3092 37.6602 52.2035L45.6399 38.0948Z" fill="url(#paint10_linear_2284_20758)" shape-rendering="crispEdges"/>
<path d="M45.6399 38.0948H46.1399V36.1951L45.2047 37.8486L45.6399 38.0948ZM45.6399 44.3638L45.8903 44.7966L46.1399 44.6521V44.3638H45.6399ZM47.9199 44.3637H47.4199V44.6521L47.6695 44.7965L47.9199 44.3637ZM47.9199 38.0942L48.3551 37.8481L47.4199 36.1946V38.0942H47.9199ZM55.9 52.2035L56.1288 52.648L56.5913 52.4101L56.3352 51.9573L55.9 52.2035ZM55.1524 52.5444L54.9534 52.0857L54.9534 52.0857L55.1524 52.5444ZM50.7554 57.7387V58.2387H51.2554V57.7387H50.7554ZM42.8047 57.7387H42.3047V58.2387H42.8047V57.7387ZM38.4078 52.5444L38.6068 52.0857L38.6068 52.0857L38.4078 52.5444ZM37.6602 52.2035L37.2249 51.9573L36.9689 52.4101L37.4314 52.648L37.6602 52.2035ZM45.1399 38.0948V44.3638H46.1399V38.0948H45.1399ZM45.3895 43.931C44.5599 44.4109 44 45.3091 44 46.3387H45C45 45.6805 45.357 45.1051 45.8903 44.7966L45.3895 43.931ZM44 46.3387C44 47.874 45.2446 49.1187 46.7799 49.1187V48.1187C45.7969 48.1187 45 47.3217 45 46.3387H44ZM46.7799 49.1187C48.3153 49.1187 49.5599 47.874 49.5599 46.3387H48.5599C48.5599 47.3217 47.763 48.1187 46.7799 48.1187V49.1187ZM49.5599 46.3387C49.5599 45.3091 48.9999 44.4108 48.1703 43.9309L47.6695 44.7965C48.2029 45.105 48.5599 45.6805 48.5599 46.3387H49.5599ZM48.4199 44.3637V38.0942H47.4199V44.3637H48.4199ZM47.4847 38.3404L55.4648 52.4496L56.3352 51.9573L48.3551 37.8481L47.4847 38.3404ZM55.6712 51.7589C55.4836 51.8554 55.245 51.9592 54.9534 52.0857L55.3513 53.0031C55.6329 52.8809 55.9055 52.7629 56.1288 52.648L55.6712 51.7589ZM54.9534 52.0857C53.3251 52.7921 50.2554 54.0886 50.2554 57.7387H51.2554C51.2554 54.8152 53.6378 53.7465 55.3513 53.0031L54.9534 52.0857ZM50.7554 57.2387H42.8047V58.2387H50.7554V57.2387ZM43.3047 57.7387C43.3047 54.0886 40.235 52.7921 38.6068 52.0857L38.2088 53.0031C39.9223 53.7465 42.3047 54.8152 42.3047 57.7387H43.3047ZM38.6068 52.0857C38.3151 51.9592 38.0765 51.8554 37.8889 51.7589L37.4314 52.648C37.6546 52.7629 37.9272 52.8809 38.2088 53.0031L38.6068 52.0857ZM38.0954 52.4496L46.0751 38.341L45.2047 37.8486L37.2249 51.9573L38.0954 52.4496Z" fill="white" fill-opacity="0.14"/>
</g>
<path d="M38.8 59.7388C38.8 58.6342 39.6955 57.7388 40.8 57.7388H52.7599C53.8645 57.7388 54.7599 58.6342 54.7599 59.7388V69.1387H38.8V59.7388Z" fill="url(#paint11_linear_2284_20758)"/>
</g>
<defs>
<filter id="filter0_d_2284_20758" x="-12" y="-8" width="112" height="112" filterUnits="userSpaceOnUse" color-interpolation-filters="sRGB">
<feFlood flood-opacity="0" result="BackgroundImageFix"/>
<feColorMatrix in="SourceAlpha" type="matrix" values="0 0 0 0 0 0 0 0 0 0 0 0 0 0 0 0 0 0 127 0" result="hardAlpha"/>
<feOffset dy="8"/>
<feGaussianBlur stdDeviation="8"/>
<feComposite in2="hardAlpha" operator="out"/>
<feColorMatrix type="matrix" values="0 0 0 0 0.227451 0 0 0 0 0.482353 0 0 0 0 0.835294 0 0 0 0.4 0"/>
<feBlend mode="normal" in2="BackgroundImageFix" result="effect1_dropShadow_2284_20758"/>
<feBlend mode="normal" in="SourceGraphic" in2="effect1_dropShadow_2284_20758" result="shape"/>
</filter>
<filter id="filter1_bi_2284_20758" x="19.2002" y="14.2002" width="56.2996" height="44.8994" filterUnits="userSpaceOnUse" color-interpolation-filters="sRGB">
<feFlood flood-opacity="0" result="BackgroundImageFix"/>
<feGaussianBlur in="BackgroundImage" stdDeviation="1"/>
<feComposite in2="SourceAlpha" operator="in" result="effect1_backgroundBlur_2284_20758"/>
<feBlend mode="normal" in="SourceGraphic" in2="effect1_backgroundBlur_2284_20758" result="shape"/>
<feColorMatrix in="SourceAlpha" type="matrix" values="0 0 0 0 0 0 0 0 0 0 0 0 0 0 0 0 0 0 127 0" result="hardAlpha"/>
<feOffset/>
<feGaussianBlur stdDeviation="2"/>
<feComposite in2="hardAlpha" operator="arithmetic" k2="-1" k3="1"/>
<feColorMatrix type="matrix" values="0 0 0 0 1 0 0 0 0 1 0 0 0 0 1 0 0 0 0.63 0"/>
<feBlend mode="normal" in2="shape" result="effect2_innerShadow_2284_20758"/>
</filter>
<filter id="filter2_bi_2284_20758" x="19.2002" y="8.5" width="56.2996" height="15.2598" filterUnits="userSpaceOnUse" color-interpolation-filters="sRGB">
<feFlood flood-opacity="0" result="BackgroundImageFix"/>
<feGaussianBlur in="BackgroundImage" stdDeviation="1"/>
<feComposite in2="SourceAlpha" operator="in" result="effect1_backgroundBlur_2284_20758"/>
<feBlend mode="normal" in="SourceGraphic" in2="effect1_backgroundBlur_2284_20758" result="shape"/>
<feColorMatrix in="SourceAlpha" type="matrix" values="0 0 0 0 0 0 0 0 0 0 0 0 0 0 0 0 0 0 127 0" result="hardAlpha"/>
<feOffset/>
<feGaussianBlur stdDeviation="2"/>
<feComposite in2="hardAlpha" operator="arithmetic" k2="-1" k3="1"/>
<feColorMatrix type="matrix" values="0 0 0 0 1 0 0 0 0 1 0 0 0 0 1 0 0 0 0.63 0"/>
<feBlend mode="normal" in2="shape" result="effect2_innerShadow_2284_20758"/>
</filter>
<filter id="filter3_d_2284_20758" x="53.3994" y="14.4199" width="5.91992" height="5.91992" filterUnits="userSpaceOnUse" color-interpolation-filters="sRGB">
<feFlood flood-opacity="0" result="BackgroundImageFix"/>
<feColorMatrix in="SourceAlpha" type="matrix" values="0 0 0 0 0 0 0 0 0 0 0 0 0 0 0 0 0 0 127 0" result="hardAlpha"/>
<feOffset dx="-2" dy="2"/>
<feGaussianBlur stdDeviation="0.25"/>
<feComposite in2="hardAlpha" operator="out"/>
<feColorMatrix type="matrix" values="0 0 0 0 0.227451 0 0 0 0 0.482353 0 0 0 0 0.835294 0 0 0 0.4 0"/>
<feBlend mode="normal" in2="BackgroundImageFix" result="effect1_dropShadow_2284_20758"/>
<feBlend mode="normal" in="SourceGraphic" in2="effect1_dropShadow_2284_20758" result="shape"/>
</filter>
<filter id="filter4_d_2284_20758" x="57.9592" y="14.4199" width="5.91992" height="5.91992" filterUnits="userSpaceOnUse" color-interpolation-filters="sRGB">
<feFlood flood-opacity="0" result="BackgroundImageFix"/>
<feColorMatrix in="SourceAlpha" type="matrix" values="0 0 0 0 0 0 0 0 0 0 0 0 0 0 0 0 0 0 127 0" result="hardAlpha"/>
<feOffset dx="-2" dy="2"/>
<feGaussianBlur stdDeviation="0.25"/>
<feComposite in2="hardAlpha" operator="out"/>
<feColorMatrix type="matrix" values="0 0 0 0 0.227451 0 0 0 0 0.482353 0 0 0 0 0.835294 0 0 0 0.4 0"/>
<feBlend mode="normal" in2="BackgroundImageFix" result="effect1_dropShadow_2284_20758"/>
<feBlend mode="normal" in="SourceGraphic" in2="effect1_dropShadow_2284_20758" result="shape"/>
</filter>
<filter id="filter5_d_2284_20758" x="62.5198" y="14.4199" width="5.91992" height="5.91992" filterUnits="userSpaceOnUse" color-interpolation-filters="sRGB">
<feFlood flood-opacity="0" result="BackgroundImageFix"/>
<feColorMatrix in="SourceAlpha" type="matrix" values="0 0 0 0 0 0 0 0 0 0 0 0 0 0 0 0 0 0 127 0" result="hardAlpha"/>
<feOffset dx="-2" dy="2"/>
<feGaussianBlur stdDeviation="0.25"/>
<feComposite in2="hardAlpha" operator="out"/>
<feColorMatrix type="matrix" values="0 0 0 0 0.227451 0 0 0 0 0.482353 0 0 0 0 0.835294 0 0 0 0.4 0"/>
<feBlend mode="normal" in2="BackgroundImageFix" result="effect1_dropShadow_2284_20758"/>
<feBlend mode="normal" in="SourceGraphic" in2="effect1_dropShadow_2284_20758" result="shape"/>
</filter>
<filter id="filter6_d_2284_20758" x="24.8999" y="28.6221" width="42.3999" height="8.2002" filterUnits="userSpaceOnUse" color-interpolation-filters="sRGB">
<feFlood flood-opacity="0" result="BackgroundImageFix"/>
<feColorMatrix in="SourceAlpha" type="matrix" values="0 0 0 0 0 0 0 0 0 0 0 0 0 0 0 0 0 0 127 0" result="hardAlpha"/>
<feOffset dx="-2" dy="2"/>
<feGaussianBlur stdDeviation="0.25"/>
<feComposite in2="hardAlpha" operator="out"/>
<feColorMatrix type="matrix" values="0 0 0 0 0.227451 0 0 0 0 0.482353 0 0 0 0 0.835294 0 0 0 0.4 0"/>
<feBlend mode="normal" in2="BackgroundImageFix" result="effect1_dropShadow_2284_20758"/>
<feBlend mode="normal" in="SourceGraphic" in2="effect1_dropShadow_2284_20758" result="shape"/>
</filter>
<filter id="filter7_d_2284_20758" x="27.75" y="28.6221" width="36.6997" height="22.4497" filterUnits="userSpaceOnUse" color-interpolation-filters="sRGB">
<feFlood flood-opacity="0" result="BackgroundImageFix"/>
<feColorMatrix in="SourceAlpha" type="matrix" values="0 0 0 0 0 0 0 0 0 0 0 0 0 0 0 0 0 0 127 0" result="hardAlpha"/>
<feOffset dx="-2" dy="2"/>
<feGaussianBlur stdDeviation="0.25"/>
<feComposite in2="hardAlpha" operator="out"/>
<feColorMatrix type="matrix" values="0 0 0 0 0.227451 0 0 0 0 0.482353 0 0 0 0 0.835294 0 0 0 0.4 0"/>
<feBlend mode="normal" in2="BackgroundImageFix" result="effect1_dropShadow_2284_20758"/>
<feBlend mode="normal" in="SourceGraphic" in2="effect1_dropShadow_2284_20758" result="shape"/>
</filter>
<filter id="filter8_d_2284_20758" x="34.469" y="36.1943" width="22.1223" height="24.5444" filterUnits="userSpaceOnUse" color-interpolation-filters="sRGB">
<feFlood flood-opacity="0" result="BackgroundImageFix"/>
<feColorMatrix in="SourceAlpha" type="matrix" values="0 0 0 0 0 0 0 0 0 0 0 0 0 0 0 0 0 0 127 0" result="hardAlpha"/>
<feOffset dx="-2" dy="2"/>
<feGaussianBlur stdDeviation="0.25"/>
<feComposite in2="hardAlpha" operator="out"/>
<feColorMatrix type="matrix" values="0 0 0 0 0.227451 0 0 0 0 0.482353 0 0 0 0 0.835294 0 0 0 0.4 0"/>
<feBlend mode="normal" in2="BackgroundImageFix" result="effect1_dropShadow_2284_20758"/>
<feBlend mode="normal" in="SourceGraphic" in2="effect1_dropShadow_2284_20758" result="shape"/>
</filter>
<linearGradient id="paint0_linear_2284_20758" x1="6.51795" y1="41.5403" x2="18.7973" y2="8.19132" gradientUnits="userSpaceOnUse">
<stop stop-color="#3A7BD5"/>
<stop offset="1" stop-color="#00D2FF"/>
</linearGradient>
<linearGradient id="paint1_linear_2284_20758" x1="47.3499" y1="16.7002" x2="47.3499" y2="57.5208" gradientUnits="userSpaceOnUse">
<stop stop-color="#3A7BD5" stop-opacity="0.42"/>
<stop offset="1" stop-color="#00D2FF" stop-opacity="0.42"/>
</linearGradient>
<linearGradient id="paint2_linear_2284_20758" x1="32.2517" y1="23.9922" x2="50.5453" y2="64.6066" gradientUnits="userSpaceOnUse">
<stop offset="0.331091" stop-color="white" stop-opacity="0.26"/>
<stop offset="1" stop-color="#3A7BD5" stop-opacity="0.16"/>
</linearGradient>
<linearGradient id="paint3_linear_2284_20758" x1="47.3499" y1="11" x2="47.3499" y2="21.4967" gradientUnits="userSpaceOnUse">
<stop stop-color="#3A7BD5" stop-opacity="0.42"/>
<stop offset="1" stop-color="#00D2FF" stop-opacity="0.42"/>
</linearGradient>
<linearGradient id="paint4_linear_2284_20758" x1="32.2517" y1="12.8751" x2="33.6874" y2="25.2713" gradientUnits="userSpaceOnUse">
<stop offset="0.331091" stop-color="white" stop-opacity="0.26"/>
<stop offset="1" stop-color="#3A7BD5" stop-opacity="0.16"/>
</linearGradient>
<linearGradient id="paint5_linear_2284_20758" x1="55.8113" y1="16.8947" x2="59.4492" y2="16.8762" gradientUnits="userSpaceOnUse">
<stop stop-color="#C6F5FF"/>
<stop offset="1" stop-color="#FEFCFF"/>
</linearGradient>
<linearGradient id="paint6_linear_2284_20758" x1="60.3711" y1="16.8947" x2="64.009" y2="16.8762" gradientUnits="userSpaceOnUse">
<stop stop-color="#C6F5FF"/>
<stop offset="1" stop-color="#FEFCFF"/>
</linearGradient>
<linearGradient id="paint7_linear_2284_20758" x1="64.9316" y1="16.8947" x2="68.5696" y2="16.8762" gradientUnits="userSpaceOnUse">
<stop stop-color="#C6F5FF"/>
<stop offset="1" stop-color="#FEFCFF"/>
</linearGradient>
<linearGradient id="paint8_linear_2284_20758" x1="26.3713" y1="32.7469" x2="68.7621" y2="31.2411" gradientUnits="userSpaceOnUse">
<stop stop-color="#C6F5FF"/>
<stop offset="1" stop-color="#FEFCFF"/>
</linearGradient>
<linearGradient id="paint9_linear_2284_20758" x1="29.3684" y1="43.0582" x2="65.7462" y2="42.7418" gradientUnits="userSpaceOnUse">
<stop stop-color="#C6F5FF"/>
<stop offset="1" stop-color="#FEFCFF"/>
</linearGradient>
<linearGradient id="paint10_linear_2284_20758" x1="37.19" y1="52.3095" x2="56.5925" y2="52.2181" gradientUnits="userSpaceOnUse">
<stop stop-color="#C6F5FF"/>
<stop offset="1" stop-color="#FEFCFF"/>
</linearGradient>
<linearGradient id="paint11_linear_2284_20758" x1="35.8328" y1="63.6717" x2="38.2568" y2="55.178" gradientUnits="userSpaceOnUse">
<stop stop-color="#3A7BD5"/>
<stop offset="1" stop-color="#00D2FF"/>
</linearGradient>
</defs>
</svg>
