<svg width="96" height="95" viewBox="0 0 96 95" fill="none" xmlns="http://www.w3.org/2000/svg">
<g filter="url(#filter0_d_2284_20759)">
<rect x="14.3489" y="30.4062" width="51" height="47" rx="6" transform="rotate(-25.6023 14.3489 30.4062)" fill="url(#paint0_linear_2284_20759)"/>
<g filter="url(#filter1_bi_2284_20759)">
<path d="M27.7002 21.2601H34.5401V18.7002C34.5401 17.5956 35.4356 16.7002 36.5401 16.7002H40.9374C42.6676 16.7002 44.3136 17.4471 45.4529 18.7492L45.8394 19.1909C46.989 20.5047 48.6538 21.2527 50.3995 21.2397L78.9997 21.0267V50.5998C78.9997 53.9135 76.3134 56.5998 72.9997 56.5998H33.7002C30.3865 56.5998 27.7002 53.9135 27.7002 50.5998V21.2601Z" fill="url(#paint1_linear_2284_20759)"/>
<path d="M27.7002 21.2601H34.5401V18.7002C34.5401 17.5956 35.4356 16.7002 36.5401 16.7002H40.9374C42.6676 16.7002 44.3136 17.4471 45.4529 18.7492L45.8394 19.1909C46.989 20.5047 48.6538 21.2527 50.3995 21.2397L78.9997 21.0267V50.5998C78.9997 53.9135 76.3134 56.5998 72.9997 56.5998H33.7002C30.3865 56.5998 27.7002 53.9135 27.7002 50.5998V21.2601Z" stroke="url(#paint2_linear_2284_20759)"/>
</g>
<g filter="url(#filter2_bi_2284_20759)">
<path d="M27.7002 17C27.7002 13.6863 30.3865 11 33.7002 11H72.9997C76.3134 11 78.9997 13.6863 78.9997 17V21.2599H47.65L45.8847 19.1801C44.7447 17.8369 43.072 17.0627 41.3103 17.0627H36.3501C35.2456 17.0627 34.3501 17.9581 34.3501 19.0627V21.2599H27.7002V17Z" fill="url(#paint3_linear_2284_20759)"/>
<path d="M27.7002 17C27.7002 13.6863 30.3865 11 33.7002 11H72.9997C76.3134 11 78.9997 13.6863 78.9997 17V21.2599H47.65L45.8847 19.1801C44.7447 17.8369 43.072 17.0627 41.3103 17.0627H36.3501C35.2456 17.0627 34.3501 17.9581 34.3501 19.0627V21.2599H27.7002V17Z" stroke="url(#paint4_linear_2284_20759)"/>
</g>
<g filter="url(#filter3_d_2284_20759)">
<circle cx="63.6094" cy="16.1299" r="1.70998" fill="url(#paint5_linear_2284_20759)"/>
<circle cx="63.6094" cy="16.1299" r="1.20998" stroke="white" stroke-opacity="0.14"/>
</g>
<g filter="url(#filter4_d_2284_20759)">
<circle cx="68.1692" cy="16.1299" r="1.70998" fill="url(#paint6_linear_2284_20759)"/>
<circle cx="68.1692" cy="16.1299" r="1.20998" stroke="white" stroke-opacity="0.14"/>
</g>
<g filter="url(#filter5_d_2284_20759)">
<circle cx="72.7298" cy="16.1299" r="1.70998" fill="url(#paint7_linear_2284_20759)"/>
<circle cx="72.7298" cy="16.1299" r="1.20998" stroke="white" stroke-opacity="0.14"/>
</g>
<g filter="url(#filter6_d_2284_20759)">
<mask id="path-10-inside-1_2284_20759" fill="white">
<path fill-rule="evenodd" clip-rule="evenodd" d="M38.85 25.0001C40.424 25.0001 41.6999 26.2761 41.6999 27.8501C41.6999 29.2623 40.6728 30.4346 39.3248 30.6607V59.2393C40.6728 59.4653 41.7 60.6377 41.7 62.0499C41.7 63.6239 40.4241 64.8999 38.8501 64.8999C37.2761 64.8999 36.0001 63.6239 36.0001 62.0499C36.0001 60.6379 37.027 59.4657 38.3748 59.2394V30.6606C37.027 30.4344 36 29.2622 36 27.8501C36 26.2761 37.276 25.0001 38.85 25.0001Z"/>
</mask>
<path fill-rule="evenodd" clip-rule="evenodd" d="M38.85 25.0001C40.424 25.0001 41.6999 26.2761 41.6999 27.8501C41.6999 29.2623 40.6728 30.4346 39.3248 30.6607V59.2393C40.6728 59.4653 41.7 60.6377 41.7 62.0499C41.7 63.6239 40.4241 64.8999 38.8501 64.8999C37.2761 64.8999 36.0001 63.6239 36.0001 62.0499C36.0001 60.6379 37.027 59.4657 38.3748 59.2394V30.6606C37.027 30.4344 36 29.2622 36 27.8501C36 26.2761 37.276 25.0001 38.85 25.0001Z" fill="url(#paint8_linear_2284_20759)"/>
<path d="M39.3248 30.6607L39.1594 29.6744L38.3248 29.8144V30.6607H39.3248ZM39.3248 59.2393H38.3248V60.0856L39.1594 60.2256L39.3248 59.2393ZM38.3748 59.2394L38.5403 60.2256L39.3748 60.0855V59.2394H38.3748ZM38.3748 30.6606H39.3748V29.8144L38.5403 29.6744L38.3748 30.6606ZM42.6999 27.8501C42.6999 25.7238 40.9763 24.0001 38.85 24.0001V26.0001C39.8717 26.0001 40.6999 26.8283 40.6999 27.8501H42.6999ZM39.4902 31.6469C41.3119 31.3414 42.6999 29.7588 42.6999 27.8501H40.6999C40.6999 28.7658 40.0336 29.5278 39.1594 29.6744L39.4902 31.6469ZM38.3248 30.6607V59.2393H40.3248V30.6607H38.3248ZM42.7 62.0499C42.7 60.1411 41.3119 58.5585 39.4901 58.2531L39.1594 60.2256C40.0337 60.3721 40.7 61.1342 40.7 62.0499H42.7ZM38.8501 65.8999C40.9764 65.8999 42.7 64.1762 42.7 62.0499H40.7C40.7 63.0716 39.8718 63.8999 38.8501 63.8999V65.8999ZM35.0001 62.0499C35.0001 64.1762 36.7238 65.8999 38.8501 65.8999V63.8999C37.8284 63.8999 37.0001 63.0716 37.0001 62.0499H35.0001ZM38.2092 58.2532C36.3878 58.559 35.0001 60.1414 35.0001 62.0499H37.0001C37.0001 61.1343 37.6663 60.3724 38.5403 60.2256L38.2092 58.2532ZM39.3748 59.2394V30.6606H37.3748V59.2394H39.3748ZM35 27.8501C35 29.7586 36.3878 31.3411 38.2093 31.6468L38.5403 29.6744C37.6662 29.5277 37 28.7657 37 27.8501H35ZM38.85 24.0001C36.7237 24.0001 35 25.7238 35 27.8501H37C37 26.8283 37.8283 26.0001 38.85 26.0001V24.0001Z" fill="white" fill-opacity="0.14" mask="url(#path-10-inside-1_2284_20759)"/>
</g>
<g filter="url(#filter7_d_2284_20759)">
<mask id="path-12-inside-2_2284_20759" fill="white">
<path fill-rule="evenodd" clip-rule="evenodd" d="M50.4999 28.6221H56.1998V34.322H50.4999V32.716C49.6728 32.8908 48.8616 33.1418 48.0768 33.4669C46.4051 34.1593 44.8862 35.1742 43.6067 36.4537C42.3273 37.7331 41.3124 39.2521 40.6199 40.9237C40.3573 41.5577 40.1431 42.209 39.9782 42.8719H41.9499V48.5719H36.25V42.8719H39.005C39.1875 42.0846 39.4349 41.3118 39.7456 40.5616C40.4856 38.7751 41.5703 37.1518 42.9376 35.7845C44.3049 34.4172 45.9282 33.3326 47.7147 32.5926C48.6152 32.2196 49.5482 31.9378 50.4999 31.7501V28.6221Z"/>
</mask>
<path fill-rule="evenodd" clip-rule="evenodd" d="M50.4999 28.6221H56.1998V34.322H50.4999V32.716C49.6728 32.8908 48.8616 33.1418 48.0768 33.4669C46.4051 34.1593 44.8862 35.1742 43.6067 36.4537C42.3273 37.7331 41.3124 39.2521 40.6199 40.9237C40.3573 41.5577 40.1431 42.209 39.9782 42.8719H41.9499V48.5719H36.25V42.8719H39.005C39.1875 42.0846 39.4349 41.3118 39.7456 40.5616C40.4856 38.7751 41.5703 37.1518 42.9376 35.7845C44.3049 34.4172 45.9282 33.3326 47.7147 32.5926C48.6152 32.2196 49.5482 31.9378 50.4999 31.7501V28.6221Z" fill="url(#paint9_linear_2284_20759)"/>
<path d="M56.1998 28.6221H58.1998V26.6221H56.1998V28.6221ZM50.4999 28.6221V26.6221H48.4999V28.6221H50.4999ZM56.1998 34.322V36.322H58.1998V34.322H56.1998ZM50.4999 34.322H48.4999V36.322H50.4999V34.322ZM50.4999 32.716H52.4999V30.249L50.0862 30.7592L50.4999 32.716ZM48.0768 33.4669L47.3115 31.6191L47.3115 31.6191L48.0768 33.4669ZM43.6067 36.4537L42.1925 35.0394L42.1925 35.0394L43.6067 36.4537ZM40.6199 40.9237L42.4677 41.6891L42.4677 41.6891L40.6199 40.9237ZM39.9782 42.8719L38.0373 42.3893L37.4201 44.8719H39.9782V42.8719ZM41.9499 42.8719H43.9499V40.8719H41.9499V42.8719ZM41.9499 48.5719V50.5719H43.9499V48.5719H41.9499ZM36.25 48.5719H34.25V50.5719H36.25V48.5719ZM36.25 42.8719V40.8719H34.25V42.8719H36.25ZM39.005 42.8719V44.8719H40.5945L40.9534 43.3235L39.005 42.8719ZM39.7456 40.5616L37.8979 39.7962L37.8979 39.7962L39.7456 40.5616ZM42.9376 35.7845L44.3518 37.1987L44.3518 37.1987L42.9376 35.7845ZM47.7147 32.5926L48.48 34.4403L48.48 34.4403L47.7147 32.5926ZM50.4999 31.7501L50.8869 33.7123L52.4999 33.3941V31.7501H50.4999ZM56.1998 26.6221H50.4999V30.6221H56.1998V26.6221ZM58.1998 34.322V28.6221H54.1998V34.322H58.1998ZM50.4999 36.322H56.1998V32.322H50.4999V36.322ZM48.4999 32.716V34.322H52.4999V32.716H48.4999ZM48.8422 35.3146C49.513 35.0367 50.2065 34.8222 50.9135 34.6727L50.0862 30.7592C49.1391 30.9594 48.2101 31.2469 47.3115 31.6191L48.8422 35.3146ZM45.021 37.8679C46.1147 36.7741 47.4132 35.9065 48.8422 35.3146L47.3115 31.6191C45.3971 32.412 43.6577 33.5743 42.1925 35.0394L45.021 37.8679ZM42.4677 41.6891C43.0596 40.2601 43.9272 38.9616 45.021 37.8679L42.1925 35.0394C40.7274 36.5046 39.5651 38.244 38.7722 40.1584L42.4677 41.6891ZM41.9191 43.3545C42.06 42.7878 42.2432 42.2311 42.4677 41.6891L38.7722 40.1584C38.4715 40.8844 38.2261 41.6302 38.0373 42.3893L41.9191 43.3545ZM41.9499 40.8719H39.9782V44.8719H41.9499V40.8719ZM43.9499 48.5719V42.8719H39.9499V48.5719H43.9499ZM36.25 50.5719H41.9499V46.5719H36.25V50.5719ZM34.25 42.8719V48.5719H38.25V42.8719H34.25ZM39.005 40.8719H36.25V44.8719H39.005V40.8719ZM37.8979 39.7962C37.5449 40.6483 37.2639 41.5261 37.0567 42.4204L40.9534 43.3235C41.1111 42.6431 41.3249 41.9753 41.5934 41.327L37.8979 39.7962ZM41.5234 34.3703C39.9703 35.9233 38.7384 37.7671 37.8979 39.7962L41.5934 41.327C42.2329 39.7831 43.1702 38.3803 44.3518 37.1987L41.5234 34.3703ZM46.9493 30.7448C44.9202 31.5853 43.0764 32.8173 41.5234 34.3703L44.3518 37.1987C45.5334 36.0171 46.9362 35.0798 48.48 34.4403L46.9493 30.7448ZM50.1128 29.7879C49.0319 30.0011 47.9721 30.3212 46.9493 30.7448L48.48 34.4403C49.2582 34.118 50.0645 33.8745 50.8869 33.7123L50.1128 29.7879ZM48.4999 28.6221V31.7501H52.4999V28.6221H48.4999Z" fill="white" fill-opacity="0.14" mask="url(#path-12-inside-2_2284_20759)"/>
</g>
<g filter="url(#filter8_d_2284_20759)">
<path fill-rule="evenodd" clip-rule="evenodd" d="M43.2058 48.7201L48.5336 52.0238C48.5095 52.8107 48.8941 53.5887 49.6113 54.0334C50.6814 54.697 52.0869 54.3675 52.7505 53.2973C53.4141 52.2272 53.0845 50.8217 52.0144 50.1581C51.2971 49.7133 50.4293 49.7147 49.7351 50.0861L44.4069 46.7821L60.6034 47.4357C60.5849 47.666 60.5445 47.9417 60.4991 48.2508C60.2346 50.0528 59.803 52.9928 62.5964 54.725L58.4063 61.482C55.613 59.7498 53.1713 61.4434 51.6746 62.4814C51.4179 62.6594 51.189 62.8182 50.9909 62.9371L43.2058 48.7201Z" fill="url(#paint10_linear_2284_20759)" shape-rendering="crispEdges"/>
<path d="M43.2058 48.7201L43.4693 48.2951L41.8549 47.294L42.7673 48.9602L43.2058 48.7201ZM48.5336 52.0238L49.0334 52.0391L49.0422 51.7509L48.7971 51.5989L48.5336 52.0238ZM49.7351 50.0861L49.4716 50.5111L49.7167 50.663L49.971 50.527L49.7351 50.0861ZM44.4069 46.7821L44.4271 46.2825L42.529 46.2059L44.1434 47.207L44.4069 46.7821ZM60.6034 47.4357L61.1018 47.4756L61.1432 46.9571L60.6235 46.9361L60.6034 47.4357ZM60.4991 48.2508L60.0044 48.1782L60.0044 48.1782L60.4991 48.2508ZM62.5964 54.725L63.0213 54.9885L63.2848 54.5636L62.8599 54.3001L62.5964 54.725ZM58.4063 61.482L58.1428 61.9069L58.5678 62.1704L58.8313 61.7455L58.4063 61.482ZM51.6746 62.4814L51.3897 62.0705L51.3897 62.0705L51.6746 62.4814ZM50.9909 62.9371L50.5524 63.1772L50.8022 63.6334L51.2482 63.3658L50.9909 62.9371ZM42.9423 49.145L48.2701 52.4487L48.7971 51.5989L43.4693 48.2951L42.9423 49.145ZM48.0338 52.0085C48.0045 52.9665 48.4727 53.9158 49.3478 54.4584L49.8748 53.6085C49.3154 53.2616 49.0145 52.655 49.0334 52.0391L48.0338 52.0085ZM49.3478 54.4584C50.6526 55.2675 52.3663 54.8656 53.1754 53.5608L52.3255 53.0338C51.8075 53.8693 50.7102 54.1266 49.8748 53.6085L49.3478 54.4584ZM53.1754 53.5608C53.9845 52.256 53.5827 50.5423 52.2779 49.7332L51.7509 50.583C52.5863 51.1011 52.8436 52.1984 52.3255 53.0338L53.1754 53.5608ZM52.2779 49.7332C51.4028 49.1905 50.3443 49.1931 49.4992 49.6453L49.971 50.527C50.5143 50.2363 51.1915 50.2361 51.7509 50.583L52.2779 49.7332ZM49.9986 49.6612L44.6704 46.3572L44.1434 47.207L49.4716 50.5111L49.9986 49.6612ZM44.3868 47.2817L60.5832 47.9353L60.6235 46.9361L44.4271 46.2825L44.3868 47.2817ZM60.1049 47.3959C60.0881 47.6062 60.0506 47.8636 60.0044 48.1782L60.9938 48.3234C61.0384 48.0197 61.0817 47.7259 61.1018 47.4756L60.1049 47.3959ZM60.0044 48.1782C59.7466 49.9342 59.2308 53.2263 62.3329 55.1499L62.8599 54.3001C60.3753 52.7594 60.7225 50.1714 60.9938 48.3234L60.0044 48.1782ZM62.1714 54.4615L57.9814 61.2185L58.8313 61.7455L63.0213 54.9885L62.1714 54.4615ZM58.6698 61.0571C55.5677 59.1334 52.8481 61.059 51.3897 62.0705L51.9596 62.8922C53.4944 61.8277 55.6582 60.3662 58.1428 61.9069L58.6698 61.0571ZM51.3897 62.0705C51.1285 62.2517 50.9146 62.3998 50.7336 62.5083L51.2482 63.3658C51.4635 63.2366 51.7074 63.0672 51.9596 62.8922L51.3897 62.0705ZM51.4295 62.6969L43.6444 48.4799L42.7673 48.9602L50.5524 63.1772L51.4295 62.6969Z" fill="white" fill-opacity="0.14"/>
</g>
<path d="M57.9959 65.9393C57.0571 65.3571 56.768 64.1243 57.3501 63.1855L63.653 53.0213C64.2351 52.0826 65.468 51.7935 66.4068 52.3756L74.3954 57.3293L65.9845 70.893L57.9959 65.9393Z" fill="url(#paint11_linear_2284_20759)"/>
</g>
<defs>
<filter id="filter0_d_2284_20759" x="-6" y="-8" width="112" height="112" filterUnits="userSpaceOnUse" color-interpolation-filters="sRGB">
<feFlood flood-opacity="0" result="BackgroundImageFix"/>
<feColorMatrix in="SourceAlpha" type="matrix" values="0 0 0 0 0 0 0 0 0 0 0 0 0 0 0 0 0 0 127 0" result="hardAlpha"/>
<feOffset dy="8"/>
<feGaussianBlur stdDeviation="8"/>
<feComposite in2="hardAlpha" operator="out"/>
<feColorMatrix type="matrix" values="0 0 0 0 0.227451 0 0 0 0 0.482353 0 0 0 0 0.835294 0 0 0 0.4 0"/>
<feBlend mode="normal" in2="BackgroundImageFix" result="effect1_dropShadow_2284_20759"/>
<feBlend mode="normal" in="SourceGraphic" in2="effect1_dropShadow_2284_20759" result="shape"/>
</filter>
<filter id="filter1_bi_2284_20759" x="25.2002" y="14.2002" width="56.2996" height="44.8994" filterUnits="userSpaceOnUse" color-interpolation-filters="sRGB">
<feFlood flood-opacity="0" result="BackgroundImageFix"/>
<feGaussianBlur in="BackgroundImage" stdDeviation="1"/>
<feComposite in2="SourceAlpha" operator="in" result="effect1_backgroundBlur_2284_20759"/>
<feBlend mode="normal" in="SourceGraphic" in2="effect1_backgroundBlur_2284_20759" result="shape"/>
<feColorMatrix in="SourceAlpha" type="matrix" values="0 0 0 0 0 0 0 0 0 0 0 0 0 0 0 0 0 0 127 0" result="hardAlpha"/>
<feOffset/>
<feGaussianBlur stdDeviation="2"/>
<feComposite in2="hardAlpha" operator="arithmetic" k2="-1" k3="1"/>
<feColorMatrix type="matrix" values="0 0 0 0 1 0 0 0 0 1 0 0 0 0 1 0 0 0 0.63 0"/>
<feBlend mode="normal" in2="shape" result="effect2_innerShadow_2284_20759"/>
</filter>
<filter id="filter2_bi_2284_20759" x="25.2002" y="8.5" width="56.2996" height="15.2598" filterUnits="userSpaceOnUse" color-interpolation-filters="sRGB">
<feFlood flood-opacity="0" result="BackgroundImageFix"/>
<feGaussianBlur in="BackgroundImage" stdDeviation="1"/>
<feComposite in2="SourceAlpha" operator="in" result="effect1_backgroundBlur_2284_20759"/>
<feBlend mode="normal" in="SourceGraphic" in2="effect1_backgroundBlur_2284_20759" result="shape"/>
<feColorMatrix in="SourceAlpha" type="matrix" values="0 0 0 0 0 0 0 0 0 0 0 0 0 0 0 0 0 0 127 0" result="hardAlpha"/>
<feOffset/>
<feGaussianBlur stdDeviation="2"/>
<feComposite in2="hardAlpha" operator="arithmetic" k2="-1" k3="1"/>
<feColorMatrix type="matrix" values="0 0 0 0 1 0 0 0 0 1 0 0 0 0 1 0 0 0 0.63 0"/>
<feBlend mode="normal" in2="shape" result="effect2_innerShadow_2284_20759"/>
</filter>
<filter id="filter3_d_2284_20759" x="59.3994" y="14.4199" width="5.91992" height="5.91992" filterUnits="userSpaceOnUse" color-interpolation-filters="sRGB">
<feFlood flood-opacity="0" result="BackgroundImageFix"/>
<feColorMatrix in="SourceAlpha" type="matrix" values="0 0 0 0 0 0 0 0 0 0 0 0 0 0 0 0 0 0 127 0" result="hardAlpha"/>
<feOffset dx="-2" dy="2"/>
<feGaussianBlur stdDeviation="0.25"/>
<feComposite in2="hardAlpha" operator="out"/>
<feColorMatrix type="matrix" values="0 0 0 0 0.227451 0 0 0 0 0.482353 0 0 0 0 0.835294 0 0 0 0.4 0"/>
<feBlend mode="normal" in2="BackgroundImageFix" result="effect1_dropShadow_2284_20759"/>
<feBlend mode="normal" in="SourceGraphic" in2="effect1_dropShadow_2284_20759" result="shape"/>
</filter>
<filter id="filter4_d_2284_20759" x="63.9592" y="14.4199" width="5.91992" height="5.91992" filterUnits="userSpaceOnUse" color-interpolation-filters="sRGB">
<feFlood flood-opacity="0" result="BackgroundImageFix"/>
<feColorMatrix in="SourceAlpha" type="matrix" values="0 0 0 0 0 0 0 0 0 0 0 0 0 0 0 0 0 0 127 0" result="hardAlpha"/>
<feOffset dx="-2" dy="2"/>
<feGaussianBlur stdDeviation="0.25"/>
<feComposite in2="hardAlpha" operator="out"/>
<feColorMatrix type="matrix" values="0 0 0 0 0.227451 0 0 0 0 0.482353 0 0 0 0 0.835294 0 0 0 0.4 0"/>
<feBlend mode="normal" in2="BackgroundImageFix" result="effect1_dropShadow_2284_20759"/>
<feBlend mode="normal" in="SourceGraphic" in2="effect1_dropShadow_2284_20759" result="shape"/>
</filter>
<filter id="filter5_d_2284_20759" x="68.5198" y="14.4199" width="5.91992" height="5.91992" filterUnits="userSpaceOnUse" color-interpolation-filters="sRGB">
<feFlood flood-opacity="0" result="BackgroundImageFix"/>
<feColorMatrix in="SourceAlpha" type="matrix" values="0 0 0 0 0 0 0 0 0 0 0 0 0 0 0 0 0 0 127 0" result="hardAlpha"/>
<feOffset dx="-2" dy="2"/>
<feGaussianBlur stdDeviation="0.25"/>
<feComposite in2="hardAlpha" operator="out"/>
<feColorMatrix type="matrix" values="0 0 0 0 0.227451 0 0 0 0 0.482353 0 0 0 0 0.835294 0 0 0 0.4 0"/>
<feBlend mode="normal" in2="BackgroundImageFix" result="effect1_dropShadow_2284_20759"/>
<feBlend mode="normal" in="SourceGraphic" in2="effect1_dropShadow_2284_20759" result="shape"/>
</filter>
<filter id="filter6_d_2284_20759" x="33.5" y="25" width="8.19995" height="42.3999" filterUnits="userSpaceOnUse" color-interpolation-filters="sRGB">
<feFlood flood-opacity="0" result="BackgroundImageFix"/>
<feColorMatrix in="SourceAlpha" type="matrix" values="0 0 0 0 0 0 0 0 0 0 0 0 0 0 0 0 0 0 127 0" result="hardAlpha"/>
<feOffset dx="-2" dy="2"/>
<feGaussianBlur stdDeviation="0.25"/>
<feComposite in2="hardAlpha" operator="out"/>
<feColorMatrix type="matrix" values="0 0 0 0 0.227451 0 0 0 0 0.482353 0 0 0 0 0.835294 0 0 0 0.4 0"/>
<feBlend mode="normal" in2="BackgroundImageFix" result="effect1_dropShadow_2284_20759"/>
<feBlend mode="normal" in="SourceGraphic" in2="effect1_dropShadow_2284_20759" result="shape"/>
</filter>
<filter id="filter7_d_2284_20759" x="33.75" y="28.6221" width="22.4497" height="22.4497" filterUnits="userSpaceOnUse" color-interpolation-filters="sRGB">
<feFlood flood-opacity="0" result="BackgroundImageFix"/>
<feColorMatrix in="SourceAlpha" type="matrix" values="0 0 0 0 0 0 0 0 0 0 0 0 0 0 0 0 0 0 127 0" result="hardAlpha"/>
<feOffset dx="-2" dy="2"/>
<feGaussianBlur stdDeviation="0.25"/>
<feComposite in2="hardAlpha" operator="out"/>
<feColorMatrix type="matrix" values="0 0 0 0 0.227451 0 0 0 0 0.482353 0 0 0 0 0.835294 0 0 0 0.4 0"/>
<feBlend mode="normal" in2="BackgroundImageFix" result="effect1_dropShadow_2284_20759"/>
<feBlend mode="normal" in="SourceGraphic" in2="effect1_dropShadow_2284_20759" result="shape"/>
</filter>
<filter id="filter8_d_2284_20759" x="39.355" y="46.2061" width="23.9299" height="19.9272" filterUnits="userSpaceOnUse" color-interpolation-filters="sRGB">
<feFlood flood-opacity="0" result="BackgroundImageFix"/>
<feColorMatrix in="SourceAlpha" type="matrix" values="0 0 0 0 0 0 0 0 0 0 0 0 0 0 0 0 0 0 127 0" result="hardAlpha"/>
<feOffset dx="-2" dy="2"/>
<feGaussianBlur stdDeviation="0.25"/>
<feComposite in2="hardAlpha" operator="out"/>
<feColorMatrix type="matrix" values="0 0 0 0 0.227451 0 0 0 0 0.482353 0 0 0 0 0.835294 0 0 0 0.4 0"/>
<feBlend mode="normal" in2="BackgroundImageFix" result="effect1_dropShadow_2284_20759"/>
<feBlend mode="normal" in="SourceGraphic" in2="effect1_dropShadow_2284_20759" result="shape"/>
</filter>
<linearGradient id="paint0_linear_2284_20759" x1="4.86683" y1="54.867" x2="17.1462" y2="21.518" gradientUnits="userSpaceOnUse">
<stop stop-color="#3A7BD5"/>
<stop offset="1" stop-color="#00D2FF"/>
</linearGradient>
<linearGradient id="paint1_linear_2284_20759" x1="53.3499" y1="16.7002" x2="53.3499" y2="57.5208" gradientUnits="userSpaceOnUse">
<stop stop-color="#3A7BD5" stop-opacity="0.42"/>
<stop offset="1" stop-color="#00D2FF" stop-opacity="0.42"/>
</linearGradient>
<linearGradient id="paint2_linear_2284_20759" x1="38.2517" y1="23.9922" x2="56.5453" y2="64.6066" gradientUnits="userSpaceOnUse">
<stop offset="0.331091" stop-color="white" stop-opacity="0.26"/>
<stop offset="1" stop-color="#3A7BD5" stop-opacity="0.16"/>
</linearGradient>
<linearGradient id="paint3_linear_2284_20759" x1="53.3499" y1="11" x2="53.3499" y2="21.4967" gradientUnits="userSpaceOnUse">
<stop stop-color="#3A7BD5" stop-opacity="0.42"/>
<stop offset="1" stop-color="#00D2FF" stop-opacity="0.42"/>
</linearGradient>
<linearGradient id="paint4_linear_2284_20759" x1="38.2517" y1="12.8751" x2="39.6874" y2="25.2713" gradientUnits="userSpaceOnUse">
<stop offset="0.331091" stop-color="white" stop-opacity="0.26"/>
<stop offset="1" stop-color="#3A7BD5" stop-opacity="0.16"/>
</linearGradient>
<linearGradient id="paint5_linear_2284_20759" x1="61.8113" y1="16.8947" x2="65.4492" y2="16.8762" gradientUnits="userSpaceOnUse">
<stop stop-color="#C6F5FF"/>
<stop offset="1" stop-color="#FEFCFF"/>
</linearGradient>
<linearGradient id="paint6_linear_2284_20759" x1="66.3711" y1="16.8947" x2="70.009" y2="16.8762" gradientUnits="userSpaceOnUse">
<stop stop-color="#C6F5FF"/>
<stop offset="1" stop-color="#FEFCFF"/>
</linearGradient>
<linearGradient id="paint7_linear_2284_20759" x1="70.9316" y1="16.8947" x2="74.5696" y2="16.8762" gradientUnits="userSpaceOnUse">
<stop stop-color="#C6F5FF"/>
<stop offset="1" stop-color="#FEFCFF"/>
</linearGradient>
<linearGradient id="paint8_linear_2284_20759" x1="40.1248" y1="65.9285" x2="38.619" y2="23.5377" gradientUnits="userSpaceOnUse">
<stop stop-color="#C6F5FF"/>
<stop offset="1" stop-color="#FEFCFF"/>
</linearGradient>
<linearGradient id="paint9_linear_2284_20759" x1="35.7357" y1="43.0582" x2="56.9571" y2="42.9505" gradientUnits="userSpaceOnUse">
<stop stop-color="#C6F5FF"/>
<stop offset="1" stop-color="#FEFCFF"/>
</linearGradient>
<linearGradient id="paint10_linear_2284_20759" x1="50.8332" y1="63.3925" x2="60.9807" y2="46.8549" gradientUnits="userSpaceOnUse">
<stop stop-color="#C6F5FF"/>
<stop offset="1" stop-color="#FEFCFF"/>
</linearGradient>
<linearGradient id="paint11_linear_2284_20759" x1="59.7746" y1="70.5337" x2="53.8336" y2="63.9975" gradientUnits="userSpaceOnUse">
<stop stop-color="#3A7BD5"/>
<stop offset="1" stop-color="#00D2FF"/>
</linearGradient>
</defs>
</svg>
