<svg width="108" height="104" viewBox="0 0 108 104" fill="none" xmlns="http://www.w3.org/2000/svg">
<g filter="url(#filter0_d_2284_20757)">
<path d="M34.5919 13.7464C35.7187 10.0482 39.63 7.96371 43.3282 9.09047L51.3368 11.5305C53.3568 12.146 54.991 13.6404 55.7841 15.5975L57.6263 20.1434C58.4195 22.1004 60.0537 23.5949 62.0737 24.2103L86.6212 31.6895C90.3193 32.8162 92.4039 36.7276 91.2771 40.4258L83.4079 66.2535C82.2811 69.9517 78.3698 72.0362 74.6716 70.9095L28.7555 56.9197C25.0574 55.793 22.9728 51.8816 24.0996 48.1835L34.5919 13.7464Z" fill="url(#paint0_linear_2284_20757)"/>
<g filter="url(#filter1_bi_2284_20757)">
<path d="M16.4804 39.3384C15.512 35.5956 17.7612 31.7765 21.5039 30.8082L29.6091 28.7112C31.6535 28.1823 33.8274 28.6046 35.5251 29.8603L39.4685 32.7771C41.1663 34.0329 43.3401 34.4551 45.3845 33.9262L70.2281 27.4987C73.9709 26.5303 77.79 28.7795 78.7583 32.5222L85.521 58.6616C86.4894 62.4043 84.2402 66.2234 80.4975 67.1917L34.0275 79.2144C30.2848 80.1827 26.4657 77.9336 25.4974 74.1908L16.4804 39.3384Z" fill="url(#paint1_linear_2284_20757)"/>
<path d="M78.2742 32.6475L85.037 58.7868C85.9361 62.2622 83.8477 65.8085 80.3722 66.7077L33.9023 78.7303C30.4269 79.6295 26.8806 77.541 25.9814 74.0656L16.9644 39.2132C16.0653 35.7377 18.1537 32.1914 21.6292 31.2923L29.7343 29.1953C31.6327 28.7042 33.6513 29.0962 35.2278 30.2623L39.1712 33.1791C40.9902 34.5245 43.3194 34.9769 45.5097 34.4102L70.3533 27.9827C73.8288 27.0836 77.3751 29.172 78.2742 32.6475Z" stroke="url(#paint2_linear_2284_20757)"/>
</g>
<g filter="url(#filter2_d_2284_20757)">
<path d="M39.4169 56.1286C42.0903 55.4369 43.6968 52.709 43.0051 50.0356C42.3135 47.3622 39.5856 45.7557 36.9122 46.4473C34.2388 47.139 32.6322 49.8669 33.3239 52.5403C34.0156 55.2137 36.7435 56.8202 39.4169 56.1286Z" fill="url(#paint3_linear_2284_20757)"/>
<path d="M42.7631 50.0982C43.4202 52.638 41.894 55.2295 39.3543 55.8866C36.8145 56.5436 34.223 55.0174 33.5659 52.4777C32.9088 49.938 34.435 47.3465 36.9748 46.6894C39.5145 46.0323 42.106 47.5585 42.7631 50.0982Z" stroke="white" stroke-opacity="0.14" stroke-width="0.5"/>
</g>
<g filter="url(#filter3_d_2284_20757)">
<path d="M40.1683 59.0329C34.8324 60.4134 31.3286 64.7905 32.3656 68.7985C32.4357 69.0696 32.7251 69.222 33.0234 69.1448L51.3208 64.4109C51.619 64.3338 51.7982 64.0602 51.7281 63.7891C50.6911 59.781 45.5042 57.6524 40.1683 59.0329Z" fill="url(#paint4_linear_2284_20757)"/>
<path d="M32.6076 68.7359C32.1133 66.8254 32.6959 64.8083 34.0724 63.0865C35.4489 61.3647 37.6104 59.9529 40.2309 59.2749C42.8514 58.5969 45.4264 58.7833 47.4652 59.6215C49.504 60.4597 50.9918 61.9412 51.486 63.8517C51.5161 63.9679 51.445 64.1206 51.2582 64.1689L32.9607 68.9028C32.774 68.9511 32.6377 68.8521 32.6076 68.7359Z" stroke="white" stroke-opacity="0.14" stroke-width="0.5"/>
</g>
<g filter="url(#filter4_d_2284_20757)">
<rect x="51.4678" y="46.8135" width="10" height="3" transform="rotate(-14.5055 51.4678 46.8135)" fill="url(#paint5_linear_2284_20757)"/>
<rect x="52.0771" y="47.1723" width="9" height="2" transform="rotate(-14.5055 52.0771 47.1723)" stroke="white" stroke-opacity="0.14"/>
</g>
<g filter="url(#filter5_d_2284_20757)">
<rect x="52.9707" y="52.6221" width="22" height="1" transform="rotate(-14.5055 52.9707 52.6221)" fill="url(#paint6_linear_2284_20757)"/>
<rect x="53.2754" y="52.8015" width="21.5" height="0.5" transform="rotate(-14.5055 53.2754 52.8015)" stroke="white" stroke-opacity="0.14" stroke-width="0.5"/>
</g>
<g filter="url(#filter6_d_2284_20757)">
<rect x="53.7222" y="55.5264" width="22" height="1" transform="rotate(-14.5055 53.7222 55.5264)" fill="url(#paint7_linear_2284_20757)"/>
<rect x="54.0268" y="55.7058" width="21.5" height="0.5" transform="rotate(-14.5055 54.0268 55.7058)" stroke="white" stroke-opacity="0.14" stroke-width="0.5"/>
</g>
<g filter="url(#filter7_d_2284_20757)">
<rect x="54.4736" y="58.4307" width="22" height="1" transform="rotate(-14.5055 54.4736 58.4307)" fill="url(#paint8_linear_2284_20757)"/>
<rect x="54.7783" y="58.6101" width="21.5" height="0.5" transform="rotate(-14.5055 54.7783 58.6101)" stroke="white" stroke-opacity="0.14" stroke-width="0.5"/>
</g>
</g>
<defs>
<filter id="filter0_d_2284_20757" x="-1" y="-3" width="112" height="112" filterUnits="userSpaceOnUse" color-interpolation-filters="sRGB">
<feFlood flood-opacity="0" result="BackgroundImageFix"/>
<feColorMatrix in="SourceAlpha" type="matrix" values="0 0 0 0 0 0 0 0 0 0 0 0 0 0 0 0 0 0 127 0" result="hardAlpha"/>
<feOffset dy="8"/>
<feGaussianBlur stdDeviation="8"/>
<feComposite in2="hardAlpha" operator="out"/>
<feColorMatrix type="matrix" values="0 0 0 0 0.227451 0 0 0 0 0.482353 0 0 0 0 0.835294 0 0 0 0.4 0"/>
<feBlend mode="normal" in2="BackgroundImageFix" result="effect1_dropShadow_2284_20757"/>
<feBlend mode="normal" in="SourceGraphic" in2="effect1_dropShadow_2284_20757" result="shape"/>
</filter>
<filter id="filter1_bi_2284_20757" x="14.2556" y="25.2739" width="73.4902" height="56.1655" filterUnits="userSpaceOnUse" color-interpolation-filters="sRGB">
<feFlood flood-opacity="0" result="BackgroundImageFix"/>
<feGaussianBlur in="BackgroundImage" stdDeviation="1"/>
<feComposite in2="SourceAlpha" operator="in" result="effect1_backgroundBlur_2284_20757"/>
<feBlend mode="normal" in="SourceGraphic" in2="effect1_backgroundBlur_2284_20757" result="shape"/>
<feColorMatrix in="SourceAlpha" type="matrix" values="0 0 0 0 0 0 0 0 0 0 0 0 0 0 0 0 0 0 127 0" result="hardAlpha"/>
<feOffset/>
<feGaussianBlur stdDeviation="2"/>
<feComposite in2="hardAlpha" operator="arithmetic" k2="-1" k3="1"/>
<feColorMatrix type="matrix" values="0 0 0 0 1 0 0 0 0 1 0 0 0 0 1 0 0 0 0.63 0"/>
<feBlend mode="normal" in2="shape" result="effect2_innerShadow_2284_20757"/>
</filter>
<filter id="filter2_d_2284_20757" x="30.6633" y="46.2866" width="12.5024" height="12.5024" filterUnits="userSpaceOnUse" color-interpolation-filters="sRGB">
<feFlood flood-opacity="0" result="BackgroundImageFix"/>
<feColorMatrix in="SourceAlpha" type="matrix" values="0 0 0 0 0 0 0 0 0 0 0 0 0 0 0 0 0 0 127 0" result="hardAlpha"/>
<feOffset dx="-2" dy="2"/>
<feGaussianBlur stdDeviation="0.25"/>
<feComposite in2="hardAlpha" operator="out"/>
<feColorMatrix type="matrix" values="0 0 0 0 0.227451 0 0 0 0 0.482353 0 0 0 0 0.835294 0 0 0 0.4 0"/>
<feBlend mode="normal" in2="BackgroundImageFix" result="effect1_dropShadow_2284_20757"/>
<feBlend mode="normal" in="SourceGraphic" in2="effect1_dropShadow_2284_20757" result="shape"/>
</filter>
<filter id="filter3_d_2284_20757" x="29.6838" y="58.6123" width="22.0593" height="13.0527" filterUnits="userSpaceOnUse" color-interpolation-filters="sRGB">
<feFlood flood-opacity="0" result="BackgroundImageFix"/>
<feColorMatrix in="SourceAlpha" type="matrix" values="0 0 0 0 0 0 0 0 0 0 0 0 0 0 0 0 0 0 127 0" result="hardAlpha"/>
<feOffset dx="-2" dy="2"/>
<feGaussianBlur stdDeviation="0.25"/>
<feComposite in2="hardAlpha" operator="out"/>
<feColorMatrix type="matrix" values="0 0 0 0 0.227451 0 0 0 0 0.482353 0 0 0 0 0.835294 0 0 0 0.4 0"/>
<feBlend mode="normal" in2="BackgroundImageFix" result="effect1_dropShadow_2284_20757"/>
<feBlend mode="normal" in="SourceGraphic" in2="effect1_dropShadow_2284_20757" result="shape"/>
</filter>
<filter id="filter4_d_2284_20757" x="48.9678" y="44.3086" width="12.9326" height="7.90918" filterUnits="userSpaceOnUse" color-interpolation-filters="sRGB">
<feFlood flood-opacity="0" result="BackgroundImageFix"/>
<feColorMatrix in="SourceAlpha" type="matrix" values="0 0 0 0 0 0 0 0 0 0 0 0 0 0 0 0 0 0 127 0" result="hardAlpha"/>
<feOffset dx="-2" dy="2"/>
<feGaussianBlur stdDeviation="0.25"/>
<feComposite in2="hardAlpha" operator="out"/>
<feColorMatrix type="matrix" values="0 0 0 0 0.227451 0 0 0 0 0.482353 0 0 0 0 0.835294 0 0 0 0.4 0"/>
<feBlend mode="normal" in2="BackgroundImageFix" result="effect1_dropShadow_2284_20757"/>
<feBlend mode="normal" in="SourceGraphic" in2="effect1_dropShadow_2284_20757" result="shape"/>
</filter>
<filter id="filter5_d_2284_20757" x="50.4707" y="47.1118" width="24.0493" height="8.97852" filterUnits="userSpaceOnUse" color-interpolation-filters="sRGB">
<feFlood flood-opacity="0" result="BackgroundImageFix"/>
<feColorMatrix in="SourceAlpha" type="matrix" values="0 0 0 0 0 0 0 0 0 0 0 0 0 0 0 0 0 0 127 0" result="hardAlpha"/>
<feOffset dx="-2" dy="2"/>
<feGaussianBlur stdDeviation="0.25"/>
<feComposite in2="hardAlpha" operator="out"/>
<feColorMatrix type="matrix" values="0 0 0 0 0.227451 0 0 0 0 0.482353 0 0 0 0 0.835294 0 0 0 0.4 0"/>
<feBlend mode="normal" in2="BackgroundImageFix" result="effect1_dropShadow_2284_20757"/>
<feBlend mode="normal" in="SourceGraphic" in2="effect1_dropShadow_2284_20757" result="shape"/>
</filter>
<filter id="filter6_d_2284_20757" x="51.2222" y="50.0161" width="24.0493" height="8.97852" filterUnits="userSpaceOnUse" color-interpolation-filters="sRGB">
<feFlood flood-opacity="0" result="BackgroundImageFix"/>
<feColorMatrix in="SourceAlpha" type="matrix" values="0 0 0 0 0 0 0 0 0 0 0 0 0 0 0 0 0 0 127 0" result="hardAlpha"/>
<feOffset dx="-2" dy="2"/>
<feGaussianBlur stdDeviation="0.25"/>
<feComposite in2="hardAlpha" operator="out"/>
<feColorMatrix type="matrix" values="0 0 0 0 0.227451 0 0 0 0 0.482353 0 0 0 0 0.835294 0 0 0 0.4 0"/>
<feBlend mode="normal" in2="BackgroundImageFix" result="effect1_dropShadow_2284_20757"/>
<feBlend mode="normal" in="SourceGraphic" in2="effect1_dropShadow_2284_20757" result="shape"/>
</filter>
<filter id="filter7_d_2284_20757" x="51.9736" y="52.9204" width="24.0493" height="8.97852" filterUnits="userSpaceOnUse" color-interpolation-filters="sRGB">
<feFlood flood-opacity="0" result="BackgroundImageFix"/>
<feColorMatrix in="SourceAlpha" type="matrix" values="0 0 0 0 0 0 0 0 0 0 0 0 0 0 0 0 0 0 127 0" result="hardAlpha"/>
<feOffset dx="-2" dy="2"/>
<feGaussianBlur stdDeviation="0.25"/>
<feComposite in2="hardAlpha" operator="out"/>
<feColorMatrix type="matrix" values="0 0 0 0 0.227451 0 0 0 0 0.482353 0 0 0 0 0.835294 0 0 0 0.4 0"/>
<feBlend mode="normal" in2="BackgroundImageFix" result="effect1_dropShadow_2284_20757"/>
<feBlend mode="normal" in="SourceGraphic" in2="effect1_dropShadow_2284_20757" result="shape"/>
</filter>
<linearGradient id="paint0_linear_2284_20757" x1="18.0211" y1="28.583" x2="39.9083" y2="-2.90321" gradientUnits="userSpaceOnUse">
<stop stop-color="#3A7BD5"/>
<stop offset="1" stop-color="#00D2FF"/>
</linearGradient>
<linearGradient id="paint1_linear_2284_20757" x1="44.7389" y1="24.7969" x2="57.5516" y2="74.3204" gradientUnits="userSpaceOnUse">
<stop stop-color="#3A7BD5" stop-opacity="0.42"/>
<stop offset="1" stop-color="#00D2FF" stop-opacity="0.42"/>
</linearGradient>
<linearGradient id="paint2_linear_2284_20757" x1="29.3617" y1="38.2141" x2="64.6745" y2="80.992" gradientUnits="userSpaceOnUse">
<stop offset="0.331091" stop-color="white" stop-opacity="0.26"/>
<stop offset="1" stop-color="#3A7BD5" stop-opacity="0.16"/>
</linearGradient>
<linearGradient id="paint3_linear_2284_20757" x1="33.6344" y1="54.7699" x2="43.9193" y2="52.0532" gradientUnits="userSpaceOnUse">
<stop stop-color="#C6F5FF"/>
<stop offset="1" stop-color="#FEFCFF"/>
</linearGradient>
<linearGradient id="paint4_linear_2284_20757" x1="31.4379" y1="67.2712" x2="51.9642" y2="61.6819" gradientUnits="userSpaceOnUse">
<stop stop-color="#C6F5FF"/>
<stop offset="1" stop-color="#FEFCFF"/>
</linearGradient>
<linearGradient id="paint5_linear_2284_20757" x1="51.21" y1="48.9843" x2="61.8446" y2="48.8045" gradientUnits="userSpaceOnUse">
<stop stop-color="#C6F5FF"/>
<stop offset="1" stop-color="#FEFCFF"/>
</linearGradient>
<linearGradient id="paint6_linear_2284_20757" x1="52.4036" y1="53.3457" x2="75.5184" y2="50.765" gradientUnits="userSpaceOnUse">
<stop stop-color="#C6F5FF"/>
<stop offset="1" stop-color="#FEFCFF"/>
</linearGradient>
<linearGradient id="paint7_linear_2284_20757" x1="53.155" y1="56.25" x2="76.2698" y2="53.6693" gradientUnits="userSpaceOnUse">
<stop stop-color="#C6F5FF"/>
<stop offset="1" stop-color="#FEFCFF"/>
</linearGradient>
<linearGradient id="paint8_linear_2284_20757" x1="53.9065" y1="59.1543" x2="77.0213" y2="56.5736" gradientUnits="userSpaceOnUse">
<stop stop-color="#C6F5FF"/>
<stop offset="1" stop-color="#FEFCFF"/>
</linearGradient>
</defs>
</svg>
