<svg width="451" height="496" viewBox="0 0 451 496" fill="none" xmlns="http://www.w3.org/2000/svg">
  <path fill-rule="evenodd" clip-rule="evenodd" d="M392.065 30.9102C390.428 19.7074 385.14 9.41382 376.228 0L371.757 3.37255C377.104 9.06191 379.88 14.1354 380.026 18.593C379.88 21.1444 378.01 22.9334 374.445 23.9598C373.394 24.2531 372.283 24.6343 371.085 25.0742C365.271 27.7722 362.378 32.3179 362.378 38.7404C362.378 41.1452 362.904 43.374 363.926 45.4562C366.615 51.1455 370.91 53.9609 376.871 53.9609C378.945 53.9609 380.874 53.5796 382.685 52.8465C389.23 50.471 392.503 44.8696 392.503 36.0423C392.503 34.4 392.357 32.6698 392.065 30.8809V30.9102ZM356.125 30.9102C354.489 19.7074 349.2 9.41382 340.288 0L335.818 3.37255C341.165 9.06191 343.94 14.1354 344.087 18.593C343.94 21.1444 342.07 22.9334 338.506 23.9598C337.454 24.2531 336.343 24.6343 335.145 25.0742C329.331 27.7722 326.438 32.3179 326.438 38.7404C326.438 41.1452 326.964 43.374 327.987 45.4562C330.675 51.1455 334.97 53.9609 340.931 53.9609C343.005 53.9609 344.934 53.5796 346.746 52.8465C353.291 50.471 356.563 44.8696 356.563 36.0423C356.563 34.4 356.417 32.6698 356.125 30.8809V30.9102ZM161.466 38.3307C80.356 38.3307 14.6097 104.317 14.6097 185.726V291.419H10.1976V466.058H37.43V471.923H7.27562H4.35369V468.99V291.419H1.53746e-06V185.726C1.53746e-06 96.2192 72.2857 23.6674 161.466 23.6674V28.0664H310.134V33.9317H161.466V38.3307ZM443.695 28.0664H446.617V30.999V149.331H451V314.293C451 403.8 378.713 476.351 289.534 476.351V471.952H129.967V466.087H289.534V461.688C370.645 461.688 436.39 395.7 436.39 314.293V149.331H440.773V33.9317H409.479V28.0664H443.695ZM67.6135 496C58.7016 486.586 53.4129 476.293 51.7766 465.09V465.119C51.4844 463.33 51.3383 461.6 51.3383 459.958C51.3383 451.13 54.6109 445.529 61.156 443.154C62.9676 442.42 64.8961 442.039 66.9707 442.039C72.9314 442.039 77.2266 444.855 79.9148 450.544C80.9375 452.626 81.4634 454.855 81.4634 457.26C81.4634 463.682 78.5707 468.228 72.7561 470.926C71.5581 471.366 70.4477 471.747 69.3959 472.04C65.8311 473.067 63.9611 474.856 63.815 477.407C63.9611 481.865 66.7369 486.938 72.0841 492.627L67.6135 496ZM103.553 496C94.6413 486.586 89.3527 476.293 87.7164 465.09V465.119C87.4242 463.33 87.2781 461.6 87.2781 459.958C87.2781 451.13 90.5506 445.529 97.0958 443.154C98.9074 442.42 100.836 442.039 102.91 442.039C108.871 442.039 113.166 444.855 115.855 450.544C116.877 452.626 117.403 454.855 117.403 457.26C117.403 463.682 114.51 468.228 108.696 470.926C107.498 471.366 106.388 471.747 105.336 472.04C101.771 473.067 99.9008 474.856 99.7547 477.407C99.9008 481.865 102.677 486.938 108.024 492.627L103.553 496Z" fill="#08BED5"/>
  </svg>
  