<svg width="451" height="496" viewBox="0 0 451 496" fill="none" xmlns="http://www.w3.org/2000/svg">
  <path fill-rule="evenodd" clip-rule="evenodd"
    d="M58.9353 30.9102C60.5716 19.7074 65.8603 9.41382 74.7722 0L79.2428 3.37255C73.8956 9.0619 71.1198 14.1354 70.9737 18.593C71.1198 21.1444 72.9898 22.9334 76.5546 23.9598C77.6065 24.2531 78.7168 24.6343 79.9148 25.0742C85.7294 27.7722 88.6222 32.3179 88.6222 38.7404C88.6222 41.1452 88.0962 43.374 87.0735 45.4562C84.3854 51.1455 80.0901 53.9609 74.1294 53.9609C72.0548 53.9609 70.1263 53.5796 68.3147 52.8465C61.7696 50.471 58.4971 44.8696 58.4971 36.0423C58.4971 34.4 58.6431 32.6698 58.9353 30.8809V30.9102ZM94.8751 30.9102C96.5114 19.7074 101.8 9.41382 110.712 0L115.182 3.37255C109.835 9.0619 107.06 14.1354 106.913 18.593C107.06 21.1444 108.93 22.9334 112.494 23.9598C113.546 24.2531 114.657 24.6343 115.855 25.0742C121.669 27.7722 124.562 32.3179 124.562 38.7404C124.562 41.1452 124.036 43.374 123.013 45.4562C120.325 51.1455 116.03 53.9609 110.069 53.9609C107.995 53.9609 106.066 53.5796 104.254 52.8465C97.7094 50.471 94.4368 44.8696 94.4368 36.0423C94.4368 34.4 94.5829 32.6698 94.8751 30.8809V30.9102ZM289.534 38.3307C370.644 38.3307 436.39 104.317 436.39 185.726V291.419H440.802V466.058H413.57V471.923H443.724H446.646V468.99V291.419H451V185.726C451 96.2192 378.714 23.6674 289.534 23.6674V28.0664H140.866V33.9317H289.534V38.3307ZM7.30483 28.0664H4.3829V30.999V149.331H0V314.293C0 403.8 72.2865 476.351 161.466 476.351V471.952H321.033V466.087H161.466V461.688C80.3551 461.688 14.6097 395.7 14.6097 314.293V149.331H10.2268V33.9317H41.5206V28.0664H7.30483ZM383.387 496C392.298 486.586 397.587 476.293 399.223 465.09V465.119C399.516 463.33 399.662 461.6 399.662 459.958C399.662 451.13 396.389 445.529 389.844 443.154C388.032 442.42 386.104 442.039 384.029 442.039C378.069 442.039 373.773 444.854 371.085 450.544C370.062 452.626 369.537 454.855 369.537 457.26C369.537 463.682 372.429 468.228 378.244 470.926C379.442 471.366 380.552 471.747 381.604 472.04C385.169 473.067 387.039 474.856 387.185 477.407C387.039 481.865 384.263 486.938 378.916 492.627L383.387 496ZM347.447 496C356.359 486.586 361.647 476.293 363.284 465.09V465.119C363.576 463.33 363.722 461.6 363.722 459.958C363.722 451.13 360.449 445.529 353.904 443.154C352.093 442.42 350.164 442.039 348.09 442.039C342.129 442.039 337.834 444.854 335.145 450.544C334.123 452.626 333.597 454.855 333.597 457.26C333.597 463.682 336.49 468.228 342.304 470.926C343.502 471.366 344.612 471.747 345.664 472.04C349.229 473.067 351.099 474.856 351.245 477.407C351.099 481.865 348.323 486.938 342.976 492.627L347.447 496Z"
    fill="#08BED5" />
</svg>
